<svg height="512pt" viewBox="0 -37 512.002 512" width="512pt" xmlns="http://www.w3.org/2000/svg"><g fill-rule="evenodd"><path d="M54.102 430.5h76.82c5.5 0 10.004-4.508 10.004-10.012v-29.246l-53.574-27.031-43.258 27.031v29.246c.004 5.5 4.508 10.012 10.008 10.012zm326.948 0h76.821c5.496 0 10.004-4.508 10.004-10.012v-29.246l-52.523-27.031-44.309 27.031v29.246c0 5.5 4.508 10.012 10.008 10.012zm0 0" fill="#b3b3b3"/><path d="M7.5 27.074v344.567c0 10.777 8.816 19.601 19.559 19.601H484.91c10.774 0 19.59-8.824 19.59-19.601V27.074c0-10.75-8.816-19.574-19.59-19.574H27.06C16.316 7.5 7.5 16.324 7.5 27.074zm0 0" fill="#e6e6e6"/><path d="M461.469 331.39V226.18c0-8.625-7.059-15.688-15.703-15.688h-33.563c-8.644 0-15.703 7.063-15.703 15.688v105.21c0 8.622 7.059 15.684 15.703 15.684h33.563c8.644 0 15.703-7.062 15.703-15.683zm0 0" fill="#eb5757"/><path d="M456.566 48.773h-55.164c-2.691 0-4.902 2.215-4.902 4.907v22.468c0 2.696 2.21 4.907 4.902 4.907h55.164c2.692 0 4.903-2.215 4.903-4.907V53.684c0-2.696-2.211-4.91-4.903-4.91zm0 0" fill="#55cf63"/><path d="M412.203 210.492c-8.644 0-15.703 7.063-15.703 15.688v105.21c0 8.622 7.059 15.684 15.703 15.684h16.781c-8.617 0-15.675-7.062-15.675-15.683V226.18c0-8.625 7.058-15.688 15.675-15.688zm0 0" fill="#bf3961"/><path d="M418.043 48.773h-16.64c-2.692 0-4.903 2.215-4.903 4.907v22.468c0 2.696 2.21 4.907 4.902 4.907h16.586a4.913 4.913 0 01-4.847-4.907V53.684c0-2.696 2.21-4.91 4.902-4.91zm0 0" fill="#32a352"/><path d="M198.7 354.309c84.558 0 153.097-68.59 153.097-153.207 0-84.59-68.543-153.207-153.098-153.207-84.558 0-153.101 68.617-153.101 153.207 0 84.617 68.543 153.207 153.101 153.207zm0 0" fill="#b3b3b3"/><path d="M44.098 391.242v29.246c0 5.504 4.504 10.012 10.004 10.012H87.21c-5.5 0-10.008-4.508-10.008-10.012v-29.246zm326.945 29.246c0 5.5 4.508 10.012 10.008 10.012h33.11c-5.5 0-10.009-4.512-10.009-10.012v-29.246h-33.109zm0 0" fill="#888b99"/><path d="M7.5 27.074v344.567c0 10.777 8.816 19.601 19.559 19.601h17.035c-10.715-.086-19.446-8.851-19.446-19.601V27.074c0-10.75 8.817-19.574 19.559-19.574H27.059C16.316 7.5 7.5 16.324 7.5 27.074zm0 0" fill="#b3b3b3"/><path d="M45.598 201.102c0 84.617 68.543 153.207 153.097 153.207 7.996 0 15.875-.594 23.559-1.786-1.39.028-2.777.055-4.168.055-84.527 0-153.098-68.59-153.098-153.207 0-76.59 56.184-140.07 129.543-151.418-82.629 2.211-148.933 69.95-148.933 153.149zm0 0" fill="#888b99"/><path d="M85.313 217.156c-7.118 29.614 24.917 112.758 81.55 56.563 10.774-10.692 18.91-23.317 24.293-36.903.598-9.277-1.472-26.07-26.304-26.296-9.75.566-19.532-.172-28.97-2.27-23.073-5.078-42.632-24.082-50.57 8.906zm149.667 37.219c7.399 22.465 1.02 48.988 33.45 38.973 29.082-8.961 84.187-78.942 7.004-99.028a107.581 107.581 0 00-44.11-2.07c-15.11 16.852-11.535 12.992-9.183 36.027 5.468 8.114 9.808 16.907 12.84 26.098zm-60.093-76.422c16.242 8.453 27.156 9.762 36.511-6.918a106.86 106.86 0 0118.196-22.668c17.207-16.222 43.937-21.672 21.148-46.832-20.41-22.578-107.094-42.945-92.637 35.543 2.75 14.922 8.59 28.766 16.782 40.875zm0 0" fill="#bae0f2"/><path d="M250.742 101.535c-20.41-22.578-107.094-42.945-92.637 35.543 2.75 14.922 8.59 28.766 16.782 40.875 1.39-1.273 2.836-2.465 4.422-3.516a107.497 107.497 0 01-8.391-26.097c-12.727-69.07 52.84-61.582 82.687-43.43a56.904 56.904 0 00-2.863-3.375zM85.313 217.156c-7.118 29.614 24.917 112.758 81.55 56.563 10.774-10.692 18.91-23.317 24.293-36.903a33.82 33.82 0 01-4.562-1.336 108.288 108.288 0 01-16.383 20.88c-51.223 50.831-82.32-12.31-82.52-46.774-.879 2.152-1.671 4.68-2.379 7.57zm177.647-16.222c66.782 17.359 34.552 72.05 5.81 92.332 29.167-9.418 83.566-78.946 6.66-98.942a107.492 107.492 0 00-44.106-2.07c.567 1.7.992 3.46 1.278 5.273 10.09-.312 20.293.766 30.359 3.407zm0 0" fill="#93baf0"/><path d="M198.555 237.61c9.129 0 17.406-3.548 23.586-9.333 6.718-6.297 10.914-15.261 10.914-25.191 0-3.8-.625-7.43-1.73-10.836a34.669 34.669 0 00-19.93-21.219 34.541 34.541 0 00-12.84-2.465c-9.157 0-17.489 3.575-23.668 9.387-6.66 6.297-10.828 15.234-10.828 25.133 0 2.555.28 5.023.793 7.434 2.89 13.105 13.18 23.43 26.304 26.296 2.383.508 4.848.793 7.399.793zm0 0" fill="#616d80"/><path d="M185.656 205.156c1.106 5.024 5.074 8.992 10.094 10.07.934.227 1.871.313 2.863.313 3.485 0 6.688-1.36 9.043-3.574a13.192 13.192 0 004.196-9.672c0-1.445-.23-2.863-.653-4.172-1.219-3.715-4.054-6.691-7.656-8.14a13.654 13.654 0 00-4.93-.934c-3.515 0-6.718 1.36-9.101 3.601a13.253 13.253 0 00-4.164 9.645c0 .965.113 1.93.308 2.863zm0 0" fill="#2e3c51"/></g><path d="M396.5 131.645h64.969a7.5 7.5 0 007.5-7.5 7.5 7.5 0 00-7.5-7.5H396.5c-4.145 0-7.5 3.359-7.5 7.5s3.355 7.5 7.5 7.5zm0 43.089h64.969a7.5 7.5 0 007.5-7.5 7.5 7.5 0 00-7.5-7.5H396.5a7.497 7.497 0 00-7.5 7.5 7.5 7.5 0 007.5 7.5zM389 331.387c0 12.785 10.41 23.187 23.203 23.187h33.563c12.796 0 23.203-10.402 23.203-23.187v-32.934a7.5 7.5 0 10-15 0v32.934c0 4.515-3.68 8.187-8.203 8.187h-33.563c-4.52 0-8.203-3.672-8.203-8.187V226.18c0-4.516 3.68-8.188 8.203-8.188h33.563c4.523 0 8.203 3.672 8.203 8.188v37.613a7.5 7.5 0 1015 0V226.18c0-12.785-10.406-23.188-23.203-23.188h-33.563c-12.793 0-23.203 10.403-23.203 23.188zm12.402-242.832h55.164c6.84 0 12.403-5.567 12.403-12.407V53.684c0-6.844-5.563-12.41-12.403-12.41h-55.164c-6.84 0-12.402 5.566-12.402 12.41v22.464c0 6.84 5.563 12.407 12.402 12.407zM404 56.273h49.969v17.282H404zM122.473 196.02c-10.32-3.93-20.993-7.997-30.457-3.004-6.73 3.547-11.176 10.664-13.996 22.39-5.09 21.18 6.851 64.977 33.144 79.774 5.16 2.898 11.59 5.144 19.148 5.144 11.516 0 25.645-5.219 41.836-21.281 9.922-9.852 17.868-21.281 23.668-34.031.907.058 1.817.097 2.739.097a41.724 41.724 0 0021.5-5.941 98.034 98.034 0 017.8 17.55c1.625 4.934 2.547 10.274 3.442 15.438 1.879 10.89 3.824 22.153 12.945 27.746 3.418 2.094 7.36 3.141 12.016 3.141 4.176 0 8.93-.844 14.379-2.527 20.781-6.407 52.328-38.993 51.656-69.164-.332-14.954-8.406-34.774-44.984-44.29-13.598-3.523-27.473-4.527-41.329-3.007a42.298 42.298 0 00-13.843-15.72 98.344 98.344 0 0112.601-14.51c3.782-3.563 8.23-6.665 12.532-9.665 9.062-6.312 18.433-12.844 19.64-23.473.86-7.562-2.512-15.246-10.605-24.18C241.727 80.38 198.89 65.56 171.844 78.91c-13.414 6.621-27.969 22.324-21.117 59.527 2.539 13.762 7.5 26.778 14.777 38.77-5.598 7.14-8.95 16.125-8.95 25.879 0 .031.005.059.005.09-6.48-.13-12.868-.871-19.067-2.25-5.062-1.117-10.125-3.043-15.02-4.906zm118.082 7.066c0-1.477-.078-2.938-.23-4.379 11.144-.918 22.288.047 33.218 2.875 22.082 5.746 33.437 15.871 33.754 30.102.492 22.132-25.254 49.62-41.082 54.5-6.711 2.07-11.73 2.402-14.13.93-3.335-2.044-4.636-9.555-6.007-17.509-.941-5.437-2.004-11.597-3.976-17.582-2.633-7.976-6.192-15.668-10.579-22.949 5.649-7.156 9.032-16.18 9.032-25.988zm-15 0c0 14.902-12.114 27.023-27 27.023-14.887 0-26.996-12.125-26.996-27.023 0-14.899 12.109-27.02 26.996-27.02 14.886 0 27 12.121 27 27.02zm-60.075-67.367c-4.136-22.465.239-37.055 13.004-43.356 19.832-9.793 55.598 1.926 66.7 14.207 4.718 5.211 7.14 9.621 6.824 12.422-.442 3.895-6.692 8.25-13.313 12.863-4.527 3.157-9.66 6.73-14.25 11.06-6.101 5.76-11.554 12.233-16.285 19.269a42.075 42.075 0 00-9.601-1.121 41.734 41.734 0 00-21.614 6.007 99.326 99.326 0 01-11.465-31.351zm-6.109 82.465a42.255 42.255 0 0021.637 23.07 99.595 99.595 0 01-19.426 27.14c-16.191 16.067-30.68 20.676-43.059 13.711-19.285-10.851-29.796-47.062-25.918-63.195 1.641-6.828 3.918-11.312 6.41-12.625 3.462-1.828 10.583.883 18.118 3.754 5.152 1.961 10.992 4.184 17.12 5.531 8.153 1.817 16.579 2.676 25.118 2.614zm0 0"/><path d="M206.266 182.992a21.015 21.015 0 00-7.653-1.445c-5.316 0-10.375 2-14.254 5.648-4.14 3.914-6.515 9.418-6.515 15.098 0 1.45.16 2.937.488 4.477 1.734 7.867 7.906 14.046 15.746 15.77 1.422.339 2.906.5 4.535.5a20.612 20.612 0 0014.164-5.595 20.817 20.817 0 006.575-15.152c0-2.23-.344-4.414-1.024-6.492 0-.004 0-.012-.004-.016-1.906-5.816-6.273-10.469-12.058-12.793zm-3.75 23.512a5.68 5.68 0 01-3.903 1.535c-.465 0-.812-.031-1.093-.101-.067-.016-.13-.032-.196-.043-2.125-.458-3.867-2.204-4.328-4.293a6.166 6.166 0 01-.148-1.309c0-1.598.644-3.086 1.804-4.184a5.766 5.766 0 013.961-1.562c.742 0 1.485.14 2.133.394 1.563.63 2.805 1.942 3.324 3.516a6 6 0 01.278 1.836 5.686 5.686 0 01-1.832 4.21zm0 0"/><path d="M333.004 127.387a7.5 7.5 0 002.625-10.278c-28.09-47.32-80.559-76.714-136.93-76.714-88.554 0-160.601 72.093-160.601 160.707 0 88.613 72.047 160.707 160.601 160.707 88.555 0 160.598-72.094 160.598-160.707 0-15.875-2.43-31.735-7.227-47.133a7.5 7.5 0 10-14.324 4.457c4.348 13.957 6.55 28.312 6.55 42.676 0 80.343-65.316 145.707-145.597 145.707-80.285 0-145.601-65.368-145.601-145.707 0-80.344 65.316-145.707 145.597-145.707 51.11 0 98.633 26.582 124.032 69.37a7.496 7.496 0 0010.277 2.622zm0 0"/><path d="M484.91 0H242.777a7.5 7.5 0 00-7.5 7.5c0 4.145 3.356 7.5 7.5 7.5H484.91c6.668 0 12.09 5.418 12.09 12.074v344.567c0 6.671-5.422 12.097-12.09 12.097H27.06c-6.649 0-12.059-5.425-12.059-12.097V27.074c0-6.656 5.41-12.07 12.059-12.07h181.105a7.5 7.5 0 007.5-7.5c0-4.145-3.355-7.5-7.5-7.5H27.06C12.14 0 0 12.144 0 27.074v344.567c0 14.945 12.14 27.101 27.059 27.101h9.539v21.746c0 9.657 7.851 17.516 17.504 17.516h76.82c9.652 0 17.508-7.86 17.508-17.516v-21.746h215.117v21.746c0 9.657 7.851 17.516 17.504 17.516h76.82c9.652 0 17.508-7.86 17.508-17.516v-21.746h9.535c14.938 0 27.09-12.156 27.09-27.101V27.074C512 12.144 499.848 0 484.91 0zM133.426 420.488c0 1.36-1.145 2.512-2.504 2.512h-76.82c-1.36 0-2.504-1.148-2.504-2.512v-21.746h81.828zm326.949 0c0 1.36-1.145 2.512-2.504 2.512h-76.82c-1.36 0-2.504-1.148-2.504-2.512v-21.746h81.828zm0 0"/></svg>