<svg height="512pt" viewBox="0 -37 512.002 512" width="512pt" xmlns="http://www.w3.org/2000/svg"><g fill-rule="evenodd"><path d="m54.101562 430.5h76.820313c5.5 0 10.003906-4.507812 10.003906-10.011719v-29.246093l-53.574219-27.03125-43.257812 27.03125v29.246093c.003906 5.5 4.507812 10.011719 10.007812 10.011719zm0 0" fill="#b3b3b3"/><path d="m381.050781 430.5h76.820313c5.496094 0 10.003906-4.507812 10.003906-10.011719v-29.246093l-52.523438-27.03125-44.308593 27.03125v29.246093c0 5.5 4.507812 10.011719 10.007812 10.011719zm0 0" fill="#b3b3b3"/><path d="m7.5 27.074219v344.566406c0 10.777344 8.816406 19.601563 19.558594 19.601563h457.851562c10.773438 0 19.589844-8.824219 19.589844-19.601563v-344.566406c0-10.75-8.816406-19.574219-19.589844-19.574219h-457.851562c-10.742188 0-19.558594 8.824219-19.558594 19.574219zm0 0" fill="#e6e6e6"/><path d="m461.46875 331.390625v-105.210937c0-8.625-7.058594-15.6875-15.703125-15.6875h-33.5625c-8.644531 0-15.703125 7.0625-15.703125 15.6875v105.210937c0 8.621094 7.058594 15.683594 15.703125 15.683594h33.5625c8.644531 0 15.703125-7.0625 15.703125-15.683594zm0 0" fill="#eb5757"/><path d="m456.566406 48.773438h-55.164062c-2.691406 0-4.902344 2.214843-4.902344 4.90625v22.46875c0 2.695312 2.210938 4.90625 4.902344 4.90625h55.164062c2.691406 0 4.902344-2.214844 4.902344-4.90625v-22.464844c0-2.695313-2.210938-4.910156-4.902344-4.910156zm0 0" fill="#55cf63"/><path d="m412.203125 210.492188c-8.644531 0-15.703125 7.0625-15.703125 15.6875v105.210937c0 8.621094 7.058594 15.683594 15.703125 15.683594h16.78125c-8.617187 0-15.675781-7.0625-15.675781-15.683594v-105.210937c0-8.625 7.058594-15.6875 15.675781-15.6875zm0 0" fill="#bf3961"/><path d="m418.042969 48.773438h-16.640625c-2.691406 0-4.902344 2.214843-4.902344 4.90625v22.46875c0 2.695312 2.210938 4.90625 4.902344 4.90625h16.585937c-2.667969-.027344-4.847656-2.214844-4.847656-4.90625v-22.464844c0-2.695313 2.210937-4.910156 4.902344-4.910156zm0 0" fill="#32a352"/><path d="m198.699219 354.308594c84.558593 0 153.097656-68.589844 153.097656-153.207032 0-84.589843-68.542969-153.207031-153.097656-153.207031-84.558594 0-153.101563 68.617188-153.101563 153.207031 0 84.617188 68.542969 153.207032 153.101563 153.207032zm0 0" fill="#b3b3b3"/><path d="m44.097656 391.242188v29.246093c0 5.503907 4.503906 10.011719 10.003906 10.011719h33.109376c-5.5 0-10.007813-4.507812-10.007813-10.011719v-29.246093zm0 0" fill="#888b99"/><path d="m371.042969 420.488281c0 5.5 4.507812 10.011719 10.007812 10.011719h33.109375c-5.5 0-10.007812-4.511719-10.007812-10.011719v-29.246093h-33.109375zm0 0" fill="#888b99"/><path d="m7.5 27.074219v344.566406c0 10.777344 8.816406 19.601563 19.558594 19.601563h17.035156c-10.714844-.085938-19.445312-8.851563-19.445312-19.601563v-344.566406c0-10.75 8.816406-19.574219 19.558593-19.574219h-17.148437c-10.742188 0-19.558594 8.824219-19.558594 19.574219zm0 0" fill="#b3b3b3"/><path d="m45.597656 201.101562c0 84.617188 68.542969 153.207032 153.097656 153.207032 7.996094 0 15.875-.59375 23.558594-1.785156-1.390625.027343-2.777344.054687-4.167968.054687-84.527344 0-153.097657-68.589844-153.097657-153.207031 0-76.589844 56.183594-140.070313 129.542969-151.417969-82.628906 2.210937-148.933594 69.949219-148.933594 153.148437zm0 0" fill="#888b99"/><path d="m85.3125 217.15625c-7.117188 29.613281 24.917969 112.757812 81.550781 56.5625 10.773438-10.691406 18.910157-23.316406 24.292969-36.902344.597656-9.277344-1.472656-26.070312-26.304688-26.296875-9.75.566407-19.53125-.171875-28.96875-2.269531-23.074218-5.078125-42.632812-24.082031-50.570312 8.90625zm0 0" fill="#bae0f2"/><path d="m234.980469 254.375c7.398437 22.464844 1.019531 48.988281 33.449219 38.972656 29.082031-8.960937 84.1875-78.941406 7.003906-99.027344-14.6875-3.800781-29.679688-4.394531-44.109375-2.070312-15.109375 16.851562-11.535157 12.992188-9.183594 36.027344 5.46875 8.113281 9.808594 16.90625 12.839844 26.097656zm0 0" fill="#bae0f2"/><path d="m174.886719 177.953125c16.242187 8.453125 27.15625 9.761719 36.511719-6.917969 5.042968-8.398437 11.167968-16.027344 18.195312-22.667968 17.207031-16.222657 43.9375-21.671876 21.148438-46.832032-20.410157-22.578125-107.09375-42.945312-92.636719 35.542969 2.75 14.921875 8.589843 28.765625 16.78125 40.875zm0 0" fill="#bae0f2"/><path d="m250.742188 101.535156c-20.410157-22.578125-107.09375-42.945312-92.636719 35.542969 2.75 14.921875 8.589843 28.765625 16.78125 40.875 1.390625-1.273437 2.835937-2.464844 4.421875-3.515625-3.855469-8.199219-6.691406-16.960938-8.390625-26.097656-12.726563-69.070313 52.839843-61.582032 82.6875-43.429688-.851563-1.074218-1.785157-2.210937-2.863281-3.375zm0 0" fill="#93baf0"/><path d="m85.3125 217.15625c-7.117188 29.613281 24.917969 112.757812 81.550781 56.5625 10.773438-10.691406 18.910157-23.316406 24.292969-36.902344-1.585938-.339844-3.089844-.796875-4.5625-1.335937-4.507812 7.492187-10.003906 14.527343-16.382812 20.878906-51.222657 50.832031-82.320313-12.308594-82.519532-46.773437-.878906 2.152343-1.671875 4.679687-2.378906 7.570312zm0 0" fill="#93baf0"/><path d="m262.960938 200.933594c66.78125 17.359375 34.550781 72.050781 5.808593 92.332031 29.167969-9.417969 83.566407-78.945313 6.660157-98.941406-14.683594-3.800781-29.675782-4.398438-44.105469-2.070313.566406 1.699219.992187 3.460938 1.277343 5.273438 10.089844-.3125 20.292969.765625 30.359376 3.40625zm0 0" fill="#93baf0"/><path d="m198.554688 237.609375c9.128906 0 17.40625-3.546875 23.585937-9.332031 6.71875-6.296875 10.914063-15.261719 10.914063-25.191406 0-3.800782-.625-7.429688-1.730469-10.835938-3.203125-9.671875-10.546875-17.445312-19.929688-21.21875-3.96875-1.585938-8.304687-2.464844-12.839843-2.464844-9.15625 0-17.488282 3.574219-23.667969 9.386719-6.660157 6.296875-10.828125 15.234375-10.828125 25.132813 0 2.554687.28125 5.023437.792968 7.433593 2.890626 13.105469 13.179688 23.429688 26.304688 26.296875 2.382812.507813 4.847656.792969 7.398438.792969zm0 0" fill="#616d80"/><path d="m185.65625 205.15625c1.105469 5.023438 5.074219 8.992188 10.09375 10.070312.933594.226563 1.871094.3125 2.863281.3125 3.484375 0 6.6875-1.359374 9.042969-3.574218 2.578125-2.410156 4.195312-5.84375 4.195312-9.671875 0-1.445313-.230468-2.863281-.652343-4.171875-1.21875-3.714844-4.054688-6.691406-7.65625-8.140625-1.53125-.59375-3.203125-.933594-4.929688-.933594-3.515625 0-6.71875 1.359375-9.101562 3.601563-2.550781 2.410156-4.164063 5.84375-4.164063 9.644531 0 .964843.113282 1.929687.308594 2.863281zm0 0" fill="#2e3c51"/></g><path d="m396.5 131.644531h64.96875c4.144531 0 7.5-3.359375 7.5-7.5 0-4.144531-3.359375-7.5-7.5-7.5h-64.96875c-4.144531 0-7.5 3.359375-7.5 7.5s3.355469 7.5 7.5 7.5zm0 0"/><path d="m396.5 174.734375h64.96875c4.144531 0 7.5-3.359375 7.5-7.5 0-4.144531-3.359375-7.5-7.5-7.5h-64.96875c-4.144531 0-7.5 3.355469-7.5 7.5 0 4.140625 3.355469 7.5 7.5 7.5zm0 0"/><path d="m389 331.386719c0 12.785156 10.410156 23.1875 23.203125 23.1875h33.5625c12.796875 0 23.203125-10.402344 23.203125-23.1875v-32.933594c0-4.140625-3.355469-7.5-7.5-7.5-4.140625 0-7.5 3.359375-7.5 7.5v32.933594c0 4.515625-3.679688 8.1875-8.203125 8.1875h-33.5625c-4.519531 0-8.203125-3.671875-8.203125-8.1875v-105.207031c0-4.515626 3.679688-8.1875 8.203125-8.1875h33.5625c4.523437 0 8.203125 3.671874 8.203125 8.1875v37.613281c0 4.140625 3.359375 7.5 7.5 7.5 4.144531 0 7.5-3.359375 7.5-7.5v-37.613281c0-12.785157-10.40625-23.1875-23.203125-23.1875h-33.5625c-12.792969 0-23.203125 10.402343-23.203125 23.1875zm0 0"/><path d="m401.402344 88.554688h55.164062c6.839844 0 12.402344-5.566407 12.402344-12.40625v-22.464844c0-6.84375-5.5625-12.410156-12.402344-12.410156h-55.164062c-6.839844 0-12.402344 5.566406-12.402344 12.410156v22.464844c0 6.839843 5.5625 12.40625 12.402344 12.40625zm2.597656-32.28125h49.96875v17.28125h-49.96875zm0 0"/><path d="m122.472656 196.019531c-10.320312-3.929687-20.992187-7.996093-30.457031-3.003906-6.730469 3.546875-11.175781 10.664063-13.996094 22.390625-5.089843 21.179688 6.851563 64.976562 33.144531 79.773438 5.160157 2.898437 11.589844 5.144531 19.148438 5.144531 11.515625 0 25.644531-5.21875 41.835938-21.28125 9.921874-9.851563 17.867187-21.28125 23.667968-34.03125.90625.058593 1.816406.097656 2.738282.097656 7.851562 0 15.203124-2.171875 21.5-5.941406 3.179687 5.617187 5.800781 11.492187 7.800781 17.550781 1.625 4.933594 2.546875 10.273438 3.441406 15.4375 1.878906 10.890625 3.824219 22.152344 12.945313 27.746094 3.417968 2.09375 7.359374 3.140625 12.015624 3.140625 4.175782 0 8.929688-.84375 14.378907-2.527344 20.78125-6.40625 52.328125-38.992187 51.65625-69.164063-.332031-14.953124-8.40625-34.773437-44.984375-44.289062-13.597656-3.523438-27.472656-4.527344-41.328125-3.007812-3.230469-6.332032-8.007813-11.742188-13.84375-15.71875 3.742187-5.261719 7.957031-10.125 12.601562-14.511719 3.78125-3.5625 8.230469-6.664063 12.53125-9.664063 9.0625-6.3125 18.433594-12.84375 19.640625-23.472656.859375-7.5625-2.511718-15.246094-10.605468-24.179688-14.578126-16.128906-57.414063-30.949218-84.460938-17.597656-13.414062 6.621094-27.96875 22.324219-21.117188 59.527344 2.539063 13.761719 7.5 26.777344 14.777344 38.769531-5.597656 7.140625-8.949218 16.125-8.949218 25.878907 0 .03125.003906.058593.003906.089843-6.480469-.128906-12.867188-.871093-19.066406-2.25-5.0625-1.117187-10.125-3.042969-15.019532-4.90625zm118.082032 7.066407c0-1.476563-.078126-2.9375-.230469-4.378907 11.144531-.917969 22.289062.046875 33.21875 2.875 22.082031 5.746094 33.4375 15.871094 33.753906 30.101563.492187 22.132812-25.253906 49.621094-41.082031 54.5-6.710938 2.070312-11.730469 2.402344-14.128906.929687-3.335938-2.042969-4.636719-9.554687-6.007813-17.507812-.941406-5.4375-2.003906-11.597657-3.976563-17.582031-2.632812-7.976563-6.191406-15.667969-10.578124-22.949219 5.648437-7.15625 9.03125-16.179688 9.03125-25.988281zm-15 0c0 14.902343-12.113282 27.023437-27 27.023437-14.886719 0-26.996094-12.125-26.996094-27.023437 0-14.898438 12.109375-27.019532 26.996094-27.019532 14.886718 0 27 12.121094 27 27.019532zm-60.074219-67.367188c-4.136719-22.464844.238281-37.054688 13.003906-43.355469 19.832031-9.792969 55.597656 1.925781 66.699219 14.207031 4.71875 5.210938 7.140625 9.621094 6.824218 12.421876-.441406 3.894531-6.691406 8.25-13.3125 12.863281-4.527343 3.15625-9.660156 6.730469-14.25 11.058593-6.101562 5.761719-11.554687 12.234376-16.285156 19.269532-3.085937-.722656-6.300781-1.121094-9.601562-1.121094-7.902344 0-15.296875 2.199219-21.613282 6.007812-5.578124-9.773437-9.425781-20.289062-11.464843-31.351562zm-6.109375 82.464844c3.945312 10.210937 11.757812 18.503906 21.636718 23.070312-4.929687 10.109375-11.441406 19.214844-19.425781 27.140625-16.191406 16.066407-30.679687 20.675781-43.058593 13.710938-19.285157-10.851563-29.796876-47.0625-25.917969-63.195313 1.640625-6.828125 3.917969-11.3125 6.410156-12.625 3.460937-1.828125 10.582031.882813 18.117187 3.753906 5.152344 1.960938 10.992188 4.183594 17.121094 5.53125 8.152344 1.816407 16.578125 2.675782 25.117188 2.613282zm0 0"/><path d="m206.265625 182.992188c-2.46875-.960938-5.042969-1.445313-7.652344-1.445313-5.316406 0-10.375 2-14.253906 5.648437-4.140625 3.914063-6.515625 9.417969-6.515625 15.097657 0 1.449219.160156 2.9375.488281 4.476562 1.734375 7.867188 7.90625 14.046875 15.746094 15.769531 1.421875.339844 2.90625.5 4.535156.5 5.296875 0 10.332031-1.992187 14.164063-5.59375 4.175781-3.90625 6.574218-9.425781 6.574218-15.152343 0-2.230469-.34375-4.414063-1.023437-6.492188 0-.003906 0-.011719-.003906-.015625-1.90625-5.816406-6.273438-10.46875-12.058594-12.792968zm-3.75 23.511718c-1.050781.988282-2.441406 1.535156-3.902344 1.535156-.464843 0-.8125-.03125-1.09375-.101562-.066406-.015625-.128906-.03125-.195312-.042969-2.125-.457031-3.867188-2.203125-4.328125-4.292969-.101563-.464843-.148438-.90625-.148438-1.308593 0-1.597657.644532-3.085938 1.804688-4.183594 1.074218-1.007813 2.480468-1.5625 3.960937-1.5625.742188 0 1.484375.140625 2.132813.394531 1.5625.628906 2.804687 1.941406 3.324218 3.515625.183594.5625.277344 1.199219.277344 1.835938.003906 1.609375-.644531 3.097656-1.832031 4.210937zm0 0"/><path d="m333.003906 127.386719c3.5625-2.113281 4.738282-6.714844 2.625-10.277344-28.089844-47.320313-80.558594-76.714844-136.929687-76.714844-88.554688 0-160.601563 72.09375-160.601563 160.707031 0 88.613282 72.046875 160.707032 160.601563 160.707032 88.554687 0 160.597656-72.09375 160.597656-160.707032 0-15.875-2.429687-31.734374-7.226563-47.132812-1.230468-3.957031-5.4375-6.164062-9.390624-4.933594-3.957032 1.230469-6.164063 5.4375-4.933594 9.390625 4.347656 13.957031 6.550781 28.3125 6.550781 42.675781 0 80.34375-65.316406 145.707032-145.597656 145.707032-80.285157 0-145.601563-65.367188-145.601563-145.707032 0-80.34375 65.316406-145.707031 145.597656-145.707031 51.109376 0 98.632813 26.582031 124.03125 69.371094 2.113282 3.5625 6.714844 4.738281 10.277344 2.621094zm0 0"/><path d="m484.910156 0h-242.132812c-4.144532 0-7.5 3.359375-7.5 7.5 0 4.144531 3.355468 7.5 7.5 7.5h242.132812c6.667969 0 12.089844 5.417969 12.089844 12.074219v344.566406c0 6.671875-5.421875 12.097656-12.089844 12.097656h-457.851562c-6.648438 0-12.058594-5.425781-12.058594-12.097656v-344.566406c0-6.65625 5.410156-12.070313 12.058594-12.070313h181.105468c4.144532 0 7.5-3.359375 7.5-7.5 0-4.144531-3.355468-7.49999975-7.5-7.49999975h-181.105468c-14.917969-.00390625-27.058594 12.14062475-27.058594 27.07031275v344.566406c0 14.945313 12.140625 27.101563 27.058594 27.101563h9.539062v21.746093c0 9.65625 7.851563 17.515625 17.503906 17.515625h76.820313c9.652344 0 17.507813-7.859375 17.507813-17.515625v-21.746093h215.117187v21.746093c0 9.65625 7.851563 17.515625 17.503906 17.515625h76.820313c9.652344 0 17.507812-7.859375 17.507812-17.515625v-21.746093h9.535156c14.9375 0 27.089844-12.15625 27.089844-27.101563v-344.566406c-.003906-14.929688-12.15625-27.074219-27.09375-27.074219zm-351.484375 420.488281c0 1.359375-1.144531 2.511719-2.503906 2.511719h-76.820313c-1.359374 0-2.503906-1.148438-2.503906-2.511719v-21.746093h81.828125zm326.949219 0c0 1.359375-1.144531 2.511719-2.503906 2.511719h-76.820313c-1.359375 0-2.503906-1.148438-2.503906-2.511719v-21.746093h81.828125zm0 0"/></svg>