<svg id="microbes" enable-background="new 0 0 300 300" height="512" viewBox="0 0 300 300" width="512" xmlns="http://www.w3.org/2000/svg"><g><circle cx="169.962" cy="169.943" fill="#e5efef" r="86"/><g fill="#4c241d"><path d="m257.618 197.6c-1.023 0-2.047-.391-2.828-1.172l-11.312-11.312c-1.562-1.562-1.562-4.094 0-5.656s4.094-1.562 5.656 0l11.312 11.312c1.562 1.562 1.562 4.094 0 5.656-.781.781-1.805 1.172-2.828 1.172z"/><path d="m246.305 197.6c-1.023 0-2.047-.391-2.828-1.172-1.562-1.562-1.562-4.094 0-5.656l11.312-11.312c1.562-1.562 4.094-1.562 5.656 0s1.562 4.094 0 5.656l-11.312 11.312c-.781.781-1.804 1.172-2.828 1.172z"/><circle cx="143.962" cy="227.943" r="4"/></g><g><path d="m256.128 256.11c-4.686 4.686-12.284 4.686-16.971 0l-79.196-79.196 16.971-16.971 79.196 79.196c4.686 4.687 4.686 12.285 0 16.971z" fill="#6b4f5b"/><path d="m247.643 263.615c-4.098 0-8.193-1.559-11.314-4.676l-79.195-79.199c-.75-.75-1.172-1.766-1.172-2.828s.422-2.078 1.172-2.828l16.971-16.969c1.562-1.562 4.094-1.562 5.656 0l79.195 79.195c6.24 6.238 6.24 16.391 0 22.629-3.119 3.118-7.215 4.676-11.313 4.676zm8.485-7.504h.039zm-90.51-79.199 76.367 76.371c3.121 3.117 8.197 3.117 11.314 0 3.119-3.121 3.119-8.195 0-11.316l-76.367-76.367z" fill="#4c241d"/></g><g><circle cx="120.364" cy="120.345" fill="#b5a19c" r="80"/><path d="m120.364 204.303c-21.514 0-43.02-8.184-59.396-24.562-15.865-15.863-24.604-36.957-24.604-59.395s8.738-43.531 24.604-59.398c32.75-32.75 86.043-32.75 118.793 0 15.865 15.867 24.604 36.961 24.604 59.398s-8.738 43.531-24.604 59.395c-16.374 16.374-37.889 24.562-59.397 24.562zm0-159.922c-19.461 0-38.924 7.406-53.74 22.223-14.354 14.355-22.26 33.441-22.26 53.742s7.906 39.387 22.26 53.738c29.635 29.633 77.85 29.633 107.48 0 14.354-14.352 22.26-33.438 22.26-53.738s-7.906-39.387-22.26-53.742c-14.816-14.817-34.279-22.223-53.74-22.223z" fill="#4c241d"/></g><g><path d="m126.498 56.638c-18.358-1.757-37.331 4.393-51.389 18.452-24.994 24.994-24.994 65.516 0 90.51s65.516 24.994 90.51 0 24.994-65.516 0-90.51c-6.378-6.378-13.768-11.129-21.652-14.252" fill="#c1dbdc"/><path d="m120.364 188.346c-18.164 0-35.24-7.074-48.084-19.918-26.514-26.512-26.514-69.652 0-96.164 14.402-14.406 34.301-21.562 54.6-19.605 2.199.211 3.811 2.164 3.602 4.363-.211 2.195-2.166 3.852-4.363 3.598-17.926-1.707-35.471 4.59-48.182 17.301-23.393 23.395-23.393 61.457 0 84.852 11.334 11.332 26.4 17.574 42.428 17.574s31.094-6.242 42.426-17.574 17.574-26.398 17.574-42.426-6.242-31.094-17.574-42.426c-5.844-5.844-12.674-10.34-20.299-13.363-2.053-.812-3.059-3.141-2.244-5.191.814-2.055 3.133-3.059 5.193-2.246 8.645 3.426 16.387 8.523 23.006 15.145 12.844 12.844 19.918 29.918 19.918 48.082s-7.074 35.238-19.918 48.082c-12.843 12.841-29.919 19.916-48.083 19.916z" fill="#4c241d"/></g><g><circle cx="103.393" cy="154.286" fill="#9dc1e4" r="8"/><path d="m103.393 166.287c-3.205 0-6.219-1.25-8.486-3.516-2.266-2.266-3.514-5.281-3.514-8.484 0-3.207 1.25-6.223 3.518-8.488 4.527-4.523 12.434-4.531 16.965 0 .002.004.002.004.002.004s0 0 .002 0c2.266 2.266 3.514 5.277 3.514 8.484 0 3.203-1.248 6.219-3.516 8.484-2.266 2.266-5.28 3.516-8.485 3.516zm0-16c-1.068 0-2.072.414-2.826 1.172-.758.758-1.174 1.758-1.174 2.828 0 1.066.416 2.07 1.172 2.828 1.512 1.516 4.146 1.516 5.654 0 .758-.758 1.174-1.762 1.174-2.828 0-1.07-.416-2.07-1.17-2.824-.002-.004-.002-.004-.004-.004-.753-.758-1.757-1.172-2.826-1.172z" fill="#4c241d"/></g><g><circle cx="134.506" cy="86.404" fill="#ffded5" r="10"/><path d="m134.507 100.404c-3.74 0-7.256-1.457-9.9-4.102-5.457-5.457-5.457-14.34-.002-19.797 5.293-5.289 14.514-5.289 19.803 0 5.455 5.457 5.455 14.34 0 19.797-2.646 2.645-6.161 4.102-9.901 4.102zm0-20c-1.604 0-3.109.625-4.244 1.758-2.338 2.34-2.338 6.145.002 8.484 2.266 2.266 6.221 2.266 8.482 0 2.34-2.34 2.34-6.145 0-8.484-1.131-1.133-2.639-1.758-4.24-1.758z" fill="#4c241d"/></g><g><path d="m114.707 126.002c-6.248 6.248-16.379 6.248-22.627 0l-11.314-11.314c-6.248-6.248-6.248-16.379 0-22.627 6.248-6.248 16.379-6.248 22.627 0l11.314 11.314c6.248 6.248 6.248 16.379 0 22.627z" fill="#bd53b5"/><path d="m103.393 134.689c-5.344 0-10.365-2.082-14.143-5.859l-11.312-11.312c-7.799-7.797-7.799-20.488 0-28.285s20.488-7.797 28.283 0l11.314 11.312c7.797 7.797 7.797 20.488 0 28.285-3.776 3.777-8.8 5.859-14.142 5.859zm-11.312-43.308c-3.074 0-6.146 1.168-8.486 3.508-4.68 4.68-4.68 12.293 0 16.973l11.312 11.312c4.535 4.531 12.438 4.531 16.973 0 4.678-4.68 4.678-12.293 0-16.973l-11.314-11.312c-2.341-2.336-5.413-3.508-8.485-3.508zm22.627 34.621h.039z" fill="#4c241d"/></g><circle cx="93.177" cy="102.216" fill="#4c241d" r="4.276"/><circle cx="101.662" cy="116.358" fill="#4c241d" r="4.276"/><g><path d="m158.837 114.324c7.424 4.793 9.557 14.696 4.764 22.12l-8.678 13.442c-4.793 7.424-14.696 9.557-22.12 4.764-7.424-4.793-9.557-14.696-4.764-22.12l8.678-13.442c4.792-7.424 14.696-9.556 22.12-4.764z" fill="#d9be6f"/><path d="m141.44 161.217c-3.807 0-7.535-1.094-10.809-3.207-9.264-5.98-11.936-18.383-5.955-27.648l8.678-13.441c5.984-9.262 18.389-11.934 27.65-5.953h.002c4.488 2.895 7.578 7.367 8.703 12.59s.148 10.57-2.75 15.059l-8.676 13.438c-2.898 4.492-7.371 7.582-12.594 8.707-1.413.302-2.837.455-4.249.455zm8.737-45.446c-3.943 0-7.809 1.938-10.102 5.488l-8.676 13.438c-3.59 5.562-1.986 13.004 3.572 16.594 2.691 1.734 5.895 2.328 9.035 1.648 3.133-.676 5.816-2.531 7.555-5.223l8.678-13.441c1.74-2.695 2.326-5.902 1.65-9.035-.674-3.133-2.529-5.816-5.221-7.555h-.002c-2.007-1.296-4.261-1.914-6.489-1.914z" fill="#4c241d"/></g><circle cx="138.398" cy="140.885" fill="#4c241d" r="4.276"/><circle cx="149.133" cy="131.254" fill="#4c241d" r="4.276"/><g><path d="m196.045 188.027h24v40h-24z" fill="#0faa00" transform="matrix(.707 -.707 .707 .707 -86.162 208.04)"/><path d="m213.702 234.654c-1.061 0-2.078-.422-2.828-1.172l-28.285-28.285c-.75-.75-1.172-1.766-1.172-2.828s.422-2.078 1.172-2.828l16.971-16.969c1.562-1.562 4.094-1.562 5.656 0l28.285 28.281c.75.75 1.172 1.766 1.172 2.828s-.422 2.078-1.172 2.828l-16.971 16.973c-.75.75-1.768 1.172-2.828 1.172zm-22.629-32.285 22.629 22.629 11.314-11.316-22.629-22.625z" fill="#4c241d"/></g></g></svg>