<svg height="451pt" viewBox="0 -13 451.998 451" width="451pt" xmlns="http://www.w3.org/2000/svg"><path d="M315.254 127.688H32.48C16.2 127.688 3 140.887 3 157.167v138.039c0 16.277 13.2 29.48 29.48 29.48h387.04c16.28 0 29.48-13.203 29.48-29.48V157.168c0-16.281-13.2-29.48-29.48-29.48zm0 0" fill="#8ac6dd"/><path d="M419.52 327.688H32.48c-17.91 0-32.48-14.57-32.48-32.481V157.168c0-17.91 14.57-32.48 32.48-32.48h282.774a3 3 0 010 6H32.48c-14.6 0-26.48 11.875-26.48 26.48v138.039c0 14.598 11.879 26.48 26.48 26.48h387.04c14.601 0 26.48-11.878 26.48-26.48V157.168c0-14.605-11.879-26.48-26.48-26.48h-77.442a3 3 0 010-6h77.442c17.91 0 32.476 14.57 32.476 32.48v138.039c.004 17.91-14.566 32.48-32.476 32.48zm0 0" fill="#3a312a"/><path d="M87.758 276.707h-34.95c-8.73 0-15.808 7.078-15.808 15.809v32.171h378v-32.171c0-8.73-7.078-15.809-15.809-15.809zm0 0" fill="#d7e057"/><path d="M415 327.688H37a3 3 0 01-3-3v-32.172c0-10.371 8.438-18.809 18.809-18.809h34.949a3 3 0 010 6h-34.95c-7.062 0-12.808 5.746-12.808 12.809v29.171h372v-29.171c0-7.063-5.746-12.809-12.809-12.809h-284.28a3 3 0 010-6h284.284c10.368 0 18.809 8.438 18.809 18.809v32.171a3.007 3.007 0 01-3.004 3zm0 0" fill="#3a312a"/><path d="M37 302.688h378v22H37zm0 0" fill="#87796f"/><path d="M415 327.688H37a3 3 0 01-3-3v-22c0-1.66 1.344-3 3-3h378c1.656 0 3 1.34 3 3v22a3 3 0 01-3 3zm-375-6h372v-16H40zm0 0" fill="#3a312a"/><path d="M65.344 22.855s6.812 25.317 26.441 26.493c0 0-26.2 9.047-26.64 28.402 0 0-5.16-27.145-25.852-28.117 0 0 24.102-3.653 26.05-26.778zm0 0" fill="#d7e057"/><path d="M65.14 80.75a2.998 2.998 0 01-2.94-2.434c-.052-.25-4.993-24.836-23.048-25.683a3.005 3.005 0 01-2.855-2.844 3.003 3.003 0 012.55-3.121c.88-.137 21.786-3.633 23.508-24.066a3.001 3.001 0 012.72-2.735c1.468-.113 2.784.801 3.163 2.203.067.235 6.52 23.254 23.727 24.285a3 3 0 01.805 5.829c-.243.086-24.235 8.62-24.625 25.636a2.992 2.992 0 01-3.004 2.93zM49.66 49.293c7.754 3.937 12.461 11.492 15.176 17.754 4.05-8.043 11.879-13.574 17.894-16.856-8.27-3.683-13.566-11.3-16.668-17.445C62.477 41.465 55.52 46.48 49.66 49.293zm0 0" fill="#3a312a"/><path d="M21.945 56.813s4.82 17.91 18.703 18.738c0 0-18.53 6.402-18.843 20.094 0 0-3.649-19.2-18.285-19.887 0 0 17.046-2.582 18.425-18.945zm0 0" fill="#d7e057"/><path d="M21.8 98.645a2.998 2.998 0 01-2.94-2.442c-.036-.164-3.41-16.883-15.481-17.45a3 3 0 01-.309-5.965c.594-.093 14.73-2.487 15.887-16.23a2.998 2.998 0 012.719-2.734 2.99 2.99 0 013.164 2.203c.043.16 4.457 15.84 15.988 16.532a3 3 0 01.8 5.828c-.163.058-16.566 5.906-16.823 17.324a3 3 0 01-3.004 2.934zM12.767 75.59c4.21 2.668 7.046 6.789 8.894 10.558 2.75-4.464 7.031-7.742 10.727-9.945-4.575-2.539-7.766-6.7-9.88-10.445-2.35 4.574-6.03 7.75-9.741 9.832zm0 0" fill="#3a312a"/><path d="M21.945 3.5s4.82 17.906 18.703 18.738c0 0-18.53 6.403-18.843 20.09 0 0-3.649-19.2-18.285-19.887 0 0 17.046-2.582 18.425-18.941zm0 0" fill="#d7e057"/><path d="M21.8 45.332a3.005 3.005 0 01-2.945-2.441c-.03-.164-3.406-16.883-15.476-17.453a2.998 2.998 0 01-.309-5.961c.59-.094 14.727-2.489 15.883-16.227A2.998 2.998 0 0121.676.512a2.99 2.99 0 013.164 2.203c.039.16 4.453 15.84 15.984 16.531a2.996 2.996 0 012.793 2.586 2.997 2.997 0 01-1.992 3.242c-.16.059-16.563 5.906-16.824 17.324a2.999 2.999 0 01-3 2.934zm-9.034-23.059c4.21 2.668 7.043 6.79 8.89 10.563 2.754-4.465 7.032-7.746 10.73-9.945-4.574-2.54-7.769-6.7-9.882-10.45-2.348 4.575-6.027 7.75-9.738 9.832zM97 327.688a3 3 0 01-3-3v-22c0-1.66 1.344-3 3-3s3 1.34 3 3v22a3 3 0 01-3 3zm64.5 0a3 3 0 01-3-3v-22c0-1.66 1.344-3 3-3s3 1.34 3 3v22a3 3 0 01-3 3zm64.5 0a3 3 0 01-3-3v-22c0-1.66 1.344-3 3-3s3 1.34 3 3v22a3 3 0 01-3 3zm64.5 0a3 3 0 01-3-3v-22c0-1.66 1.344-3 3-3s3 1.34 3 3v22a3 3 0 01-3 3zm64.5 0a3 3 0 01-3-3v-22c0-1.66 1.344-3 3-3s3 1.34 3 3v22a3 3 0 01-3 3zm0 0" fill="#3a312a"/><path d="M265.707 235.188h-79.414a6.958 6.958 0 01-6.957-6.961v-12.082a6.955 6.955 0 016.957-6.958h79.414a6.955 6.955 0 016.957 6.958v12.082a6.958 6.958 0 01-6.957 6.96zm0 0" fill="#f16c7a"/><path d="M265.707 238.188h-79.414c-5.492 0-9.961-4.47-9.961-9.961v-12.082c0-5.493 4.469-9.958 9.961-9.958h79.414c5.492 0 9.957 4.465 9.957 9.958v12.082c0 5.492-4.465 9.96-9.957 9.96zm-79.414-26a3.965 3.965 0 00-3.961 3.957v12.082a3.966 3.966 0 003.961 3.96h79.414a3.963 3.963 0 003.957-3.96v-12.082a3.962 3.962 0 00-3.957-3.958zm0 0" fill="#3a312a"/><path d="M419.52 130.688h-30c14.601 0 26.48 11.878 26.48 26.48v126.937c1.281 2.52 2 5.38 2 8.403v29.18h1.52c14.601 0 26.48-11.883 26.48-26.481V157.168c0-14.602-11.879-26.48-26.48-26.48zm0 0" fill="#6ca8bf"/><path d="M51.57 426.352a3 3 0 01-1.925-5.301c5.078-4.246 7.898-9.867 7.945-15.836.039-5.942-2.68-11.578-7.664-15.863l-.942-.813c-6.312-5.43-9.777-12.664-9.75-20.367.032-7.711 3.551-14.934 9.918-20.332l.149-.125a3.005 3.005 0 014.23.332 3.001 3.001 0 01-.336 4.23l-.152.13c-5.016 4.257-7.785 9.859-7.809 15.788-.02 5.918 2.7 11.528 7.66 15.797l.946.809c6.34 5.46 9.8 12.722 9.746 20.46-.055 7.759-3.64 15-10.094 20.391-.558.473-1.242.7-1.922.7zm58.196 0a2.999 2.999 0 01-1.926-5.3c5.078-4.247 7.898-9.868 7.941-15.837.043-5.942-2.676-11.578-7.66-15.863l-.941-.813c-6.313-5.43-9.778-12.664-9.746-20.367.027-7.715 3.546-14.938 9.918-20.336l.136-.117a2.997 2.997 0 014.23.32 3.004 3.004 0 01-.32 4.23l-.152.13c-5.023 4.257-7.793 9.863-7.812 15.792-.024 5.918 2.699 11.528 7.66 15.797l.941.809c6.344 5.46 9.805 12.723 9.746 20.46-.054 7.759-3.64 15-10.094 20.391a2.952 2.952 0 01-1.921.704zm58.194 0a3.014 3.014 0 01-2.304-1.075 3.006 3.006 0 01.38-4.226c5.077-4.246 7.898-9.867 7.94-15.836.044-5.942-2.675-11.578-7.66-15.863l-.941-.813c-6.313-5.43-9.773-12.664-9.746-20.367.027-7.711 3.55-14.934 9.918-20.332l.144-.125a3.005 3.005 0 014.23.332 3.001 3.001 0 01-.335 4.23l-.152.13c-5.016 4.257-7.786 9.859-7.809 15.788-.02 5.918 2.7 11.528 7.66 15.797l.942.809c6.343 5.46 9.804 12.722 9.75 20.46-.055 7.759-3.641 15-10.094 20.391a2.96 2.96 0 01-1.922.7zm58.2 0a2.999 2.999 0 01-1.926-5.3c5.079-4.247 7.899-9.868 7.942-15.837.043-5.942-2.676-11.578-7.66-15.863l-.942-.813c-6.312-5.434-9.777-12.668-9.75-20.367.031-7.715 3.551-14.938 9.918-20.336l.149-.125a3.005 3.005 0 014.23.336 3.002 3.002 0 01-.336 4.23l-.152.13c-5.016 4.253-7.785 9.855-7.809 15.784-.02 5.922 2.7 11.532 7.66 15.797l.946.813c6.34 5.457 9.8 12.722 9.746 20.457-.055 7.758-3.64 15.004-10.094 20.39a2.96 2.96 0 01-1.922.704zm58.195 0a2.999 2.999 0 01-1.926-5.3c5.079-4.247 7.895-9.868 7.942-15.837.043-5.942-2.676-11.578-7.66-15.863l-.941-.809c-6.317-5.434-9.778-12.668-9.75-20.367.027-7.715 3.55-14.938 9.918-20.336l.148-.125a3 3 0 013.894 4.566l-.156.13c-5.011 4.253-7.781 9.855-7.804 15.784-.024 5.922 2.699 11.532 7.66 15.797l.941.813c6.344 5.457 9.805 12.722 9.75 20.457-.058 7.758-3.64 15.004-10.094 20.394a2.994 2.994 0 01-1.922.696zm58.195 0a2.999 2.999 0 01-1.926-5.3c5.08-4.247 7.9-9.868 7.942-15.837.043-5.942-2.675-11.578-7.66-15.863l-.941-.813c-6.317-5.43-9.778-12.664-9.75-20.367.027-7.711 3.55-14.934 9.922-20.332l.136-.121a3.004 3.004 0 014.23.32 2.997 2.997 0 01-.32 4.23l-.152.13c-5.023 4.261-7.793 9.867-7.812 15.792-.024 5.918 2.699 11.532 7.66 15.797l.941.813c6.344 5.457 9.805 12.722 9.75 20.457-.054 7.758-3.64 15.004-10.093 20.39a2.977 2.977 0 01-1.926.704zm58.196 0a3 3 0 01-1.926-5.301c5.078-4.246 7.899-9.867 7.946-15.836.039-5.942-2.676-11.578-7.66-15.863l-.946-.813c-6.312-5.434-9.773-12.668-9.746-20.367.027-7.715 3.55-14.938 9.918-20.336l.145-.125a3.001 3.001 0 013.898 4.566l-.156.13c-5.012 4.253-7.781 9.855-7.805 15.784-.023 5.922 2.7 11.532 7.66 15.797l.942.813c6.343 5.457 9.804 12.722 9.75 20.457-.059 7.758-3.645 15.004-10.094 20.39a2.962 2.962 0 01-1.926.704zm0 0" fill="#3a312a"/></svg>