<svg version="1.1" id="Capa_1" xmlns="http://www.w3.org/2000/svg" x="0" y="0" viewBox="0 0 512 512" xml:space="preserve"><path d="M503.467 256c0 136.67-110.797 247.467-247.467 247.467S8.533 392.67 8.533 256 119.33 8.533 256 8.533 503.467 119.33 503.467 256" fill="#ffe100"/><path d="M256 8.533c-4.292 0-8.559.111-12.8.324C373.922 15.522 477.867 123.622 477.867 256S373.922 496.478 243.2 503.142c4.241.213 8.508.324 12.8.324 136.67 0 247.467-110.797 247.467-247.467S392.67 8.533 256 8.533" fill="#ffa800"/><path d="M256 8.533c4.292 0 8.559.111 12.8.324C138.078 15.522 34.133 123.622 34.133 256S138.078 496.478 268.8 503.142a255.14 255.14 0 01-12.8.324C119.33 503.467 8.533 392.67 8.533 256S119.33 8.533 256 8.533" fill="#fff"/><path d="M218.222 327.735l-49.161-56.183c-6.212-7.091-5.487-17.877 1.604-24.081 7.1-6.212 17.877-5.487 24.081 1.604l35.652 41.062 112.444-126.583c6.263-7.049 17.05-7.68 24.09-1.417 7.049 6.255 7.68 17.041 1.417 24.09L242.482 327.828c-6.468 7.279-17.851 7.237-24.26-.093" fill="#00da6c"/><path d="M181.908 251.779a8.511 8.511 0 00-5.623 2.108 8.496 8.496 0 00-2.893 5.854 8.445 8.445 0 002.091 6.187l49.161 56.183c1.468 1.673 3.499 2.603 5.717 2.611 2.108-.358 4.267-.896 5.743-2.56l125.866-141.61a8.427 8.427 0 002.142-6.161 8.469 8.469 0 00-2.85-5.879c-1.698-1.51-3.831-2.338-6.17-2.142a8.466 8.466 0 00-5.871 2.85L236.778 295.803c-1.63 1.835-3.755 3.055-6.426 2.867a8.506 8.506 0 01-6.391-2.944l-35.652-41.062a8.502 8.502 0 00-6.401-2.885m48.487 90.01h-.102a24.706 24.706 0 01-18.492-8.431l-49.161-56.183c-4.506-5.154-6.733-11.742-6.281-18.569.461-6.827 3.541-13.056 8.687-17.562 10.633-9.293 26.829-8.218 36.122 2.406l29.303 33.749 105.993-119.313c9.37-10.564 25.583-11.511 36.139-2.133 5.112 4.548 8.149 10.803 8.55 17.63.401 6.827-1.886 13.397-6.426 18.509L248.861 333.503a24.744 24.744 0 01-18.466 8.286"/><path d="M256 17.067C124.254 17.067 17.067 124.254 17.067 256S124.254 494.933 256 494.933 494.933 387.746 494.933 256 387.746 17.067 256 17.067M256 512C114.842 512 0 397.158 0 256S114.842 0 256 0s256 114.842 256 256-114.842 256-256 256"/><path d="M207.98 74.354c-3.806 0-7.279-2.56-8.26-6.417-1.169-4.574 1.587-9.225 6.153-10.385 16.461-4.198 33.323-6.34 50.116-6.349h.009c4.71 0 8.533 3.814 8.533 8.525.009 4.71-3.806 8.533-8.525 8.542-15.377.009-30.822 1.971-45.909 5.82a8.633 8.633 0 01-2.117.264M81.45 174.688a8.533 8.533 0 01-7.578-12.441c20.105-39.04 53.333-71.228 93.559-90.641 4.241-2.039 9.353-.265 11.401 3.985 2.039 4.241.265 9.344-3.985 11.392-36.907 17.809-67.388 47.309-85.803 83.081a8.542 8.542 0 01-7.594 4.624m-21.717 89.845A8.53 8.53 0 0151.2 256c.009-18.697 2.534-37.239 7.501-55.108 1.263-4.54 5.973-7.185 10.513-5.931a8.529 8.529 0 015.931 10.505c-4.557 16.384-6.869 33.382-6.878 50.534a8.53 8.53 0 01-8.534 8.533M256 460.8a8.53 8.53 0 01-8.533-8.533 8.53 8.53 0 018.533-8.533c16.427-.009 32.87-2.236 48.87-6.613 4.506-1.254 9.233 1.434 10.479 5.982 1.246 4.54-1.434 9.233-5.982 10.479-17.459 4.777-35.413 7.21-53.367 7.218zm90.7-22.525a8.534 8.534 0 01-3.968-16.094c36.693-19.243 66.372-50.15 83.558-87.04 1.988-4.275 7.074-6.135 11.341-4.13a8.53 8.53 0 014.13 11.332c-18.756 40.269-51.115 73.984-91.11 94.959a8.544 8.544 0 01-3.951.973m100.392-128.737a8.503 8.503 0 01-1.954-.222c-4.591-1.084-7.441-5.675-6.366-10.266 3.285-13.961 4.949-28.45 4.958-43.059.009-4.71 3.831-8.525 8.533-8.525h.009c4.719.009 8.533 3.831 8.525 8.542-.009 15.915-1.826 31.71-5.402 46.95a8.546 8.546 0 01-8.303 6.58"/></svg>