<svg version="1.1" id="Capa_1" xmlns="http://www.w3.org/2000/svg" x="0" y="0" viewBox="0 0 512 512" xml:space="preserve"><path d="M203.8 220.867v8.704a8.377 8.377 0 01-8.363 8.363c-15.253-.027-28.669 10.078-32.853 24.747l-.341 1.195s-16.555 9.387-18.176-.341c-1.447-8.685-9.942-70.4-8.533-76.8 7.168-32.939 76.8-34.133 76.8-34.133v17.067c-25.601 17.064-8.534 51.198-8.534 51.198z" fill="#607d8b" transform="translate(1 1)"/><g fill="#9e9e9e"><path d="M451.267 84.333V101.4a8.558 8.558 0 01-8.533 8.533h-42.667V75.8h42.667a8.559 8.559 0 018.533 8.533z" transform="translate(1 1)"/><path d="M417.133 76.483v32.768a9.543 9.543 0 01-6.827 9.557L374.467 127H357.4V58.733h17.067l35.84 8.192a9.545 9.545 0 016.826 9.558z" transform="translate(1 1)"/></g><g fill="#607d8b"><path d="M374.467 58.733V127c-.028 9.414-7.653 17.039-17.067 17.067h-68.267v-102.4H357.4c9.414.027 17.039 7.652 17.067 17.066z" transform="translate(1 1)"/><path d="M306.2 50.2v85.333c-.028 9.414-7.653 17.039-17.067 17.067h-25.6a8.558 8.558 0 01-8.533-8.533l-17.067 8.533V33.133L255 41.668v-.001a8.448 8.448 0 018.533-8.533h25.6c9.415.027 17.04 7.652 17.067 17.066z" transform="translate(1 1)"/></g><path d="M257.475 35.608A8.66 8.66 0 00255 41.667V152.6c-.028 9.414-7.653 17.039-17.067 17.067h-42.667s-38.656 4.267-45.824 37.205c-2.987 13.568-.683 31.829 11.691 56.661l1.109.341-25.856 90.539a20.973 20.973 0 00-.853 6.144c.015 12.389 10.054 22.428 22.443 22.443l37.291 8.533-153.6 8.533V383l12.032-12.032a17.119 17.119 0 005.035-12.117v-35.584a425.566 425.566 0 0118.688-115.371c.337-1.176.594-2.373.768-3.584a25.514 25.514 0 00-14.933-26.965l-40.533-18.005a25.563 25.563 0 01-15.189-23.381V50.2a25.567 25.567 0 0125.6-25.6H90.82a25.73 25.73 0 0018.091-7.509l2.048-2.048a25.72 25.72 0 0118.091-7.509h76.203a25.438 25.438 0 0113.141 3.669L255 33.133l2.475 2.475z" fill="#fdd834" transform="translate(1 1)"/><path d="M289.133 448.195v28.075a16.9 16.9 0 01-7.595 14.165l-13.739 9.131a16.768 16.768 0 01-9.472 2.901H67.267a34.127 34.127 0 01-34.134-34.134v-69.717a17.117 17.117 0 015.035-12.117L41.667 383h174.08a59.576 59.576 0 0148.555 25.003l21.675 30.293a17.078 17.078 0 013.156 9.899z" fill="#37474f" transform="translate(1 1)"/><path d="M289.133 448.195V459.8h-256v-61.184a17.117 17.117 0 015.035-12.117L41.667 383h174.08a59.576 59.576 0 0148.555 25.003l21.675 30.293a17.078 17.078 0 013.156 9.899z" fill="#fdd834" transform="translate(1 1)"/><path d="M231.875 35.608a8.66 8.66 0 00-2.475 6.059V152.6c-.028 9.414-7.653 17.039-17.067 17.067h-42.667s-38.656 4.267-45.824 37.205c-2.987 13.568-.683 31.829 11.691 56.661l1.109.341-25.856 90.539a20.973 20.973 0 00-.853 6.144c.015 12.389 10.054 22.428 22.443 22.443l37.291 8.533-128 7.083V383l12.032-12.032a17.119 17.119 0 005.035-12.117v-35.584a425.566 425.566 0 0118.688-115.371c.337-1.176.594-2.373.768-3.584a25.514 25.514 0 00-14.933-26.965l-40.533-18.005a25.563 25.563 0 01-15.189-23.381V50.2a25.567 25.567 0 0125.6-25.6H90.82a25.73 25.73 0 0018.091-7.509l2.048-2.048a25.72 25.72 0 0118.091-7.509h50.603a25.438 25.438 0 0113.141 3.669l36.606 21.93 2.475 2.475z" fill="#ffeb3a" transform="translate(1 1)"/><path d="M263.533 459.796v16.473a17.462 17.462 0 01-6.835 14.165l-12.365 9.131a14.053 14.053 0 01-8.525 2.901H63.853c-17.888-.986-31.617-16.241-30.72-34.133v-8.531l230.4-.006z" fill="#37474f" transform="translate(1 1)"/><path d="M33.133 459.802v-61.186a18.129 18.129 0 014.531-12.117L40.813 383h156.672a52.19 52.19 0 0143.699 25.003l19.507 30.293a18.405 18.405 0 012.842 9.899v11.601l-230.4.006z" fill="#ffeb3a" transform="translate(1 1)"/><path d="M75.8 58.733H50.2a8.533 8.533 0 00-8.533 8.533v45.423a8.533 8.533 0 005.364 7.923l25.6 10.24a8.532 8.532 0 0011.702-7.923V67.267a8.533 8.533 0 00-8.533-8.534z" fill="#ff5722" transform="translate(1 1)"/><path d="M358.4 153.6h-51.2a8.533 8.533 0 01-8.533-8.533v-102.4a8.533 8.533 0 018.533-8.533h51.2c14.132.015 25.585 11.468 25.6 25.6V128c-.015 14.132-11.468 25.585-25.6 25.6zm-42.667-17.067H358.4a8.544 8.544 0 008.533-8.533V59.733A8.544 8.544 0 00358.4 51.2h-42.667v85.333z"/><path d="M375.467 136.533a8.534 8.534 0 01-8.533-8.533V59.733a8.536 8.536 0 0110.434-8.321l35.808 8.183a18.13 18.13 0 0113.492 17.883v32.775a18.12 18.12 0 01-13.488 17.879l-35.813 8.187a8.502 8.502 0 01-1.9.214zM384 70.425v46.871l25.375-5.8c.125-.403.2-.82.225-1.242V77.479a1.847 1.847 0 00-.442-1.329L384 70.425z"/><path d="M443.733 119.467h-25.6a8.533 8.533 0 01-8.533-8.533V76.8a8.533 8.533 0 018.533-8.533h25.6c9.422.009 17.057 7.645 17.067 17.067V102.4c-.009 9.422-7.645 17.057-17.067 17.067zM426.667 102.4h17.079l-.012-17.067h-17.067V102.4zm-136.534 59.733h-25.6c-9.422-.009-17.057-7.645-17.067-17.067v-102.4c.009-9.422 7.645-17.057 17.067-17.067h25.6c14.132.015 25.585 11.468 25.6 25.6v85.333c-.015 14.134-11.467 25.586-25.6 25.601zm-25.6-119.466v102.4h25.6a8.544 8.544 0 008.533-8.533V51.2a8.544 8.544 0 00-8.533-8.533h-25.6z"/><path d="M273.067 76.8H256a8.533 8.533 0 010-17.066h17.067a8.533 8.533 0 010 17.066zm0 51.2H256a8.533 8.533 0 010-17.066h17.067a8.533 8.533 0 010 17.066z"/><path d="M259.367 512h-191.1c-23.553-.028-42.639-19.114-42.667-42.667v-69.729a25.43 25.43 0 017.5-18.104l15.6-15.6a8.486 8.486 0 002.5-6.038v-35.596a437.87 437.87 0 0119.025-117.762c2.389-8.194-1.651-16.891-9.454-20.35l-40.5-18A34.16 34.16 0 010 136.963V51.2c.022-18.842 15.291-34.112 34.133-34.133h57.662a16.961 16.961 0 0012.071-5L105.933 10a33.906 33.906 0 0124.138-10h76.171a34.161 34.161 0 0117.563 4.867l36.588 21.95a8.535 8.535 0 01-.251 14.779 8.534 8.534 0 01-8.532-.145L215.021 19.5a17.065 17.065 0 00-8.779-2.433h-76.171a16.961 16.961 0 00-12.071 5l-2.067 2.067a33.906 33.906 0 01-24.138 10H34.133c-9.422.009-17.057 7.645-17.067 17.067v85.762a17.077 17.077 0 0010.138 15.596l40.5 18.004c15.626 6.954 23.696 24.397 18.879 40.808a420.47 420.47 0 00-18.317 112.896v35.596a25.43 25.43 0 01-7.5 18.104l-15.6 15.6a8.486 8.486 0 00-2.5 6.038v69.729c.015 14.132 11.468 25.585 25.6 25.6h191.1a8.48 8.48 0 004.729-1.434l13.705-9.133a8.52 8.52 0 003.8-7.1v-28.063a8.485 8.485 0 00-1.592-4.962l-21.621-30.271a51.306 51.306 0 00-41.663-21.438h-57.75a30.994 30.994 0 01-29.787-39.491l26.2-91.7c5.289-18.278 21.997-30.88 41.025-30.942l-.112-6.542c-6.696-14.85-11.871-44.179 12.3-60.292a8.538 8.538 0 014.733-1.433h25.6a8.544 8.544 0 008.533-8.533V128a8.533 8.533 0 0117.066 0v25.6c-.015 14.132-11.468 25.585-25.6 25.6h-22.808c-16.225 13.238-3.825 38.588-3.692 38.85.592 1.185.9 2.492.9 3.817v8.704c-.01 9.327-7.569 16.886-16.896 16.896a25.716 25.716 0 00-24.642 18.567L145.6 357.725a13.924 13.924 0 0013.375 17.741h57.75a68.395 68.395 0 0155.55 28.588l21.625 30.271a25.499 25.499 0 014.767 14.879v28.062a25.547 25.547 0 01-11.4 21.3l-13.7 9.133a25.493 25.493 0 01-14.2 4.301z"/><path d="M76.8 141a17.094 17.094 0 01-6.338-1.221l-25.604-10.246a16.982 16.982 0 01-10.725-15.846v-45.42c.01-9.422 7.645-17.057 17.067-17.067h25.6c9.422.009 17.057 7.645 17.067 17.067v55.663c.001 9.426-7.64 17.069-17.067 17.07zM51.2 68.267v45.421l25.6 10.246V68.267H51.2zM503.467 102.4h-51.2a8.533 8.533 0 010-17.066h51.2a8.533 8.533 0 010 17.066zM162.142 273.067a8.523 8.523 0 01-7.642-4.717c-15.467-30.938-17.963-56.454-7.417-75.838 14.292-26.271 46.863-30.175 48.242-30.325a7.79 7.79 0 01.941-.054h17.067a8.533 8.533 0 010 17.066h-16.5c-3.171.471-25.529 4.367-34.808 21.563-7.663 14.188-5.058 34.358 7.742 59.954a8.532 8.532 0 01-7.625 12.351zm8.525 119.466h-128a8.533 8.533 0 010-17.066h128c4.713 0 8.533 3.82 8.533 8.533s-3.82 8.533-8.533 8.533zm119.466 76.8h-256a8.533 8.533 0 010-17.066h256a8.533 8.533 0 018.533 8.533 8.532 8.532 0 01-8.533 8.533zm51.2-384H307.2a8.533 8.533 0 010-17.066h34.133a8.533 8.533 0 018.533 8.533 8.532 8.532 0 01-8.533 8.533zm-128-17.066H128a8.534 8.534 0 010-17.067h85.333a8.534 8.534 0 010 17.067zm0 34.133H128a8.533 8.533 0 010-17.066h85.333a8.533 8.533 0 018.533 8.533 8.532 8.532 0 01-8.533 8.533zm0 34.133H128a8.533 8.533 0 010-17.066h85.333a8.533 8.533 0 018.533 8.533 8.532 8.532 0 01-8.533 8.533z"/></svg>