<svg height="512pt" viewBox="0 0 512 512" width="512pt" xmlns="http://www.w3.org/2000/svg"><path d="M487.04 316H25.011c-1.684 10.719 1.039 21.648 5.258 31.84 4.742 11.45 12.89 22.789 23.558 29.012 6.871 4.027 11.442 10.859 12.524 18.726 1.668 12.262 7.187 25.371 15.937 34.133 8.762 8.75 21.871 14.27 34.11 15.93 7.89 1.09 14.722 5.648 18.73 12.507 6.242 10.692 15.582 20.84 27.02 25.582 9.87 4.09 24.69 5.88 37.773 2.442a25.826 25.826 0 0122.09 4.379C231.859 498.039 243.609 502 256 502s24.14-3.96 33.969-11.43a25.963 25.963 0 0115.59-5.242c6.53 0 9.851 2.692 20.8 2.692a55.748 55.748 0 0021.48-4.29c11.45-4.742 22.79-14.89 29.02-25.558 4.02-6.871 10.852-11.442 18.72-12.524 12.26-1.668 25.37-7.18 34.132-15.937 8.75-8.762 14.27-21.871 15.93-34.11 1.09-7.89 5.66-14.722 12.507-18.73 10.692-6.242 20.84-17.582 25.582-29.02 4.22-10.203 5.348-21.14 3.31-31.851zm0 0" fill="#ffe680"/><path d="M83.281 316c24.77 69.84 94.5 123 172.719 123s147.95-53.16 172.719-123zm0 0" fill="#61729b"/><path d="M152.102 316h207.796c-20.777 35.84-59.57 60-103.898 60s-83.121-24.16-103.898-60zM483.73 162.16c-4.742-11.45-14.89-20.789-25.558-27.02-6.871-4.019-11.442-10.85-12.524-18.718-1.668-12.262-7.187-25.371-15.937-34.133-8.762-8.75-21.871-14.27-34.11-15.93-7.89-1.09-14.722-5.66-18.73-12.507-6.242-10.692-17.582-20.84-29.02-25.582a55.845 55.845 0 00-21.48-4.29c-4.82 0-9.633.63-14.281 1.848-7.871 2.063-16.012.23-22.102-4.379C280.141 13.961 268.391 10 256 10s-24.14 3.96-33.969 11.43c-6.11 4.629-14.261 6.449-22.09 4.41a56.236 56.236 0 00-14.3-1.86c-7.391 0-16.621 1.442-23.48 4.29-11.45 4.742-20.79 14.89-27.02 25.558-4.02 6.871-10.852 11.442-18.72 12.524-12.26 1.668-25.37 7.187-34.132 15.937-8.75 8.762-14.27 21.871-15.93 34.11-1.09 7.89-5.66 14.722-12.507 18.73-10.692 6.242-20.84 15.582-25.582 27.02-4.23 10.23-5.36 22.78-3.301 33.863L25 196h462.04c2.038-11.09.92-23.629-3.31-33.84zm0 0" fill="#ffe680"/><path d="M256 73c-78.219 0-147.95 53.16-172.719 123H428.72C403.949 126.16 334.219 73 256 73zm0 0" fill="#61729b"/><path d="M359.898 196H152.102c20.777-35.84 59.57-60 103.898-60s83.121 24.16 103.898 60zm0 0" fill="#ffe680"/><path d="M490.57 222.031C498.04 231.86 502 243.61 502 256s-3.96 24.14-11.441 33.988c-8.204 10.82-4.383 21.082-3.52 26.012H25.012c.62-4.105 4.886-14.852-3.582-26.031C13.96 280.14 10 268.39 10 256s3.96-24.14 11.441-33.988c8.23-10.86 4.383-21.262 3.528-26L25 196h462.04c-.798 4.45-4.849 14.969 3.53 26.031zm0 0" fill="#ff5d5d"/><path d="M116 246c-5.52 0-10 4.48-10 10s4.48 10 10 10 10-4.48 10-10-4.48-10-10-10zm0 0"/><path d="M495.945 202.055a9.941 9.941 0 001.625-8.953c1.352-11.868-.265-24.301-4.601-34.766-5.086-12.293-15.656-23.598-29.75-31.828-4.207-2.461-7-6.637-7.66-11.438-2.079-15.261-9.098-30.16-18.782-39.855-9.691-9.68-24.586-16.695-39.808-18.762-4.832-.668-9.012-3.457-11.461-7.644-7.488-12.82-20.45-24.23-33.824-29.774-13.653-5.664-28.38-6.484-42.125-2.879-4.649 1.219-9.711.215-13.516-2.664C284.437 4.664 270.59 0 256 0c-14.586 0-28.426 4.656-40.012 13.46-3.828 2.9-8.886 3.915-13.504 2.708-15.23-4.008-32.261-2.078-44.148 2.863-12.293 5.086-23.598 15.657-31.828 29.746-2.461 4.211-6.637 7.004-11.438 7.664-15.265 2.079-30.16 9.098-39.855 18.782-9.68 9.691-16.695 24.582-18.762 39.808-.668 4.832-3.457 9.012-7.644 11.461-14.114 8.238-24.688 19.543-29.782 31.836-4.925 11.914-6.343 26.313-3.898 39.453.836 4.649 3.68 11.149-1.652 18.18C4.66 227.57 0 241.418 0 256c0 14.586 4.656 28.426 13.457 40.008 2.945 3.887 3.93 8.816 2.711 13.472-3.785 14.168-.707 28.739 4.86 42.184 6.117 14.777 16.238 27.106 27.742 33.813 4.214 2.472 7.011 6.652 7.671 11.453 2.079 15.265 9.094 30.16 18.782 39.855 9.691 9.684 24.582 16.695 39.804 18.762 4.836.668 9.016 3.457 11.465 7.644 8.238 14.114 19.54 24.688 31.828 29.778 10.336 4.285 27.36 7.289 44.13 2.875 4.648-1.215 9.702-.215 13.503 2.668C227.563 507.336 241.41 512 256 512c14.586 0 28.426-4.656 40.012-13.46a15.894 15.894 0 019.547-3.212c5.558 0 22.636 7.395 46.105-2.36 13.387-5.538 26.352-16.94 33.828-29.75 2.461-4.206 6.637-7 11.438-7.66 15.273-2.078 30.172-9.101 39.855-18.78 9.68-9.692 16.695-24.587 18.762-39.81.668-4.831 3.457-9.011 7.644-11.46 12.82-7.488 24.23-20.45 29.778-33.836 5.683-13.73 6.46-28.41 2.875-42.117-1.23-4.72-.254-9.649 2.68-13.516C507.34 284.43 512 270.582 512 256c0-14.586-4.656-28.426-13.457-40.008-2.938-3.879-3.957-8.61-2.598-13.937zm-13.355 81.894c-4.887 6.446-7.371 14.172-7.258 22.051H36.668c.117-7.875-2.375-15.61-7.277-22.082C23.246 275.836 20 266.18 20 256s3.254-19.84 9.406-27.95c4.89-6.445 7.38-14.187 7.266-22.062H83.21c.023 0 .047.004.066.004.028 0 .051-.004.078-.004h391.977c-.117 7.88 2.375 15.621 7.277 22.09C488.754 236.164 492 245.82 492 256s-3.254 19.84-9.41 27.95zM146.512 326c23.836 37.148 65.254 60 109.488 60s85.652-22.863 109.488-60.012h48.414C386.07 387.278 323.086 429 256 429S125.93 387.29 98.098 326zm24.71-.012h169.555C320.035 351.016 288.934 366 256 366s-64.035-14.984-84.777-40.012zM365.489 186c-23.836-37.148-65.254-60-109.488-60s-85.652 22.852-109.488 60H98.098C125.93 124.71 188.914 83 256 83s130.07 41.71 157.902 103zm-24.71 0H171.222c20.742-25.023 51.843-40 84.777-40s64.035 14.977 84.777 40zm-303.27-20.023c3.379-8.153 11.172-16.25 21.394-22.215 9.524-5.575 15.852-15.051 17.368-26.02 1.476-10.902 6.496-21.777 13.085-28.379 6.606-6.597 17.493-11.617 28.422-13.105 10.938-1.5 20.41-7.836 25.996-17.387 5.957-10.195 14.051-17.984 22.223-21.367 7.68-3.192 20.25-4.93 31.422-1.988 10.52 2.742 21.977.457 30.66-6.125C236.164 23.246 245.82 20 256 20s19.84 3.254 27.953 9.426c8.672 6.562 20.137 8.836 30.676 6.078 9.73-2.555 19.965-1.906 29.394 2.004 9.254 3.836 18.985 12.43 24.22 21.394 5.57 9.524 15.046 15.852 26.015 17.368 10.902 1.476 21.777 6.496 28.379 13.09 6.597 6.6 11.617 17.488 13.105 28.421 1.504 10.934 7.836 20.406 17.387 25.996 10.2 5.953 17.984 14.051 21.363 22.211 2.453 5.918 3.66 13.004 3.52 20.012h-42.375C406.664 113.234 333.817 63 256 63S105.336 113.234 76.363 186H33.984c-.144-6.984 1.067-14.078 3.524-20.023zM474.492 344.02c-3.836 9.253-12.43 18.984-21.394 24.218-9.524 5.574-15.852 15.047-17.368 26.02-1.476 10.902-6.496 21.777-13.093 28.383-6.692 6.691-17.313 11.59-28.418 13.101-10.934 1.5-20.406 7.836-25.996 17.387-5.223 8.945-14.953 17.527-24.22 21.367-17.815 7.399-28.76.832-38.444.832-7.762 0-15.442 2.582-21.641 7.281C275.836 488.754 266.18 492 256 492s-19.84-3.254-27.953-9.422c-8.692-6.582-20.156-8.828-30.672-6.078-11.223 2.95-23.855 1.117-31.398-2.008-8.157-3.379-16.25-11.172-22.215-21.387-5.567-9.527-15.04-15.859-26.02-17.375-10.902-1.476-21.777-6.496-28.379-13.09-6.593-6.6-11.617-17.488-13.105-28.421-1.5-10.926-7.832-20.399-17.39-26.008-7.825-4.563-14.88-13.383-19.36-24.2-2.754-6.652-4.356-12.605-4.836-18.011h41.691C105.336 398.766 178.183 449 256 449s150.664-50.234 179.637-123h42.379a46.09 46.09 0 01-3.524 18.02zm0 0"/><path d="M396 246H156c-5.523 0-10 4.477-10 10s4.477 10 10 10h240c5.523 0 10-4.477 10-10s-4.477-10-10-10zm0 0"/></svg>