<svg height="640" viewBox="0 0 480.004 480" width="640" xmlns="http://www.w3.org/2000/svg"><path d="M328 472H8V104l96-96h224zm0 0" fill="#ffdaaa"/><path d="M104 8L8 104h96zm0 0" fill="#ff7956"/><path d="M96 296h144v128H96zm0 0" fill="#ffcd00"/><path d="M408 286.027a109.61 109.61 0 0133.762-80.097 95.73 95.73 0 0030.093-75.29C467.258 82.169 428.531 43.989 380 40.083c-40.168-1.66-77.117 21.887-92.578 58.996S281.258 179 310.719 206.355A108.259 108.259 0 01344 286.043V336h64zm0 0" fill="#ed1c24"/><path d="M326.719 206.32A108.55 108.55 0 01360 286.082V336h-16v-49.918a108.55 108.55 0 00-33.281-79.762c-29.485-27.34-38.797-70.16-23.328-107.277C302.859 61.93 339.824 38.391 380 40.082c1.281.078 2.559.16 3.84.32-37.852 3.196-70.25 28.434-82.613 64.352-12.368 35.918-2.368 75.746 25.492 101.566zm0 0" fill="#ab2300"/><path d="M344 336h64v32h-64zm0 0" fill="#bddbff"/><path d="M456 400H296c-8.836 0-16 7.164-16 16v32h192v-32c0-8.836-7.164-16-16-16zm0 0" fill="#006df0"/><path d="M296 448h160v24H296zm0 0" fill="#a7a9ac"/><path d="M424 368h-96v32h96zm0 0" fill="#57a4ff"/><path d="M56 136h200v80H56zm0 0" fill="#ffcd00"/><path d="M8 240v232h208C101.031 472 8 368.234 8 240zm0 0" fill="#ffc477"/><path d="M344 336h16v32h-16zm0 0" fill="#9bc9ff"/><g fill="#231f20"><path d="M100.688 0L0 100.691V480h272v-16H16V112h96V16h208v16h16V0zM27.311 96L96 27.312V96zm0 0"/><path d="M144 64h16v16h-16zm32 0h88v16h-88zm-32 32h16v16h-16zm32 0h88v16h-88zm80 128H48v-96h208v16H64v64h192zM48 240h16v16H48zm32 0h176v16H80zm168 192H88V288h160zm-144-16h128V304H104zm376 0c0-13.254-10.746-24-24-24h-24v-32h-16v-73.973a101.87 101.87 0 0131.238-74.265 103.882 103.882 0 0032.602-81.551c-5.008-52.52-46.969-93.875-99.55-98.121-43.517-1.793-83.536 23.719-100.282 63.918-16.75 40.199-6.676 86.578 25.238 116.21A100.376 100.376 0 01336 286.044V360h-16v32h-24c-13.254 0-24 10.746-24 24v40h16v24h176v-24h16zM316.129 200.488A88.208 88.208 0 01288 136a88.004 88.004 0 0127.078-63.504 88.01 88.01 0 0164.57-24.422c44.48 3.602 79.973 38.586 84.215 83.008a87.92 87.92 0 01-27.574 69.016A117.916 117.916 0 00400 286.028V328h-48v-41.957a116.4 116.4 0 00-35.871-85.555zM352 344h48v16h-48zm-16 32h80v16h-80zm112 88H304v-8h144zm16-24H288v-24a8 8 0 018-8h160a8 8 0 018 8zm0 0"/></g></svg>