<svg xmlns="http://www.w3.org/2000/svg" version="1.1" id="Layer_1" x="0" y="0" viewBox="0 0 256 256" xml:space="preserve" width="512" height="512"><style>.st0{fill:#3a312a}.st1{fill:#d7e057}.st2{fill:#8ac6dd}.st3{fill:#87796f}.st6{fill:#fce8cb}</style><path class="st1" d="M49.012 63.251c-.974 11.564-13.024 13.39-13.024 13.39C46.335 77.128 48.913 90.7 48.913 90.7c.221-9.677 13.321-14.202 13.321-14.202-9.813-.588-13.222-13.247-13.222-13.247z"/><path class="st0" d="M62.324 75c-8.604-.515-11.832-12.024-11.863-12.141a1.5 1.5 0 00-2.943.265c-.86 10.216-11.313 11.965-11.754 12.034a1.5 1.5 0 00.155 2.982c9.027.425 11.498 12.718 11.521 12.842a1.502 1.502 0 001.599 1.212 1.5 1.5 0 001.375-1.459c.193-8.509 12.191-12.777 12.312-12.819A1.5 1.5 0 0062.324 75zM48.758 85.346c-1.356-3.131-3.708-6.907-7.586-8.877 2.931-1.405 6.408-3.913 8.201-8.272 1.551 3.071 4.2 6.88 8.334 8.722-3.008 1.64-6.923 4.405-8.949 8.427z"/><path class="st1" d="M27.314 80.232c-.689 8.179-9.212 9.471-9.212 9.471 7.318.344 9.142 9.944 9.142 9.944.156-6.844 9.422-10.045 9.422-10.045-6.942-.416-9.352-9.37-9.352-9.37z"/><path class="st0" d="M36.755 88.104c-5.766-.345-7.972-8.186-7.994-8.265a1.508 1.508 0 00-1.581-1.102 1.5 1.5 0 00-1.361 1.368c-.578 6.871-7.646 8.067-7.941 8.114a1.5 1.5 0 00.154 2.982c6.034.284 7.723 8.644 7.738 8.726a1.5 1.5 0 002.974-.246c.13-5.71 8.331-8.634 8.412-8.662a1.501 1.501 0 00-.401-2.915zm-9.585 6.794c-.924-1.885-2.34-3.947-4.446-5.28 1.855-1.041 3.697-2.629 4.87-4.916 1.058 1.874 2.654 3.954 4.941 5.223-1.85 1.102-3.989 2.741-5.365 4.973z"/><path class="st1" d="M27.314 53.574c-.689 8.179-9.212 9.471-9.212 9.471 7.318.344 9.142 9.944 9.142 9.944.156-6.845 9.422-10.045 9.422-10.045-6.942-.416-9.352-9.37-9.352-9.37z"/><path class="st0" d="M36.755 61.446c-5.766-.345-7.972-8.185-7.994-8.264a1.507 1.507 0 00-1.581-1.101 1.5 1.5 0 00-1.361 1.368c-.578 6.871-7.646 8.067-7.941 8.114a1.5 1.5 0 00.154 2.982c6.034.284 7.723 8.643 7.738 8.725a1.502 1.502 0 002.974-.246c.13-5.709 8.331-8.634 8.412-8.662a1.501 1.501 0 00-.401-2.916zm-9.585 6.795c-.924-1.886-2.34-3.947-4.446-5.28 1.855-1.041 3.697-2.629 4.87-4.916 1.058 1.874 2.654 3.954 4.941 5.223-1.85 1.101-3.989 2.741-5.365 4.973z"/><path class="st2" d="M232.034 85.907a8.323 8.323 0 00-4.546 1.348c.001-.046.007-.091.007-.137a8.372 8.372 0 00-8.372-8.372 8.372 8.372 0 00-8.372 8.372c0 .047.006.091.007.137a8.33 8.33 0 00-4.546-1.348 8.372 8.372 0 00-8.372 8.372c0 4.59 3.694 8.312 8.271 8.367v.005h26.024v-.005c4.577-.055 8.271-3.777 8.271-8.367a8.372 8.372 0 00-8.372-8.372z"/><path class="st0" d="M232.034 84.407a9.804 9.804 0 00-3.274.561c-.984-4.413-4.931-7.722-9.637-7.722s-8.652 3.309-9.637 7.722a9.809 9.809 0 00-3.274-.561c-5.443 0-9.872 4.429-9.872 9.872 0 5.332 4.304 9.729 9.621 9.865.049.005.1.007.15.007h26.023c.051 0 .101-.002.15-.007 5.317-.135 9.621-4.533 9.621-9.865.001-5.443-4.428-9.872-9.871-9.872zm.082 16.739c-.034.001-.068.002-.102.005h-25.78c-.034-.003-.069-.004-.104-.005-3.744-.045-6.79-3.125-6.79-6.867a6.88 6.88 0 016.872-6.872c1.324 0 2.613.382 3.73 1.106a1.5 1.5 0 002.309-1.396 6.88 6.88 0 016.872-6.872c3.789 0 6.872 3.083 6.872 6.842a1.498 1.498 0 00.763 1.477 1.5 1.5 0 001.547-.051 6.836 6.836 0 013.729-1.106 6.88 6.88 0 016.872 6.872c0 3.742-3.046 6.823-6.79 6.867z"/><path class="st2" d="M88.385 23.61a8.323 8.323 0 00-4.546 1.348c.001-.046.007-.091.007-.137a8.372 8.372 0 00-8.372-8.372 8.372 8.372 0 00-8.372 8.372c0 .047.006.091.007.137a8.33 8.33 0 00-4.546-1.348 8.372 8.372 0 00-8.372 8.372c0 4.59 3.694 8.312 8.271 8.367v.005h26.024v-.005c4.577-.055 8.271-3.777 8.271-8.367a8.372 8.372 0 00-8.372-8.372z"/><path class="st0" d="M88.386 22.11a9.804 9.804 0 00-3.274.561c-.984-4.413-4.931-7.722-9.637-7.722s-8.652 3.309-9.637 7.722a9.809 9.809 0 00-3.274-.561c-5.443 0-9.872 4.429-9.872 9.872 0 5.332 4.304 9.729 9.621 9.864.05.005.1.007.15.007h26.023c.051 0 .101-.002.149-.007 5.318-.134 9.622-4.532 9.622-9.864.001-5.443-4.428-9.872-9.871-9.872zm.083 16.739a1.81 1.81 0 00-.104.005h-25.78a1.76 1.76 0 00-.105-.005c-3.743-.044-6.789-3.125-6.789-6.867a6.88 6.88 0 016.872-6.872c1.324 0 2.613.382 3.73 1.106a1.503 1.503 0 002.317-1.291l-.007-.105a6.88 6.88 0 016.872-6.872c3.789 0 6.872 3.083 6.873 6.829a3.651 3.651 0 00-.008.181 1.5 1.5 0 002.316 1.259 6.836 6.836 0 013.729-1.106 6.88 6.88 0 016.872 6.872c.001 3.741-3.045 6.822-6.788 6.866z"/><path class="st2" d="M162.456 51.11a8.32 8.32 0 00-4.546 1.348c.001-.046.007-.091.007-.137a8.372 8.372 0 00-8.372-8.372 8.372 8.372 0 00-8.372 8.372c0 .046.006.091.007.137a8.33 8.33 0 00-4.546-1.348 8.372 8.372 0 00-8.372 8.372c0 4.59 3.694 8.312 8.271 8.367v.005h26.024v-.005c4.577-.055 8.271-3.777 8.271-8.367a8.372 8.372 0 00-8.372-8.372z"/><path class="st0" d="M162.456 49.61a9.839 9.839 0 00-3.275.56c-.984-4.413-4.932-7.722-9.637-7.722s-8.652 3.309-9.637 7.722a9.808 9.808 0 00-3.274-.56c-5.443 0-9.872 4.429-9.872 9.872 0 5.332 4.304 9.729 9.621 9.864.05.005.1.007.15.007h26.023c.051 0 .101-.002.15-.007 5.318-.134 9.622-4.532 9.622-9.864.001-5.443-4.428-9.872-9.871-9.872zm.083 16.739a1.81 1.81 0 00-.104.005h-25.78a1.76 1.76 0 00-.105-.005c-3.743-.044-6.789-3.125-6.789-6.867a6.88 6.88 0 016.872-6.872c1.324 0 2.614.382 3.729 1.106a1.5 1.5 0 002.317-1.29l-.007-.105a6.88 6.88 0 016.872-6.872c3.789 0 6.872 3.083 6.872 6.842a1.498 1.498 0 00.763 1.477c.486.27 1.08.25 1.547-.052a6.834 6.834 0 013.73-1.106 6.88 6.88 0 016.872 6.872c0 3.742-3.046 6.823-6.789 6.867z"/><path d="M207.32 159.309c-.49-.05-.98-.08-1.47-.1-.69-.04-1.38-.06-2.08-.06l-37.16-34.97-8.48-7.98c-2.37-1.9-5.33-2.94-8.37-2.94H47.849a13.42 13.42 0 00-12.53 8.63l-1.598 4.194-4.918 12.907-2.782 7.302-4.022 10.557c-.58 1.52-.88 3.14-.88 4.77v39.828h222.88v-2.058c0-21.02-16.119-38.29-36.679-40.08z" fill="#f16c7a"/><path class="st0" d="M207.472 157.817c-.52-.053-1.04-.085-1.535-.105a38.787 38.787 0 00-1.567-.058l-45.211-42.547a2.183 2.183 0 00-.09-.078 14.936 14.936 0 00-9.309-3.27H47.849c-6.142 0-11.741 3.856-13.931 9.596l-1.598 4.194a1.5 1.5 0 102.803 1.068l1.598-4.193c1.75-4.584 6.222-7.664 11.129-7.664h101.91c2.673 0 5.294.914 7.387 2.575l45.595 42.908a1.5 1.5 0 001.028.408c.671 0 1.332.019 2.019.059.46.019.92.047 1.401.095 19.8 1.725 35.309 18.673 35.309 38.586v.558H22.619V161.62c0-1.45.263-2.874.781-4.236l6.805-17.859a1.5 1.5 0 10-2.803-1.068l-6.805 17.859a14.848 14.848 0 00-.979 5.304v39.828a1.5 1.5 0 001.5 1.5h222.88a1.5 1.5 0 001.5-1.5v-2.058c.001-21.455-16.712-39.717-38.026-41.573z"/><path class="st2" d="M105.523 124.289H49.08a5.23 5.23 0 00-4.927 3.473l-8.765 24.558c-1.216 3.407 1.31 6.99 4.927 6.99h65.208a5.581 5.581 0 005.581-5.581V129.87a5.581 5.581 0 00-5.581-5.581z"/><path class="st0" d="M105.523 122.789H99.22a1.5 1.5 0 100 3h6.304c2.25 0 4.081 1.83 4.081 4.081v23.859a4.086 4.086 0 01-4.081 4.081H40.315a3.69 3.69 0 01-3.051-1.582 3.687 3.687 0 01-.464-3.404l8.766-24.559a3.738 3.738 0 013.514-2.477h35.818a1.5 1.5 0 100-3H49.08a6.746 6.746 0 00-6.34 4.469l-8.766 24.558a6.743 6.743 0 00.838 6.141 6.74 6.74 0 005.503 2.853h65.208a7.089 7.089 0 007.081-7.081V129.87a7.089 7.089 0 00-7.081-7.081z"/><path class="st2" d="M166.609 124.18H127.9c-3.08 0-5.58 2.5-5.58 5.58v23.97c0 3.08 2.5 5.58 5.58 5.58l75.87-.16-37.161-34.97z"/><path class="st0" d="M204.798 158.057l-37.16-34.97a1.5 1.5 0 00-1.028-.408H127.9a7.088 7.088 0 00-7.08 7.08v23.97a7.088 7.088 0 007.08 7.08h.003l75.87-.16a1.5 1.5 0 001.025-2.592zm-76.901-.247a4.084 4.084 0 01-4.078-4.08v-23.97c0-2.25 1.83-4.08 4.08-4.08h38.115l33.98 31.977-72.097.153z"/><path class="st3" d="M244.521 201.447H20.598a5.182 5.182 0 100 10.363h223.923a5.182 5.182 0 100-10.363z"/><path class="st0" d="M244.52 199.947H20.599a6.69 6.69 0 00-6.682 6.682 6.69 6.69 0 006.682 6.682H244.52a6.689 6.689 0 006.682-6.682 6.69 6.69 0 00-6.682-6.682zm0 10.364H20.599a3.686 3.686 0 01-3.682-3.682 3.686 3.686 0 013.682-3.682H244.52a3.686 3.686 0 013.682 3.682 3.686 3.686 0 01-3.682 3.682z"/><circle class="st3" cx="55.353" cy="211.965" r="27.586"/><path class="st0" d="M55.352 182.879c-16.038 0-29.086 13.048-29.086 29.086s13.048 29.086 29.086 29.086c16.039 0 29.087-13.048 29.087-29.086s-13.047-29.086-29.087-29.086zm0 55.172c-14.384 0-26.086-11.702-26.086-26.086s11.702-26.086 26.086-26.086c14.385 0 26.087 11.702 26.087 26.086s-11.702 26.086-26.087 26.086z"/><circle transform="rotate(-22.875 55.36 211.985)" class="st6" cx="55.353" cy="211.965" r="12.217"/><path class="st0" d="M55.352 198.248c-7.563 0-13.717 6.153-13.717 13.717 0 7.564 6.153 13.717 13.717 13.717 7.565 0 13.718-6.153 13.718-13.717 0-7.564-6.153-13.717-13.718-13.717zm0 24.435c-5.909 0-10.717-4.808-10.717-10.717 0-5.91 4.808-10.717 10.717-10.717 5.91 0 10.718 4.808 10.718 10.717 0 5.909-4.807 10.717-10.718 10.717z"/><circle class="st3" cx="209.766" cy="211.965" r="27.586"/><path class="st0" d="M209.766 182.879c-16.038 0-29.086 13.048-29.086 29.086s13.048 29.086 29.086 29.086 29.086-13.048 29.086-29.086-13.048-29.086-29.086-29.086zm0 55.172c-14.384 0-26.086-11.702-26.086-26.086s11.702-26.086 26.086-26.086c14.384 0 26.086 11.702 26.086 26.086s-11.703 26.086-26.086 26.086z"/><circle class="st6" cx="209.766" cy="211.965" r="12.217"/><path class="st0" d="M209.766 198.248c-7.563 0-13.717 6.153-13.717 13.717 0 7.564 6.153 13.717 13.717 13.717 7.564 0 13.718-6.153 13.718-13.717-.001-7.564-6.154-13.717-13.718-13.717zm0 24.435c-5.909 0-10.717-4.808-10.717-10.717 0-5.91 4.808-10.717 10.717-10.717 5.91 0 10.718 4.808 10.718 10.717-.001 5.909-4.808 10.717-10.718 10.717z"/><path class="st3" d="M43.681 166.382h-6.794a3.288 3.288 0 00-3.288 3.288v6.794a3.288 3.288 0 003.288 3.288h6.794a3.288 3.288 0 003.288-3.288v-6.794a3.289 3.289 0 00-3.288-3.288z"/><path class="st0" d="M43.681 164.882h-6.794a4.793 4.793 0 00-4.788 4.789v6.794a4.794 4.794 0 004.788 4.788h6.794a4.793 4.793 0 004.788-4.788v-6.794a4.794 4.794 0 00-4.788-4.789zm1.788 11.583a1.79 1.79 0 01-1.788 1.788h-6.794a1.79 1.79 0 01-1.788-1.788v-6.794a1.79 1.79 0 011.788-1.789h6.794a1.79 1.79 0 011.788 1.789v6.794z"/><path class="st1" d="M234.935 165.861h-11a6.625 6.625 0 100 13.25h11a6.625 6.625 0 100-13.25z"/><path class="st0" d="M234.935 164.361h-11c-4.48 0-8.125 3.645-8.125 8.125s3.645 8.125 8.125 8.125h11c4.48 0 8.125-3.645 8.125-8.125s-3.645-8.125-8.125-8.125zm0 13.25h-11a5.13 5.13 0 01-5.125-5.125 5.13 5.13 0 015.125-5.125h11a5.13 5.13 0 015.125 5.125 5.13 5.13 0 01-5.125 5.125z"/><path d="M157.149 117.331c-2.1-1.66-4.72-2.57-7.39-2.57h-15c2.67 0 5.29.91 7.39 2.57l5.68 5.35h15l-5.68-5.35zm80.21 62.91c-.77.24-1.58.37-2.42.37h-11c-.49 0-.98-.04-1.45-.13 1.28 2.25 2.34 4.63 3.14 7.12 4.61 3.02 8.31 7.3 10.61 12.35h6.26v-.56c0-6.91-1.869-13.47-5.14-19.15zm-21.549-7.75c0-3.53 2.26-6.53 5.4-7.65a38.02 38.02 0 00-14.02-4.04c-.48-.05-.94-.07-1.4-.09-.69-.04-1.35-.06-2.01-.06h-.01l-13.77.03c.26 0 .52.01.79.03.46.02.92.04 1.4.09 5.01.44 9.74 1.85 14.02 4.04-3.14 1.12-5.4 4.12-5.4 7.65 0 4.47 3.65 8.12 8.13 8.12h11c.69 0 1.36-.09 2-.25-3.521-.89-6.13-4.09-6.13-7.87z" fill="#d34e5c"/><path d="M166.02 125.681h-15l33.98 31.98-57.58.12c.15.02.32.03.48.03l72.1-.15-33.98-31.98z" fill="#6ca8bf"/><path class="st3" d="M14.896 142h-2.377a6.22 6.22 0 00-6.221 6.221v42.057a6.22 6.22 0 006.221 6.221h2.377a6.22 6.22 0 006.221-6.221v-42.057A6.22 6.22 0 0014.896 142z"/><path class="st0" d="M14.896 140.5h-2.378c-4.257 0-7.721 3.464-7.721 7.721v42.058c0 4.257 3.464 7.721 7.721 7.721h2.378c4.257 0 7.721-3.464 7.721-7.721v-42.058c0-4.257-3.464-7.721-7.721-7.721zm4.721 49.779A4.727 4.727 0 0114.896 195h-2.378a4.727 4.727 0 01-4.721-4.721v-42.058a4.727 4.727 0 014.721-4.721h2.378a4.727 4.727 0 014.721 4.721v42.058z"/><path class="st1" d="M19.774 165.861h-4.881v13.25h4.881a6.625 6.625 0 100-13.25z"/><path class="st0" d="M19.773 164.361h-4.881a1.5 1.5 0 00-1.5 1.5v13.25a1.5 1.5 0 001.5 1.5h4.881c4.481 0 8.125-3.645 8.125-8.125s-3.644-8.125-8.125-8.125zm0 13.25h-3.381v-10.25h3.381a5.13 5.13 0 015.125 5.125 5.13 5.13 0 01-5.125 5.125z"/></svg>