<svg version="1.1" id="Capa_1" xmlns="http://www.w3.org/2000/svg" x="0" y="0" viewBox="0 0 496 496" xml:space="preserve"><path d="M328 96H56c-4.424 0-8-3.576-8-8V40c0-4.424 3.576-8 8-8h272c4.424 0 8 3.576 8 8v48c0 4.424-3.576 8-8 8z" fill="#f0bc5e"/><path d="M320 112h16v16h-16zm0 32h16v16h-16zm0 32h16v16h-16z"/><path d="M0 0v347.312L116.688 464H320.96v-16H128v-32h104V272H64v64H16V16h352v144h16V0H0zm112 436.688L27.312 352H112v84.688zM80 288h136v112h-88v-64H80v-48z"/><path d="M96 304h104v16H96zm48 32h56v16h-56zm0 32h56v16h-56zM48 112h256v16H48zm0 32h256v16H48zm0 32h256v16H48zm0 32h152v16H48zm0 32h152v16H48zm168-32h16v16h-16zm0 32h16v16h-16z"/><path d="M376 496a7.968 7.968 0 01-3.968-1.056l-63.632-36.36c-32.32-18.472-52.4-53.072-52.4-90.296V248c0-4.424 3.576-8 8-8h22.312c33.44 0 64.48-16.608 83.032-44.44 2.968-4.456 10.344-4.456 13.312 0 18.552 27.832 49.592 44.44 83.032 44.44H488c4.424 0 8 3.576 8 8v120.288c0 37.224-20.08 71.824-52.4 90.296l-63.632 36.36A7.968 7.968 0 01376 496z" fill="#f0bc5e"/><path d="M427.72 430.808l-7.936-13.888c17.4-9.952 28.216-28.584 28.216-48.632V352h16v16.288c0 25.776-13.904 49.728-36.28 62.52zM448 320h16v16h-16zm-112 83.312l-37.656-37.656 11.312-11.312L336 380.688l106.344-106.344 11.312 11.312z"/></svg>