<svg version="1.1" id="Capa_1" xmlns="http://www.w3.org/2000/svg" x="0" y="0" viewBox="0 0 497.208 497.208" xml:space="preserve"><path fill="#ececec" d="M376.604 456h-256l-112-112V8h368v160z"/><path d="M240.604 376.288c0 32.232 16.304 61.992 42.88 79.712h85.12V240h-128v136.288z" fill="#b6c1ce"/><path fill="#fcd770" d="M120.604 408h104V280h-152v64h48z"/><path fill="#fea82f" d="M120.604 456V344h-112z"/><path d="M488.604 248v120.288a96.004 96.004 0 01-48.368 83.352L376.604 488l-63.632-36.36c-29.912-17.088-48.368-48.904-48.368-83.352V248h22.312c36.04 0 69.696-18.016 89.688-48a107.802 107.802 0 0089.688 48h22.312z" fill="#fb5968"/><path fill="#fcd770" d="M56.604 40h272v32h-272z"/><path d="M466.292 240c-33.44 0-64.48-16.608-83.032-44.44l-6.656-9.984-6.656 9.984C351.396 223.392 320.356 240 286.916 240h-30.312v128.288c0 31.008 13.96 60.152 37.288 79.712H128.604v-32h104V272h-168v64h-48V16h352v144h16V0h-384v347.312L117.292 464h201.192l58.12 33.208 67.6-38.624c32.32-18.464 52.4-53.072 52.4-90.296V240h-30.312zM112.604 436.688L27.916 352h84.688v84.688zM80.604 288h136v112h-88v-64h-48v-48zm400 80.288c0 31.504-16.992 60.776-44.336 76.408l-59.664 34.096-59.664-34.096c-27.344-15.632-44.336-44.904-44.336-76.408V256h14.312c35.04 0 67.808-15.72 89.688-42.544C398.484 240.28 431.252 256 466.292 256h14.312v112.288z"/><path d="M448.604 368.288c0 20.048-10.816 38.68-28.216 48.624l7.936 13.888c22.376-12.784 36.28-36.736 36.28-62.512V320h-16v48.288zM336.604 32h-288v48h288V32zm-16 32h-256V48h256v16zm122.344 210.344L336.604 380.688l-26.344-26.344-11.312 11.312 37.656 37.656L454.26 285.656zM96.604 304h104v16h-104zm48 32h56v16h-56zm0 32h56v16h-56zm-96-256h256v16h-256zm0 32h256v16h-256zm0 32h256v16h-256zm0 32h152v16h-152zm0 32h152v16h-152zm272-128h16v16h-16zm0 32h16v16h-16zm0 32h16v16h-16zm-104 32h16v16h-16zm0 32h16v16h-16z"/></svg>