<svg height="512" viewBox="0 0 256 256" width="512" xmlns="http://www.w3.org/2000/svg"><path d="M124.714 192.691c0-33.583 27.225-60.808 60.808-60.808 6.66 0 13.063 1.086 19.06 3.065a127.495 127.495 0 002.202-23.691V52.912a6.44 6.44 0 00-5.85-6.414c-33.392-3.078-64.677-18.012-88.093-42.052a6.443 6.443 0 00-9.228 0C80.196 28.486 48.911 43.42 15.519 46.498a6.44 6.44 0 00-5.85 6.414v58.345c0 43.834 21.871 82.793 60.005 106.89l32.699 20.664c3.559 2.244 8.157 2.245 11.709-.003l20.485-12.945a60.518 60.518 0 01-9.853-33.172z" fill="#f9d87a"/><path d="M124.714 192.691c0-33.583 27.225-60.808 60.808-60.808 2.179 0 4.329.12 6.448.343a114.127 114.127 0 001.931-20.969V58.674a154.103 154.103 0 01-85.675-40.697 154.103 154.103 0 01-85.675 40.697v52.583c0 39.322 19.684 74.313 54.005 95.999l31.67 20.013 20.467-12.933a60.658 60.658 0 01-3.979-21.645z" fill="#facb35"/><path d="M151.799 90.507c-2.841-2.841-7.466-2.84-10.307.001l-40.649 40.65-19.204-19.205c-1.374-1.373-3.204-2.129-5.153-2.129s-3.78.757-5.154 2.13a7.237 7.237 0 00-2.134 5.151 7.24 7.24 0 002.134 5.153l24.357 24.357a7.241 7.241 0 005.153 2.134 7.239 7.239 0 005.154-2.135l45.803-45.802c2.841-2.839 2.841-7.463 0-10.305z" fill="#edf4fc"/><circle cx="185.522" cy="192.692" fill="#fc3850" r="60.808"/><circle cx="185.522" cy="193.332" fill="#edf4fc" r="48.647"/><path d="M185.522 256c-34.909 0-63.309-28.4-63.309-63.309s28.4-63.309 63.309-63.309c34.908 0 63.308 28.4 63.308 63.309S220.431 256 185.522 256zm0-121.617c-32.151 0-58.309 26.157-58.309 58.309S153.371 251 185.522 251s58.308-26.157 58.308-58.309-26.156-58.308-58.308-58.308z"/><path d="M185.522 244.479c-28.203 0-51.147-22.944-51.147-51.146 0-28.203 22.944-51.147 51.147-51.147 28.202 0 51.146 22.944 51.146 51.147.001 28.201-22.943 51.146-51.146 51.146zm0-97.294c-25.445 0-46.147 20.702-46.147 46.147s20.702 46.146 46.147 46.146 46.146-20.701 46.146-46.146-20.7-46.147-46.146-46.147z"/><path d="M156.382 166.052c-.64 0-1.279-.244-1.768-.732l-4.619-4.618a2.5 2.5 0 113.536-3.535l4.619 4.618a2.498 2.498 0 01-1.768 4.267zm63.065 63.064c-.64 0-1.28-.244-1.768-.732l-3.505-3.505a2.498 2.498 0 010-3.535 2.498 2.498 0 013.535 0l3.505 3.505a2.498 2.498 0 01-1.767 4.267zm-75.4-33.284h-6.532a2.5 2.5 0 110-5h6.532a2.5 2.5 0 110 5zm89.482 0h-5.251a2.5 2.5 0 110-5h5.251a2.5 2.5 0 110 5zm-48.007 48.007a2.5 2.5 0 01-2.5-2.5v-6.532a2.5 2.5 0 115 0v6.532a2.5 2.5 0 01-2.5 2.5zm0-90.763a2.5 2.5 0 01-2.5-2.5v-5.251a2.5 2.5 0 115 0v5.251a2.5 2.5 0 01-2.5 2.5zm-33.946 76.701a2.5 2.5 0 01-1.768-4.267l4.619-4.618a2.5 2.5 0 113.536 3.535l-4.619 4.618a2.493 2.493 0 01-1.768.732zm64.179-64.177a2.498 2.498 0 01-1.768-4.267l3.713-3.714a2.5 2.5 0 113.536 3.535l-3.713 3.714a2.497 2.497 0 01-1.768.732zm-11.249 30.232H182.91a2.5 2.5 0 110-5h21.596a2.5 2.5 0 110 5z"/><path d="M185.665 198.859a2.5 2.5 0 01-2.5-2.5v-33.028a2.5 2.5 0 115 0v33.028a2.5 2.5 0 01-2.5 2.5z"/><path d="M108.229 242.991a13.48 13.48 0 01-7.188-2.065L68.339 220.26c-38.875-24.562-61.17-64.293-61.17-109.003V52.912a8.898 8.898 0 018.121-8.903c32.798-3.023 63.529-17.693 86.531-41.307A8.875 8.875 0 01108.227 0c2.433 0 4.708.959 6.405 2.702 23.002 23.613 53.733 38.283 86.532 41.307a8.9 8.9 0 018.121 8.903v58.345c0 8.14-.755 16.267-2.246 24.155a2.497 2.497 0 01-1.187 1.689 2.506 2.506 0 01-2.053.221 58.221 58.221 0 00-18.276-2.939c-32.151 0-58.309 26.157-58.309 58.309a58.066 58.066 0 009.448 31.805 2.501 2.501 0 01-.758 3.479l-20.485 12.944a13.44 13.44 0 01-7.19 2.071zM108.227 5a3.913 3.913 0 00-2.823 1.19C81.572 30.656 49.732 45.854 15.749 48.987a3.923 3.923 0 00-3.58 3.925v58.345c0 42.959 21.447 81.148 58.841 104.776l32.699 20.664a8.508 8.508 0 009.037-.003l18.385-11.617a63.057 63.057 0 01-8.917-32.386c0-34.908 28.4-63.309 63.309-63.309 5.791 0 11.527.79 17.09 2.352a125.84 125.84 0 001.672-20.478V52.912a3.923 3.923 0 00-3.579-3.925c-33.984-3.133-65.824-18.331-89.655-42.797A3.917 3.917 0 00108.227 5z"/><path d="M108.227 229.769c-.464 0-.928-.129-1.335-.387l-31.67-20.013c-35.061-22.153-55.169-57.914-55.169-98.112V58.674c0-1.255.931-2.315 2.175-2.479 31.8-4.168 60.945-18.013 84.284-40.037a2.503 2.503 0 013.432 0c23.339 22.024 52.484 35.869 84.284 40.037a2.5 2.5 0 012.175 2.479v52.583c0 7.206-.664 14.416-1.974 21.429-.24 1.28-1.423 2.148-2.72 2.027a59.18 59.18 0 00-6.186-.33c-32.151 0-58.309 26.157-58.309 58.309a58.063 58.063 0 003.816 20.753 2.5 2.5 0 01-1 3.004l-20.467 12.934a2.51 2.51 0 01-1.336.386zM25.052 60.853v50.404c0 38.447 19.26 72.668 52.84 93.886l30.334 19.169 17.431-11.016a63.032 63.032 0 01-3.444-20.604c0-34.908 28.4-63.309 63.309-63.309 1.444 0 2.911.052 4.383.154a112.277 112.277 0 001.496-18.28V60.853c-31.233-4.53-59.898-18.131-83.175-39.462-23.275 21.331-51.941 34.931-83.174 39.462z"/><path d="M100.843 151.25a9.73 9.73 0 01-6.921-2.865l-24.357-24.358a9.724 9.724 0 01-2.866-6.921 9.722 9.722 0 012.866-6.919 9.725 9.725 0 016.921-2.862 9.726 9.726 0 016.921 2.86l17.436 17.438 38.881-38.883c3.817-3.816 10.027-3.816 13.842-.001 3.816 3.816 3.816 10.026 0 13.842l-45.803 45.802a9.717 9.717 0 01-6.92 2.867zm-24.357-38.926a4.762 4.762 0 00-3.387 1.398c-.903.903-1.401 2.104-1.401 3.383s.498 2.481 1.401 3.386l24.357 24.357c.904.903 2.106 1.401 3.386 1.401s2.482-.498 3.385-1.402l45.804-45.802a4.794 4.794 0 00-.001-6.771 4.795 4.795 0 00-6.771.001l-40.649 40.65c-.938.938-2.597.938-3.536 0L79.87 113.72a4.749 4.749 0 00-3.384-1.396z"/></svg>