<svg height="512pt" viewBox="0 0 512 512" width="512pt" xmlns="http://www.w3.org/2000/svg"><path d="m156 242.648438 1.25.738281h-1.25l-146-89.089844v-144.300781h146zm0 0" fill="#f46370"/><path d="m502 9.996094v144.300781l-146 88.351563v-232.652344zm0 0" fill="#f46370"/><path d="m356 9.996094v232.652344l-100 58.890624-98.75-58.152343-1.25-.738281v-232.652344zm0 0" fill="#fff"/><path d="m288.277344 367.570312 72.695312 10.84375-52.828125 51.101563 12.148438 72.488281-64.921875-34.449218-65.183594 33.953124 12.699219-72.390624-52.433594-51.503907 72.773437-10.292969 32.777344-65.78125zm0 0" fill="#ffbd5a"/><path d="m502 0h-492c-5.519531 0-10 4.480469-10 10v144.300781c0 3.480469 1.820312 6.71875 4.789062 8.527344l146 89.09375c1.070313.65625 2.25 1.097656 3.480469 1.316406l88.621094 52.191407-26.269531 52.730468-67.570313 9.550782c-3.769531.539062-6.910156 3.160156-8.101562 6.777343-1.1875 3.613281-.21875 7.589844 2.492187 10.261719l48.6875 47.820312-11.789062 67.210938c-.660156 3.75.871094 7.546875 3.941406 9.789062 3.070312 2.25 7.148438 2.570313 10.527344.808594l60.519531-31.527344 60.28125 31.988282c1.46875.78125 3.082031 1.160156 4.679687 1.160156 2.0625 0 4.121094-.628906 5.851563-1.890625 3.089844-2.21875 4.648437-6.007813 4.019531-9.757813l-11.28125-67.300781 49.042969-47.449219c2.738281-2.640624 3.738281-6.613281 2.566406-10.242187-1.160156-3.621094-4.277343-6.269531-8.039062-6.839844l-67.5-10.058593-25.898438-53 91.980469-54.179688.039062-.019531c.039063-.023438.070313-.042969.109376-.0625l146-88.347657c2.992187-1.8125 4.820312-5.050781 4.820312-8.550781v-144.300781c0-5.519531-4.480469-10-10-10zm-356 225.570312-126-76.878906v-128.691406h126zm133.289062 146.390626c1.449219 2.960937 4.261719 5.019531 7.511719 5.5l52.648438 7.859374-38.257813 37.007813c-2.363281 2.292969-3.453125 5.59375-2.910156 8.84375l8.796875 52.5-47.019531-24.953125c-1.46875-.777344-3.078125-1.167969-4.6875-1.167969-1.582032 0-3.171875.378907-4.621094 1.128907l-47.210938 24.601562 9.199219-52.441406c.570313-3.238282-.5-6.550782-2.847656-8.859375l-37.96875-37.300781 52.699219-7.460938c3.257812-.457031 6.089844-2.488281 7.558594-5.4375l23.742187-47.652344zm66.710938-135.03125-90 53-90-52.988282v-216.941406h180zm146-88.269532-126 76.25v-204.910156h126zm0 0"/><path d="m256 224.253906c-5.523438 0-10-4.480468-10-10v-39.554687c0-5.523438 4.476562-10 10-10s10 4.476562 10 10v39.554687c0 5.519532-4.476562 10-10 10zm0 0"/><path d="m256.019531 259.078125c-5.523437 0-10.003906-4.476563-10.003906-10 0-5.519531 4.472656-10 9.996094-10h.007812c5.523438 0 10 4.480469 10 10 0 5.523437-4.476562 10-10 10zm0 0"/></svg>