<svg height="451pt" viewBox="0 -13 451.998 451" width="451pt" xmlns="http://www.w3.org/2000/svg"><path d="m315.253906 127.6875h-282.773437c-16.28125 0-29.480469 13.199219-29.480469 29.480469v138.039062c0 16.277344 13.199219 29.480469 29.480469 29.480469h387.039062c16.28125 0 29.480469-13.203125 29.480469-29.480469v-138.039062c0-16.28125-13.199219-29.480469-29.480469-29.480469zm0 0" fill="#8ac6dd"/><path d="m419.519531 327.6875h-387.039062c-17.910157 0-32.480469-14.570312-32.480469-32.480469v-138.039062c0-17.910157 14.570312-32.480469 32.480469-32.480469h282.773437c1.65625 0 3 1.339844 3 3 0 1.65625-1.34375 3-3 3h-282.773437c-14.601563 0-26.480469 11.875-26.480469 26.480469v138.039062c0 14.597657 11.878906 26.480469 26.480469 26.480469h387.039062c14.601563 0 26.480469-11.878906 26.480469-26.480469v-138.039062c0-14.605469-11.878906-26.480469-26.480469-26.480469h-77.441406c-1.65625 0-3-1.34375-3-3 0-1.660156 1.34375-3 3-3h77.441406c17.910157 0 32.476563 14.570312 32.476563 32.480469v138.039062c.003906 17.910157-14.566406 32.480469-32.476563 32.480469zm0 0" fill="#3a312a"/><path d="m87.757812 276.707031h-34.949218c-8.730469 0-15.808594 7.078125-15.808594 15.808594v32.171875h378v-32.171875c0-8.730469-7.078125-15.808594-15.808594-15.808594zm0 0" fill="#d7e057"/><path d="m415 327.6875h-378c-1.65625 0-3-1.34375-3-3v-32.171875c0-10.371094 8.4375-18.808594 18.808594-18.808594h34.949218c1.65625 0 3 1.339844 3 3 0 1.65625-1.34375 3-3 3h-34.949218c-7.0625 0-12.808594 5.746094-12.808594 12.808594v29.171875h372v-29.171875c0-7.0625-5.746094-12.808594-12.808594-12.808594h-284.28125c-1.65625 0-3-1.34375-3-3 0-1.660156 1.34375-3 3-3h284.285156c10.367188 0 18.808594 8.4375 18.808594 18.808594v32.171875c-.003906 1.65625-1.347656 3-3.003906 3zm0 0" fill="#3a312a"/><path d="m37 302.6875h378v22h-378zm0 0" fill="#87796f"/><path d="m415 327.6875h-378c-1.65625 0-3-1.34375-3-3v-22c0-1.660156 1.34375-3 3-3h378c1.65625 0 3 1.339844 3 3v22c0 1.65625-1.34375 3-3 3zm-375-6h372v-16h-372zm0 0" fill="#3a312a"/><path d="m65.34375 22.855469s6.8125 25.316406 26.441406 26.492187c0 0-26.199218 9.046875-26.640625 28.402344 0 0-5.160156-27.144531-25.851562-28.117188 0 0 24.101562-3.652343 26.050781-26.777343zm0 0" fill="#d7e057"/><path d="m65.140625 80.75c-1.425781 0-2.667969-1.011719-2.941406-2.433594-.050781-.25-4.992188-24.835937-23.046875-25.683594-1.539063-.074218-2.773438-1.300781-2.855469-2.84375-.078125-1.539062 1.023437-2.890624 2.550781-3.121093.878906-.136719 21.785156-3.632813 23.507813-24.066407.121093-1.449218 1.269531-2.601562 2.71875-2.734374 1.46875-.113282 2.785156.800781 3.164062 2.203124.066407.234376 6.519531 23.253907 23.726563 24.285157 1.429687.085937 2.597656 1.167969 2.792968 2.585937.195313 1.414063-.636718 2.773438-1.988281 3.242188-.242187.085937-24.234375 8.621094-24.625 25.636718-.035156 1.535157-1.21875 2.792969-2.75 2.917969-.085937.007813-.171875.011719-.253906.011719zm-15.480469-31.457031c7.753906 3.9375 12.460938 11.492187 15.175782 17.753906 4.050781-8.042969 11.878906-13.574219 17.894531-16.855469-8.269531-3.683594-13.566407-11.300781-16.667969-17.445312-3.585938 8.71875-10.542969 13.734375-16.402344 16.546875zm0 0" fill="#3a312a"/><path d="m21.945312 56.8125s4.820313 17.910156 18.703126 18.738281c0 0-18.53125 6.402344-18.84375 20.09375 0 0-3.648438-19.199219-18.285157-19.886719 0 0 17.046875-2.582031 18.425781-18.945312zm0 0" fill="#d7e057"/><path d="m21.800781 98.644531c-1.425781 0-2.671875-1.015625-2.941406-2.441406-.035156-.164063-3.410156-16.882813-15.480469-17.449219-1.539062-.074218-2.773437-1.304687-2.855468-2.84375-.078126-1.542968 1.023437-2.890625 2.546874-3.121094.59375-.09375 14.730469-2.488281 15.886719-16.230468.121094-1.449219 1.269531-2.605469 2.71875-2.734375 1.457031-.132813 2.785157.796875 3.164063 2.203125.042968.160156 4.457031 15.839844 15.988281 16.53125 1.429687.085937 2.597656 1.167968 2.792969 2.585937.195312 1.417969-.640625 2.777344-1.992188 3.242188-.164062.058593-16.566406 5.90625-16.824218 17.324219-.035157 1.535156-1.222657 2.796874-2.753907 2.921874-.082031.007813-.167969.011719-.25.011719zm-9.035156-23.054687c4.210937 2.667968 7.046875 6.789062 8.894531 10.558594 2.75-4.464844 7.03125-7.742188 10.726563-9.945313-4.574219-2.539063-7.765625-6.699219-9.878907-10.445313-2.351562 4.574219-6.03125 7.75-9.742187 9.832032zm0 0" fill="#3a312a"/><path d="m21.945312 3.5s4.820313 17.90625 18.703126 18.738281c0 0-18.53125 6.402344-18.84375 20.089844 0 0-3.648438-19.199219-18.285157-19.886719 0 0 17.046875-2.582031 18.425781-18.941406zm0 0" fill="#d7e057"/><path d="m21.800781 45.332031c-1.425781 0-2.671875-1.015625-2.945312-2.441406-.03125-.164063-3.40625-16.882813-15.476563-17.453125-1.542968-.074219-2.777344-1.300781-2.855468-2.839844-.078126-1.542968 1.019531-2.890625 2.546874-3.121094.589844-.09375 14.726563-2.488281 15.882813-16.226562.121094-1.453125 1.269531-2.609375 2.722656-2.738281 1.453125-.136719 2.78125.796875 3.164063 2.203125.039062.160156 4.453125 15.839844 15.984375 16.53125 1.429687.085937 2.601562 1.167968 2.792969 2.585937.195312 1.417969-.640626 2.777344-1.992188 3.242188-.160156.058593-16.5625 5.90625-16.824219 17.324219-.035156 1.535156-1.222656 2.796874-2.75 2.921874-.082031.007813-.167969.011719-.25.011719zm-9.035156-23.058593c4.210937 2.667968 7.042969 6.789062 8.890625 10.5625 2.753906-4.464844 7.03125-7.746094 10.730469-9.945313-4.574219-2.539063-7.769531-6.699219-9.882813-10.449219-2.347656 4.574219-6.027344 7.75-9.738281 9.832032zm0 0" fill="#3a312a"/><path d="m97 327.6875c-1.65625 0-3-1.34375-3-3v-22c0-1.660156 1.34375-3 3-3s3 1.339844 3 3v22c0 1.65625-1.34375 3-3 3zm0 0" fill="#3a312a"/><path d="m161.5 327.6875c-1.65625 0-3-1.34375-3-3v-22c0-1.660156 1.34375-3 3-3s3 1.339844 3 3v22c0 1.65625-1.34375 3-3 3zm0 0" fill="#3a312a"/><path d="m226 327.6875c-1.65625 0-3-1.34375-3-3v-22c0-1.660156 1.34375-3 3-3s3 1.339844 3 3v22c0 1.65625-1.34375 3-3 3zm0 0" fill="#3a312a"/><path d="m290.5 327.6875c-1.65625 0-3-1.34375-3-3v-22c0-1.660156 1.34375-3 3-3s3 1.339844 3 3v22c0 1.65625-1.34375 3-3 3zm0 0" fill="#3a312a"/><path d="m355 327.6875c-1.65625 0-3-1.34375-3-3v-22c0-1.660156 1.34375-3 3-3s3 1.339844 3 3v22c0 1.65625-1.34375 3-3 3zm0 0" fill="#3a312a"/><path d="m265.707031 235.1875h-79.414062c-3.84375 0-6.957031-3.117188-6.957031-6.960938v-12.082031c0-3.84375 3.113281-6.957031 6.957031-6.957031h79.414062c3.84375 0 6.957031 3.113281 6.957031 6.957031v12.082031c0 3.84375-3.113281 6.960938-6.957031 6.960938zm0 0" fill="#f16c7a"/><path d="m265.707031 238.1875h-79.414062c-5.492188 0-9.960938-4.46875-9.960938-9.960938v-12.082031c0-5.492187 4.46875-9.957031 9.960938-9.957031h79.414062c5.492188 0 9.957031 4.464844 9.957031 9.957031v12.082031c0 5.492188-4.464843 9.960938-9.957031 9.960938zm-79.414062-26c-2.183594 0-3.960938 1.777344-3.960938 3.957031v12.082031c0 2.183594 1.777344 3.960938 3.960938 3.960938h79.414062c2.183594 0 3.957031-1.777344 3.957031-3.960938v-12.082031c0-2.183593-1.777343-3.957031-3.957031-3.957031zm0 0" fill="#3a312a"/><path d="m419.519531 130.6875h-30c14.601563 0 26.480469 11.878906 26.480469 26.480469v126.9375c1.28125 2.519531 2 5.378906 2 8.402343v29.179688h1.519531c14.601563 0 26.480469-11.882812 26.480469-26.480469v-138.039062c0-14.601563-11.878906-26.480469-26.480469-26.480469zm0 0" fill="#6ca8bf"/><g fill="#3a312a"><path d="m51.570312 426.351562c-.855468 0-1.707031-.367187-2.300781-1.074218-1.0625-1.273438-.894531-3.164063.375-4.226563 5.078125-4.246093 7.898438-9.867187 7.945313-15.835937.039062-5.941406-2.679688-11.578125-7.664063-15.863282l-.941406-.8125c-6.3125-5.429687-9.777344-12.664062-9.75-20.367187.03125-7.710937 3.550781-14.933594 9.917969-20.332031l.148437-.125c1.257813-1.074219 3.152344-.925782 4.230469.332031 1.074219 1.261719.925781 3.15625-.335938 4.230469l-.152343.128906c-5.015625 4.257812-7.785157 9.859375-7.808594 15.789062-.019531 5.917969 2.699219 11.527344 7.660156 15.796876l.945313.808593c6.339844 5.460938 9.800781 12.722657 9.746094 20.460938-.054688 7.757812-3.640626 15-10.09375 20.390625-.558594.472656-1.242188.699218-1.921876.699218zm0 0"/><path d="m109.765625 426.351562c-.859375 0-1.710937-.367187-2.304687-1.074218-1.0625-1.273438-.894532-3.164063.378906-4.226563 5.078125-4.246093 7.898437-9.867187 7.941406-15.835937.042969-5.941406-2.675781-11.578125-7.660156-15.863282l-.941406-.8125c-6.3125-5.429687-9.777344-12.664062-9.746094-20.367187.027344-7.714844 3.546875-14.9375 9.917968-20.335937l.136719-.117188c1.253907-1.082031 3.152344-.9375 4.230469.320312 1.078125 1.253907.933594 3.152344-.320312 4.230469l-.152344.128907c-5.023438 4.257812-7.792969 9.863281-7.8125 15.792968-.023438 5.917969 2.699218 11.527344 7.660156 15.796875l.941406.808594c6.34375 5.460937 9.804688 12.722656 9.746094 20.460937-.054688 7.757813-3.640625 15-10.09375 20.390626-.5625.476562-1.242188.703124-1.921875.703124zm0 0"/><path d="m167.960938 426.351562c-.855469 0-1.707032-.367187-2.304688-1.074218-1.058594-1.273438-.890625-3.164063.378906-4.226563 5.078125-4.246093 7.898438-9.867187 7.941406-15.835937.042969-5.941406-2.675781-11.578125-7.660156-15.863282l-.941406-.8125c-6.3125-5.429687-9.773438-12.664062-9.746094-20.367187.027344-7.710937 3.550782-14.933594 9.917969-20.332031l.144531-.125c1.257813-1.074219 3.152344-.925782 4.230469.332031 1.074219 1.261719.925781 3.15625-.335937 4.230469l-.152344.128906c-5.015625 4.257812-7.785156 9.859375-7.808594 15.789062-.019531 5.917969 2.699219 11.527344 7.660156 15.796876l.941406.808593c6.34375 5.460938 9.804688 12.722657 9.75 20.460938-.054687 7.757812-3.640624 15-10.09375 20.390625-.558593.472656-1.242187.699218-1.921874.699218zm0 0"/><path d="m226.160156 426.351562c-.859375 0-1.710937-.367187-2.304687-1.074218-1.0625-1.273438-.894531-3.164063.378906-4.226563 5.078125-4.246093 7.898437-9.867187 7.941406-15.835937.042969-5.941406-2.675781-11.578125-7.660156-15.863282l-.941406-.8125c-6.3125-5.433593-9.777344-12.667968-9.75-20.367187.03125-7.714844 3.550781-14.9375 9.917969-20.335937l.148437-.125c1.257813-1.074219 3.152344-.921876 4.230469.335937 1.074218 1.257813.925781 3.152344-.335938 4.230469l-.152344.128906c-5.015624 4.253906-7.785156 9.855469-7.808593 15.785156-.019531 5.921875 2.699219 11.53125 7.660156 15.796875l.945313.8125c6.339843 5.457031 9.800781 12.722657 9.746093 20.457031-.054687 7.757813-3.640625 15.003907-10.09375 20.390626-.5625.476562-1.246093.703124-1.921875.703124zm0 0"/><path d="m284.355469 426.351562c-.859375 0-1.710938-.367187-2.304688-1.074218-1.0625-1.273438-.894531-3.164063.378907-4.226563 5.078124-4.246093 7.894531-9.867187 7.941406-15.835937.042968-5.941406-2.675782-11.578125-7.660156-15.863282l-.941407-.808593c-6.316406-5.433594-9.777343-12.667969-9.75-20.367188.027344-7.714843 3.550781-14.9375 9.917969-20.335937l.148438-.125c1.257812-1.074219 3.152343-.921875 4.226562.335937 1.078125 1.257813.925781 3.152344-.332031 4.230469l-.15625.128906c-5.011719 4.253906-7.78125 9.855469-7.804688 15.785156-.023437 5.921876 2.699219 11.53125 7.660157 15.796876l.941406.8125c6.34375 5.457031 9.804687 12.722656 9.75 20.457031-.058594 7.757812-3.640625 15.003906-10.09375 20.394531-.5625.46875-1.246094.695312-1.921875.695312zm0 0"/><path d="m342.550781 426.351562c-.859375 0-1.710937-.367187-2.304687-1.074218-1.0625-1.273438-.894532-3.164063.378906-4.226563 5.078125-4.246093 7.898438-9.867187 7.941406-15.835937.042969-5.941406-2.675781-11.578125-7.660156-15.863282l-.941406-.8125c-6.316406-5.429687-9.777344-12.664062-9.75-20.367187.027344-7.710937 3.550781-14.933594 9.921875-20.332031l.136719-.121094c1.257812-1.078125 3.152343-.933594 4.230468.320312 1.082032 1.257813.9375 3.152344-.320312 4.230469l-.152344.128907c-5.023438 4.261718-7.792969 9.867187-7.8125 15.792968-.023438 5.917969 2.699219 11.53125 7.660156 15.796875l.941406.8125c6.34375 5.457031 9.804688 12.722657 9.75 20.457031-.054687 7.757813-3.640624 15.003907-10.09375 20.390626-.566406.476562-1.25.703124-1.925781.703124zm0 0"/><path d="m400.746094 426.351562c-.855469 0-1.707032-.367187-2.300782-1.074218-1.0625-1.273438-.894531-3.164063.375-4.226563 5.078126-4.246093 7.898438-9.867187 7.945313-15.835937.039063-5.941406-2.675781-11.578125-7.660156-15.863282l-.945313-.8125c-6.3125-5.433593-9.773437-12.667968-9.746094-20.367187.027344-7.714844 3.550782-14.9375 9.917969-20.335937l.144531-.125c1.261719-1.074219 3.15625-.921876 4.230469.335937 1.078125 1.257813.925781 3.152344-.332031 4.230469l-.15625.128906c-5.011719 4.253906-7.78125 9.855469-7.804688 15.785156-.023437 5.921875 2.699219 11.53125 7.660157 15.796875l.941406.8125c6.34375 5.457031 9.804687 12.722657 9.75 20.457031-.058594 7.757813-3.644531 15.003907-10.09375 20.390626-.5625.476562-1.246094.703124-1.925781.703124zm0 0"/></g></svg>