<?xml version="1.0" encoding="iso-8859-1"?>
<!-- Generator: Adobe Illustrator 19.0.0, SVG Export Plug-In . SVG Version: 6.00 Build 0)  -->
<svg version="1.1" id="Capa_1" xmlns="http://www.w3.org/2000/svg" xmlns:xlink="http://www.w3.org/1999/xlink" x="0px" y="0px"
	 viewBox="0 0 512 512" style="enable-background:new 0 0 512 512;" xml:space="preserve">
<g>
	<path style="fill:#FFE100;" d="M503.467,256c0,136.67-110.797,247.467-247.467,247.467S8.533,392.67,8.533,256
		S119.33,8.533,256,8.533S503.467,119.33,503.467,256"/>
	<path style="fill:#FFA800;" d="M256,8.533c-4.292,0-8.559,0.111-12.8,0.324C373.922,15.522,477.867,123.622,477.867,256
		S373.922,496.478,243.2,503.142c4.241,0.213,8.508,0.324,12.8,0.324c136.67,0,247.467-110.797,247.467-247.467
		S392.67,8.533,256,8.533"/>
	<path style="fill:#FFFFFF;" d="M256,8.533c4.292,0,8.559,0.111,12.8,0.324C138.078,15.522,34.133,123.622,34.133,256
		S138.078,496.478,268.8,503.142c-4.241,0.213-8.508,0.324-12.8,0.324C119.33,503.467,8.533,392.67,8.533,256
		S119.33,8.533,256,8.533"/>
	<path style="fill:#00DA6C;" d="M218.222,327.735l-49.161-56.183c-6.212-7.091-5.487-17.877,1.604-24.081l0,0
		c7.1-6.212,17.877-5.487,24.081,1.604l35.652,41.062l112.444-126.583c6.263-7.049,17.05-7.68,24.09-1.417l0,0
		c7.049,6.255,7.68,17.041,1.417,24.09L242.482,327.828C236.014,335.107,224.631,335.065,218.222,327.735"/>
	<g>
		<path d="M181.908,251.779c-1.997,0-4.002,0.691-5.623,2.108c-1.715,1.502-2.739,3.584-2.893,5.854
			c-0.154,2.278,0.589,4.48,2.091,6.187l49.161,56.183c1.468,1.673,3.499,2.603,5.717,2.611c2.108-0.358,4.267-0.896,5.743-2.56
			L361.97,180.552c1.519-1.698,2.278-3.891,2.142-6.161c-0.137-2.278-1.143-4.369-2.85-5.879c-1.698-1.51-3.831-2.338-6.17-2.142
			c-2.27,0.137-4.361,1.143-5.871,2.85L236.778,295.803c-1.63,1.835-3.755,3.055-6.426,2.867c-2.458-0.017-4.787-1.084-6.391-2.944
			l-35.652-41.062C186.636,252.761,184.281,251.779,181.908,251.779 M230.395,341.789h-0.102
			c-7.083-0.026-13.824-3.098-18.492-8.431l-49.161-56.183c-4.506-5.154-6.733-11.742-6.281-18.569
			c0.461-6.827,3.541-13.056,8.687-17.562c10.633-9.293,26.829-8.218,36.122,2.406l29.303,33.749l105.993-119.313
			c9.37-10.564,25.583-11.511,36.139-2.133c5.112,4.548,8.149,10.803,8.55,17.63c0.401,6.827-1.886,13.397-6.426,18.509
			L248.861,333.503C244.176,338.768,237.443,341.789,230.395,341.789"/>
		<path d="M256,17.067C124.254,17.067,17.067,124.254,17.067,256S124.254,494.933,256,494.933S494.933,387.746,494.933,256
			S387.746,17.067,256,17.067 M256,512C114.842,512,0,397.158,0,256S114.842,0,256,0s256,114.842,256,256S397.158,512,256,512"/>
		<path d="M207.98,74.354c-3.806,0-7.279-2.56-8.26-6.417c-1.169-4.574,1.587-9.225,6.153-10.385
			c16.461-4.198,33.323-6.34,50.116-6.349h0.009c4.71,0,8.533,3.814,8.533,8.525c0.009,4.71-3.806,8.533-8.525,8.542
			c-15.377,0.009-30.822,1.971-45.909,5.82C209.388,74.269,208.679,74.354,207.98,74.354"/>
		<path d="M81.45,174.688c-1.314,0-2.654-0.307-3.9-0.947c-4.19-2.159-5.837-7.305-3.678-11.494
			c20.105-39.04,53.333-71.228,93.559-90.641c4.241-2.039,9.353-0.265,11.401,3.985c2.039,4.241,0.265,9.344-3.985,11.392
			c-36.907,17.809-67.388,47.309-85.803,83.081C87.526,172.998,84.547,174.688,81.45,174.688"/>
		<path d="M59.733,264.533L59.733,264.533c-4.719,0-8.533-3.823-8.533-8.533c0.009-18.697,2.534-37.239,7.501-55.108
			c1.263-4.54,5.973-7.185,10.513-5.931c4.54,1.263,7.194,5.965,5.931,10.505c-4.557,16.384-6.869,33.382-6.878,50.534
			C68.267,260.719,64.444,264.533,59.733,264.533"/>
		<path d="M256,460.8c-4.71,0-8.533-3.814-8.533-8.533c0-4.71,3.814-8.533,8.533-8.533c16.427-0.009,32.87-2.236,48.87-6.613
			c4.506-1.254,9.233,1.434,10.479,5.982c1.246,4.54-1.434,9.233-5.982,10.479C291.908,458.359,273.954,460.792,256,460.8z"/>
		<path d="M346.7,438.275c-3.072,0-6.042-1.664-7.569-4.574c-2.185-4.173-0.58-9.327,3.601-11.52
			c36.693-19.243,66.372-50.15,83.558-87.04c1.988-4.275,7.074-6.135,11.341-4.13c4.267,1.988,6.118,7.057,4.13,11.332
			c-18.756,40.269-51.115,73.984-91.11,94.959C349.388,437.96,348.031,438.275,346.7,438.275"/>
		<path d="M447.092,309.538c-0.649,0-1.297-0.068-1.954-0.222c-4.591-1.084-7.441-5.675-6.366-10.266
			c3.285-13.961,4.949-28.45,4.958-43.059c0.009-4.71,3.831-8.525,8.533-8.525h0.009c4.719,0.009,8.533,3.831,8.525,8.542
			c-0.009,15.915-1.826,31.71-5.402,46.95C454.465,306.884,450.966,309.538,447.092,309.538"/>
	</g>
</g>
<g>
</g>
<g>
</g>
<g>
</g>
<g>
</g>
<g>
</g>
<g>
</g>
<g>
</g>
<g>
</g>
<g>
</g>
<g>
</g>
<g>
</g>
<g>
</g>
<g>
</g>
<g>
</g>
<g>
</g>
</svg>
