<svg id="filled_outline" height="512" viewBox="0 0 512 512" width="512" xmlns="http://www.w3.org/2000/svg" data-name="filled outline"><path d="m120 232 85.993-42.99648a47.39406 47.39406 0 0 0 16.72-13.9541 47.39406 47.39406 0 0 1 45.70677-18.31277l9.04157 1.50693a47.394 47.394 0 0 0 20.81168-1.17869l23.098-6.59944a47.39406 47.39406 0 0 1 41.45658 7.65528l.534.40049a47.394 47.394 0 0 0 28.4364 9.47878h19.07459a47.39408 47.39408 0 0 1 24.384 6.754l5.73334 3.44a47.39407 47.39407 0 0 1 23.01007 40.64005v13.16595z" fill="#d1e4ff"/><path d="m216 488h216l32-208h-248z" fill="#6173e8"/><path d="m176 232h312v48h-312z" fill="#8899f7"/><path d="m256 24h-144l-80 48v32h224z" fill="#ffc431"/><path d="m120 168h-56v-64h72v40z" fill="#ffa100"/><path d="m136 104h40v40h-40z" fill="#ffb401"/><path d="m296 88h-40v-48h40l16 16v16z" fill="#ffb401"/><path d="m64 168-40 56v264h192v-240l-96-80z" fill="#ffc431"/><path d="m24 296h192v128h-192z" fill="#ffb401"/><path d="m424 384h64v32h-64z" fill="#8899f7"/><path d="m24 496h408a8.00063 8.00063 0 0 0 7.90723-6.78369l10.03344-65.21631h38.05933a8.00008 8.00008 0 0 0 8-8v-32a8.00008 8.00008 0 0 0 -8-8h-30.6748l13.53833-88h17.13647a8.00008 8.00008 0 0 0 8-8v-48a8.00008 8.00008 0 0 0 -8-8h-16v-5.166a55.67287 55.67287 0 0 0 -26.89355-47.5l-5.7334-3.43994a55.40812 55.40812 0 0 0 -28.5-7.894h-19.0752a39.64472 39.64472 0 0 1 -23.63867-7.88037l-.53223-.39893a55.69787 55.69787 0 0 0 -48.4541-8.94775l-23.09668 6.59961a39.6608 39.6608 0 0 1 -17.2998.98l-9.041-1.50684a55.20845 55.20845 0 0 0 -53.42189 21.40322 39.60221 39.60221 0 0 1 -13.89848 11.59914l-33.313 16.65656-38.4582-32.04846 9.63745-14.45624h35.71875a8.00008 8.00008 0 0 0 8-8v-32h72a8.00008 8.00008 0 0 0 8-8v-8h32a8.00076 8.00076 0 0 0 5.65723-2.34326l16-16a8.00035 8.00035 0 0 0 2.34277-5.65674v-16a8.00035 8.00035 0 0 0 -2.34277-5.65674l-16-16a8.00076 8.00076 0 0 0 -5.65723-2.34326h-32v-8a8.00008 8.00008 0 0 0 -8-8h-144a7.99883 7.99883 0 0 0 -4.11621 1.14014l-80 48a8.00072 8.00072 0 0 0 -3.88379 6.85986v32a8.00008 8.00008 0 0 0 8 8h24v53.4364l-38.50977 53.9137a8.003 8.003 0 0 0 -1.49023 4.6499v264a8.00008 8.00008 0 0 0 8 8zm8-16v-48h176v48zm0-176h176v112h-176zm393.13672 176h-201.13672v-192h60.686l106.34427 106.34375a46.27907 46.27907 0 0 0 24.96973 12.96265v8.6936a8.00008 8.00008 0 0 0 8 8h9.752zm54.86328-72h-48v-16h48zm-38.86353-32h-17.13647a8.00008 8.00008 0 0 0 -8 8v6.94165a30.44192 30.44192 0 0 1 -13.65625-7.91186l-95.02975-95.02979h147.3608zm38.86353-104h-188.686l-21.65673-21.65674a8.00018 8.00018 0 0 0 -11.31446 11.31348l10.34319 10.34326h-44.686v-24a8.00036 8.00036 0 0 0 -2.87891-6.146l-2.22485-1.854h261.10376zm-270.42871-75.84131a55.679 55.679 0 0 0 19.542-16.30957 39.26553 39.26553 0 0 1 37.99121-15.22119l9.042 1.50684a55.73613 55.73613 0 0 0 24.3252-1.37745l23.09668-6.59961a39.61536 39.61536 0 0 1 34.46092 6.36429l.53222.39893a55.74228 55.74228 0 0 0 33.23633 11.07907h19.0752a39.4051 39.4051 0 0 1 20.26757 5.61377l5.7334 3.43994a39.59231 39.59231 0 0 1 19.12598 33.78029v5.166h-256.30371l-17.17774-14.31488zm-41.57129-60.15869h-24v-24h24zm124.68652-88 11.31348 11.31348v9.373l-11.31348 11.31352h-28.68652v-32zm-252.68652 28.5293 74.21582-44.5293h133.78418v64h-208zm88 35.4707v29.57764l-12.28125 18.42236h-43.71875v-48zm-59.8833 64h48.98706l90.89624 75.74707v36.25293h-176v-61.43652z"/><path d="m224 200h16v16h-16z"/><path d="m256 184h16v16h-16z"/><path d="m304 184h16v16h-16z"/><path d="m344 176h16v16h-16z"/><path d="m360 200h16v16h-16z"/><path d="m400 184h16v16h-16z"/></svg>