<?xml version="1.0" encoding="iso-8859-1"?>
<!-- Generator: Adobe Illustrator 19.0.0, SVG Export Plug-In . SVG Version: 6.00 Build 0)  -->
<svg version="1.1" id="Capa_1" xmlns="http://www.w3.org/2000/svg" xmlns:xlink="http://www.w3.org/1999/xlink" x="0px" y="0px"
	 viewBox="0 0 421 421" style="enable-background:new 0 0 421 421;" xml:space="preserve">
<path style="fill:#ED664C;" d="M210.5,10C321.2,10,411,99.8,411,210.5S321.2,411,210.5,411S10,321.2,10,210.5S99.8,10,210.5,10z
	 M361.8,210.5c0-83.6-67.7-151.3-151.3-151.3S59.2,126.9,59.2,210.5s67.7,151.3,151.3,151.3S361.8,294.1,361.8,210.5z"/>
<circle style="fill:#FDC75B;" cx="210.5" cy="210.5" r="151.3"/>
<path d="M210.5,49.2c-88.9,0-161.3,72.4-161.3,161.3s72.4,161.3,161.3,161.3s161.3-72.4,161.3-161.3S299.4,49.2,210.5,49.2z
	 M210.5,351.8c-77.9,0-141.3-63.4-141.3-141.3S132.6,69.2,210.5,69.2s141.3,63.4,141.3,141.3S288.4,351.8,210.5,351.8z"/>
<path d="M269.4,213.5h-56.9v-78.7c0-5.5-4.5-10-10-10s-10,4.5-10,10v88.3c0,5.5,4.1,10.4,9.6,10.4h67.3c5.5,0,10-4.5,10-10
	S274.9,213.5,269.4,213.5z"/>
<path d="M359.3,61.7C319.6,21.9,266.7,0,210.5,0S101.4,21.9,61.7,61.7S0,154.3,0,210.5s21.9,109.1,61.7,148.8S154.3,421,210.5,421
	s109.1-21.9,148.8-61.7S421,266.7,421,210.5S399.1,101.4,359.3,61.7z M210.5,401C105.5,401,20,315.5,20,210.5S105.5,20,210.5,20
	S401,105.5,401,210.5S315.5,401,210.5,401z"/>
<g>
</g>
<g>
</g>
<g>
</g>
<g>
</g>
<g>
</g>
<g>
</g>
<g>
</g>
<g>
</g>
<g>
</g>
<g>
</g>
<g>
</g>
<g>
</g>
<g>
</g>
<g>
</g>
<g>
</g>
</svg>
