<?xml version="1.0" encoding="iso-8859-1"?>
<!-- Generator: Adobe Illustrator 19.0.0, SVG Export Plug-In . SVG Version: 6.00 Build 0)  -->
<svg version="1.1" id="Capa_1" xmlns="http://www.w3.org/2000/svg" xmlns:xlink="http://www.w3.org/1999/xlink" x="0px" y="0px"
	 viewBox="0 0 512 512" style="enable-background:new 0 0 512 512;" xml:space="preserve">
<g>
	<g transform="translate(1 1)">
		<path style="fill:#607D8B;" d="M203.8,220.867v8.704c-0.008,4.615-3.747,8.355-8.363,8.363
			c-15.253-0.027-28.669,10.078-32.853,24.747l-0.341,1.195c0,0-16.555,9.387-18.176-0.341c-1.447-8.685-9.942-70.4-8.533-76.8
			c7.168-32.939,76.8-34.133,76.8-34.133v17.067C186.733,186.733,203.8,220.867,203.8,220.867z"/>
		<g>
			<path style="fill:#9E9E9E;" d="M451.267,84.333V101.4c-0.014,4.707-3.826,8.519-8.533,8.533h-42.667V75.8h42.667
				C447.44,75.814,451.253,79.626,451.267,84.333L451.267,84.333z"/>
			<path style="fill:#9E9E9E;" d="M417.133,76.483v32.768c0.186,4.375-2.628,8.315-6.827,9.557L374.467,127H357.4V58.733h17.067
				l35.84,8.192C414.505,68.168,417.319,72.108,417.133,76.483z"/>
		</g>
		<g>
			<path style="fill:#607D8B;" d="M374.467,58.733V127c-0.028,9.414-7.653,17.039-17.067,17.067h-68.267v-102.4H357.4
				C366.814,41.694,374.439,49.319,374.467,58.733z"/>
			<path style="fill:#607D8B;" d="M306.2,50.2v85.333c-0.028,9.414-7.653,17.039-17.067,17.067h-25.6
				c-4.707-0.014-8.519-3.826-8.533-8.533l-17.067,8.533V33.133L255,41.668v-0.001c-0.023-2.27,0.869-4.454,2.474-6.059
				s3.789-2.497,6.059-2.474h25.6C298.548,33.161,306.173,40.786,306.2,50.2z"/>
		</g>
		<path style="fill:#FDD834;" d="M257.475,35.608c-1.586,1.618-2.474,3.793-2.475,6.059V152.6
			c-0.028,9.414-7.653,17.039-17.067,17.067h-42.667c0,0-38.656,4.267-45.824,37.205c-2.987,13.568-0.683,31.829,11.691,56.661
			l1.109,0.341l-25.856,90.539c-0.587,1.994-0.875,4.065-0.853,6.144c0.015,12.389,10.054,22.428,22.443,22.443l37.291,8.533
			l-153.6,8.533V383l12.032-12.032c3.221-3.21,5.033-7.57,5.035-12.117v-35.584c0.894-39.133,7.182-77.956,18.688-115.371
			c0.337-1.176,0.594-2.373,0.768-3.584c1.628-11.319-4.475-22.339-14.933-26.965l-40.533-18.005
			c-9.242-4.104-15.196-13.269-15.189-23.381V50.2c-0.009-6.792,2.685-13.309,7.488-18.112s11.32-7.497,18.112-7.488h57.685
			c6.785-0.02,13.287-2.719,18.091-7.509l2.048-2.048c4.804-4.791,11.306-7.49,18.091-7.509h76.203
			c4.633,0.004,9.177,1.272,13.141,3.669L255,33.133L257.475,35.608z"/>
		<path style="fill:#37474F;" d="M289.133,448.195v28.075c0.019,5.7-2.836,11.027-7.595,14.165l-13.739,9.131
			c-2.793,1.899-6.095,2.91-9.472,2.901H67.267c-9.053,0.002-17.737-3.593-24.139-9.995c-6.402-6.402-9.997-15.085-9.995-24.139
			v-69.717c0.002-4.548,1.814-8.907,5.035-12.117L41.667,383h174.08c19.277-0.012,37.368,9.304,48.555,25.003l21.675,30.293
			C288.031,441.188,289.135,444.647,289.133,448.195L289.133,448.195z"/>
		<path style="fill:#FDD834;" d="M289.133,448.195V459.8h-256v-61.184c0.002-4.548,1.814-8.907,5.035-12.117L41.667,383h174.08
			c19.277-0.012,37.368,9.304,48.555,25.003l21.675,30.293C288.031,441.188,289.135,444.647,289.133,448.195L289.133,448.195z"/>
		<path style="fill:#FFEB3A;" d="M231.875,35.608c-1.586,1.618-2.474,3.793-2.475,6.059V152.6
			c-0.028,9.414-7.653,17.039-17.067,17.067h-42.667c0,0-38.656,4.267-45.824,37.205c-2.987,13.568-0.683,31.829,11.691,56.661
			l1.109,0.341l-25.856,90.539c-0.587,1.994-0.875,4.065-0.853,6.144c0.015,12.389,10.054,22.428,22.443,22.443l37.291,8.533
			l-128,7.083V383l12.032-12.032c3.221-3.21,5.033-7.57,5.035-12.117v-35.584c0.894-39.133,7.182-77.956,18.688-115.371
			c0.337-1.176,0.594-2.373,0.768-3.584c1.628-11.319-4.475-22.339-14.933-26.965l-40.533-18.005
			c-9.242-4.104-15.196-13.269-15.189-23.381V50.2c-0.009-6.792,2.685-13.309,7.488-18.112s11.32-7.497,18.112-7.488h57.685
			c6.785-0.02,13.287-2.719,18.091-7.509l2.048-2.048c4.804-4.791,11.306-7.49,18.091-7.509h50.603
			c4.633,0.004,9.177,1.272,13.141,3.669L229.4,33.133L231.875,35.608z"/>
		<path style="fill:#37474F;" d="M263.533,459.796v16.473c0.097,5.539-2.439,10.795-6.835,14.165l-12.365,9.131
			c-2.446,1.876-5.442,2.895-8.525,2.901H63.853c-17.888-0.986-31.617-16.241-30.72-34.133v-8.531L263.533,459.796z"/>
		<path style="fill:#FFEB3A;" d="M33.133,459.802v-61.186c-0.031-4.459,1.582-8.773,4.531-12.117L40.813,383h156.672
			c17.889,0.293,34.381,9.729,43.699,25.003l19.507,30.293c1.87,2.962,2.856,6.396,2.842,9.899v11.601L33.133,459.802z"/>
		<path style="fill:#FF5722;" d="M75.8,58.733H50.2c-4.713,0-8.533,3.821-8.533,8.533v45.423c0,3.489,2.124,6.627,5.364,7.923
			l25.6,10.24c2.629,1.052,5.609,0.731,7.953-0.857c2.345-1.587,3.749-4.235,3.749-7.066V67.267
			C84.333,62.554,80.513,58.733,75.8,58.733z"/>
	</g>
	<g>
		<path d="M358.4,153.6h-51.2c-4.713,0-8.533-3.821-8.533-8.533v-102.4c0-4.713,3.821-8.533,8.533-8.533h51.2
			c14.132,0.015,25.585,11.468,25.6,25.6V128C383.985,142.132,372.532,153.585,358.4,153.6z M315.733,136.533H358.4
			c4.71-0.006,8.527-3.823,8.533-8.533V59.733c-0.006-4.71-3.823-8.527-8.533-8.533h-42.667V136.533z"/>
		<path d="M375.467,136.533c-4.713-0.001-8.533-3.821-8.533-8.533V59.733c0.001-2.597,1.183-5.053,3.214-6.672
			c2.03-1.619,4.688-2.226,7.22-1.649l35.808,8.183c8.083,2.137,13.656,9.524,13.492,17.883v32.775
			c0.166,8.357-5.406,15.743-13.488,17.879l-35.813,8.187C376.743,136.462,376.106,136.533,375.467,136.533z M384,70.425v46.871
			l25.375-5.8c0.125-0.403,0.2-0.82,0.225-1.242V77.479c0.033-0.484-0.126-0.961-0.442-1.329L384,70.425z"/>
		<path d="M443.733,119.467h-25.6c-4.713,0-8.533-3.821-8.533-8.533V76.8c0-4.713,3.82-8.533,8.533-8.533h25.6
			c9.422,0.009,17.057,7.645,17.067,17.067V102.4C460.791,111.822,453.155,119.457,443.733,119.467L443.733,119.467z M426.667,102.4
			h17.079l-0.012-17.067h-17.067V102.4z"/>
		<path d="M290.133,162.133h-25.6c-9.422-0.009-17.057-7.645-17.067-17.067v-102.4c0.009-9.422,7.645-17.057,17.067-17.067h25.6
			c14.132,0.015,25.585,11.468,25.6,25.6v85.333C315.718,150.666,304.266,162.118,290.133,162.133z M264.533,42.667v102.4h25.6
			c4.71-0.006,8.527-3.823,8.533-8.533V51.2c-0.006-4.71-3.823-8.527-8.533-8.533H264.533z"/>
		<path d="M273.067,76.8H256c-4.713,0-8.533-3.82-8.533-8.533c0-4.713,3.821-8.533,8.533-8.533h17.067
			c4.713,0,8.533,3.821,8.533,8.533C281.6,72.98,277.78,76.8,273.067,76.8z"/>
		<path d="M273.067,128H256c-4.713,0-8.533-3.821-8.533-8.533c0-4.713,3.821-8.533,8.533-8.533h17.067
			c4.713,0,8.533,3.821,8.533,8.533C281.6,124.18,277.78,128,273.067,128z"/>
		<path d="M259.367,512h-191.1c-23.553-0.028-42.639-19.114-42.667-42.667v-69.729c-0.019-6.794,2.682-13.314,7.5-18.104l15.6-15.6
			c1.606-1.598,2.506-3.772,2.5-6.038v-35.596c0.94-39.938,7.341-79.56,19.025-117.762c2.389-8.194-1.651-16.891-9.454-20.35
			l-40.5-18C7.949,162.671,0.007,150.45,0,136.963V51.2c0.022-18.842,15.291-34.112,34.133-34.133h57.662
			c4.53,0.012,8.876-1.788,12.071-5L105.933,10c6.387-6.424,15.079-10.025,24.138-10h76.171c6.187,0.002,12.257,1.684,17.563,4.867
			l36.588,21.95c2.614,1.569,4.192,4.413,4.141,7.462c-0.052,3.048-1.726,5.837-4.392,7.317c-2.666,1.479-5.918,1.424-8.532-0.145
			L215.021,19.5c-2.652-1.591-5.686-2.433-8.779-2.433h-76.171c-4.53-0.012-8.876,1.788-12.071,5l-2.067,2.067
			c-6.387,6.424-15.079,10.025-24.138,10H34.133c-9.422,0.009-17.057,7.645-17.067,17.067v85.762
			c0.003,6.744,3.975,12.855,10.138,15.596l40.5,18.004c15.626,6.954,23.696,24.397,18.879,40.808
			c-11.219,36.622-17.382,74.605-18.317,112.896v35.596c0.019,6.794-2.682,13.314-7.5,18.104l-15.6,15.6
			c-1.606,1.598-2.506,3.772-2.5,6.038v69.729c0.015,14.132,11.468,25.585,25.6,25.6h191.1c1.684,0.002,3.33-0.497,4.729-1.434
			l13.705-9.133c2.376-1.581,3.802-4.246,3.8-7.1v-28.063c0.003-1.78-0.554-3.516-1.592-4.962l-21.621-30.271
			c-9.623-13.44-25.132-21.421-41.663-21.438h-57.75c-9.719-0.006-18.873-4.571-24.725-12.33
			c-5.853-7.759-7.727-17.815-5.062-27.161l26.2-91.7c5.289-18.278,21.997-30.88,41.025-30.942l-0.112-6.542
			c-6.696-14.85-11.871-44.179,12.3-60.292c1.402-0.934,3.049-1.433,4.733-1.433h25.6c4.71-0.006,8.527-3.823,8.533-8.533V128
			c0-4.713,3.821-8.533,8.533-8.533s8.533,3.821,8.533,8.533v25.6c-0.015,14.132-11.468,25.585-25.6,25.6h-22.808
			c-16.225,13.238-3.825,38.588-3.692,38.85c0.592,1.185,0.9,2.492,0.9,3.817v8.704c-0.01,9.327-7.569,16.886-16.896,16.896
			c-11.427,0.027-21.465,7.59-24.642,18.567L145.6,357.725c-1.196,4.198-0.355,8.714,2.272,12.199
			c2.628,3.486,6.738,5.537,11.103,5.542h57.75c22.041,0.022,42.722,10.664,55.55,28.588l21.625,30.271
			c3.107,4.339,4.774,9.543,4.767,14.879v28.062c0.009,8.562-4.271,16.559-11.4,21.3l-13.7,9.133
			C269.364,510.509,264.422,512.006,259.367,512L259.367,512z"/>
		<path d="M76.8,141c-2.171-0.001-4.322-0.415-6.338-1.221l-25.604-10.246c-6.494-2.574-10.749-8.861-10.725-15.846V68.267
			C34.143,58.845,41.778,51.21,51.2,51.2h25.6c9.422,0.009,17.057,7.645,17.067,17.067v55.663
			C93.868,133.356,86.227,140.999,76.8,141z M51.2,68.267v45.421l25.6,10.246V68.267H51.2z"/>
		<path d="M503.467,102.4h-51.2c-4.713,0-8.533-3.821-8.533-8.533c0-4.713,3.82-8.533,8.533-8.533h51.2
			c4.713,0,8.533,3.821,8.533,8.533C512,98.58,508.18,102.4,503.467,102.4z"/>
		<path d="M162.142,273.067c-3.236,0.006-6.197-1.821-7.642-4.717c-15.467-30.938-17.963-56.454-7.417-75.838
			c14.292-26.271,46.863-30.175,48.242-30.325c0.312-0.037,0.627-0.055,0.941-0.054h17.067c4.713,0,8.533,3.821,8.533,8.533
			s-3.82,8.533-8.533,8.533h-16.5c-3.171,0.471-25.529,4.367-34.808,21.563c-7.663,14.188-5.058,34.358,7.742,59.954
			c1.323,2.644,1.182,5.784-0.371,8.3C167.843,271.532,165.098,273.065,162.142,273.067L162.142,273.067z"/>
		<path d="M170.667,392.533h-128c-4.713,0-8.533-3.82-8.533-8.533s3.821-8.533,8.533-8.533h128c4.713,0,8.533,3.82,8.533,8.533
			S175.38,392.533,170.667,392.533z"/>
		<path d="M290.133,469.333h-256c-4.713,0-8.533-3.821-8.533-8.533c0-4.713,3.821-8.533,8.533-8.533h256
			c4.713,0,8.533,3.821,8.533,8.533C298.667,465.513,294.846,469.333,290.133,469.333z"/>
		<path d="M341.333,85.333H307.2c-4.713,0-8.533-3.821-8.533-8.533c0-4.713,3.821-8.533,8.533-8.533h34.133
			c4.713,0,8.533,3.821,8.533,8.533C349.867,81.513,346.046,85.333,341.333,85.333z"/>
		<path d="M213.333,68.267H128c-4.713,0-8.533-3.821-8.533-8.533S123.287,51.2,128,51.2h85.333c4.713,0,8.533,3.821,8.533,8.533
			S218.046,68.267,213.333,68.267z"/>
		<path d="M213.333,102.4H128c-4.713,0-8.533-3.821-8.533-8.533c0-4.713,3.821-8.533,8.533-8.533h85.333
			c4.713,0,8.533,3.821,8.533,8.533C221.867,98.58,218.046,102.4,213.333,102.4z"/>
		<path d="M213.333,136.533H128c-4.713,0-8.533-3.821-8.533-8.533c0-4.713,3.821-8.533,8.533-8.533h85.333
			c4.713,0,8.533,3.821,8.533,8.533C221.867,132.713,218.046,136.533,213.333,136.533z"/>
	</g>
</g>
<g>
</g>
<g>
</g>
<g>
</g>
<g>
</g>
<g>
</g>
<g>
</g>
<g>
</g>
<g>
</g>
<g>
</g>
<g>
</g>
<g>
</g>
<g>
</g>
<g>
</g>
<g>
</g>
<g>
</g>
</svg>
