<svg height="512pt" viewBox="0 0 512 512" width="512pt" xmlns="http://www.w3.org/2000/svg"><path d="m487.039062 316h-462.027343c-1.683594 10.71875 1.039062 21.648438 5.257812 31.839844 4.742188 11.449218 12.890625 22.789062 23.558594 29.011718 6.871094 4.027344 11.441406 10.859376 12.523437 18.726563 1.667969 12.261719 7.1875 25.371094 15.9375 34.132813 8.761719 8.75 21.871094 14.269531 34.109376 15.929687 7.890624 1.089844 14.722656 5.648437 18.730468 12.507813 6.242188 10.691406 15.582032 20.839843 27.019532 25.582031 9.871093 4.089843 24.691406 5.878906 37.773437 2.441406 7.796875-2.042969 15.949219-.273437 22.089844 4.378906 9.847656 7.488281 21.597656 11.449219 33.988281 11.449219s24.140625-3.960938 33.96875-11.429688c4.460938-3.378906 9.992188-5.242187 15.589844-5.242187 6.53125 0 9.851562 2.691406 20.800781 2.691406 7.390625 0 14.621094-1.441406 21.480469-4.289062 11.449218-4.742188 22.789062-14.890625 29.019531-25.558594 4.019531-6.871094 10.851563-11.441406 18.71875-12.523437 12.261719-1.667969 25.371094-7.179688 34.132813-15.9375 8.75-8.761719 14.269531-21.871094 15.929687-34.109376 1.089844-7.890624 5.660156-14.722656 12.507813-18.730468 10.691406-6.242188 20.839843-17.582032 25.582031-29.019532 4.21875-10.203124 5.347656-21.140624 3.308593-31.851562zm0 0" fill="#ffe680"/><path d="m83.28125 316c24.769531 69.839844 94.5 123 172.71875 123s147.949219-53.160156 172.71875-123zm0 0" fill="#61729b"/><path d="m152.101562 316h207.796876c-20.777344 35.839844-59.570313 60-103.898438 60s-83.121094-24.160156-103.898438-60zm0 0" fill="#ffe680"/><path d="m483.730469 162.160156c-4.742188-11.449218-14.890625-20.789062-25.558594-27.019531-6.871094-4.019531-11.441406-10.851563-12.523437-18.71875-1.667969-12.261719-7.1875-25.371094-15.9375-34.132813-8.761719-8.75-21.871094-14.269531-34.109376-15.929687-7.890624-1.089844-14.722656-5.660156-18.730468-12.507813-6.242188-10.691406-17.582032-20.839843-29.019532-25.582031-6.871093-2.847656-14.101562-4.289062-21.480468-4.289062-4.820313 0-9.632813.628906-14.28125 1.847656-7.871094 2.0625-16.011719.230469-22.101563-4.378906-9.847656-7.488281-21.597656-11.449219-33.988281-11.449219s-24.140625 3.960938-33.96875 11.429688c-6.109375 4.628906-14.261719 6.449218-22.089844 4.410156-4.671875-1.230469-9.492187-1.859375-14.300781-1.859375-7.390625 0-16.621094 1.441406-23.480469 4.289062-11.449218 4.742188-20.789062 14.890625-27.019531 25.558594-4.019531 6.871094-10.851563 11.441406-18.71875 12.523437-12.261719 1.667969-25.371094 7.1875-34.132813 15.9375-8.75 8.761719-14.269531 21.871094-15.929687 34.109376-1.089844 7.890624-5.660156 14.722656-12.507813 18.730468-10.691406 6.242188-20.839843 15.582032-25.582031 27.019532-4.230469 10.230468-5.359375 22.78125-3.300781 33.863281l.03125-.011719h462.039062c2.039063-11.089844.921876-23.628906-3.308593-33.839844zm0 0" fill="#ffe680"/><path d="m256 73c-78.21875 0-147.949219 53.160156-172.71875 123h345.4375c-24.769531-69.839844-94.5-123-172.71875-123zm0 0" fill="#61729b"/><path d="m359.898438 196h-207.796876c20.777344-35.839844 59.570313-60 103.898438-60s83.121094 24.160156 103.898438 60zm0 0" fill="#ffe680"/><path d="m490.570312 222.03125c7.46875 9.828125 11.429688 21.578125 11.429688 33.96875s-3.960938 24.140625-11.441406 33.988281c-8.203125 10.820313-4.382813 21.082031-3.519532 26.011719-268.980468 0-193.125 0-462.027343 0 .621093-4.105469 4.886719-14.851562-3.582031-26.03125-7.46875-9.828125-11.429688-21.578125-11.429688-33.96875s3.960938-24.140625 11.441406-33.988281c8.230469-10.859375 4.382813-21.261719 3.527344-26l.03125-.011719h462.039062c-.796874 4.449219-4.847656 14.96875 3.53125 26.03125zm0 0" fill="#ff5d5d"/><path d="m116 246c-5.519531 0-10 4.480469-10 10s4.480469 10 10 10 10-4.480469 10-10-4.480469-10-10-10zm0 0"/><path d="m495.945312 202.054688c1.984376-2.597657 2.546876-5.910157 1.625-8.953126 1.351563-11.867187-.265624-24.300781-4.601562-34.765624-5.085938-12.292969-15.65625-23.597657-29.75-31.828126-4.207031-2.460937-7-6.636718-7.660156-11.4375-2.078125-15.261718-9.097656-30.160156-18.78125-39.855468-9.691406-9.679688-24.585938-16.695313-39.808594-18.761719-4.832031-.667969-9.011719-3.457031-11.460938-7.644531-7.488281-12.820313-20.449218-24.230469-33.824218-29.773438-13.652344-5.664062-28.378906-6.484375-42.125-2.878906-4.648438 1.21875-9.710938.214844-13.515625-2.664062-11.605469-8.828126-25.453125-13.492188-40.042969-13.492188-14.585938 0-28.425781 4.65625-40.011719 13.460938-3.828125 2.898437-8.886719 3.914062-13.503906 2.707031-15.230469-4.007813-32.261719-2.078125-44.148437 2.863281-12.292969 5.085938-23.597657 15.65625-31.828126 29.746094-2.460937 4.210937-6.636718 7.003906-11.4375 7.664062-15.265624 2.078125-30.160156 9.097656-39.855468 18.78125-9.679688 9.691406-16.695313 24.582032-18.761719 39.808594-.667969 4.832031-3.457031 9.011719-7.644531 11.460938-14.113282 8.238281-24.6875 19.542968-29.78125 31.835937-4.925782 11.914063-6.34375 26.3125-3.898438 39.453125.835938 4.648438 3.679688 11.148438-1.652344 18.179688-8.816406 11.609374-13.476562 25.457031-13.476562 40.039062 0 14.585938 4.65625 28.425781 13.457031 40.007812 2.945313 3.886719 3.929688 8.816407 2.710938 13.472657-3.785157 14.167969-.707031 28.738281 4.859375 42.183593 6.117187 14.777344 16.238281 27.105469 27.742187 33.8125 4.214844 2.472657 7.011719 6.652344 7.671875 11.453126 2.078125 15.265624 9.09375 30.160156 18.78125 39.855468 9.691406 9.683594 24.582032 16.695313 39.804688 18.761719 4.835937.667969 9.015625 3.457031 11.464844 7.644531 8.238281 14.113282 19.539062 24.6875 31.828124 29.777344 10.335938 4.285156 27.359376 7.289062 44.128907 2.875 4.648437-1.214844 9.703125-.214844 13.503906 2.667969 11.609375 8.824219 25.457031 13.488281 40.046875 13.488281 14.585938 0 28.425781-4.65625 40.011719-13.460938 2.730469-2.070312 6.121093-3.210937 9.546875-3.210937 5.558594 0 22.636718 7.394531 46.105468-2.359375 13.386719-5.539062 26.351563-16.941406 33.828126-29.75 2.460937-4.207031 6.636718-7 11.4375-7.660156 15.273437-2.078125 30.171874-9.101563 39.855468-18.78125 9.679688-9.691406 16.695313-24.585938 18.761719-39.808594.667969-4.832031 3.457031-9.011719 7.644531-11.460938 12.820313-7.488281 24.230469-20.449218 29.777344-33.835937 5.683594-13.730469 6.460938-28.410156 2.875-42.117187-1.230469-4.71875-.253906-9.648438 2.679688-13.515626 8.816406-11.609374 13.476562-25.457031 13.476562-40.039062 0-14.585938-4.65625-28.425781-13.457031-40.007812-2.9375-3.878907-3.957031-8.609376-2.597657-13.9375zm-13.355468 81.894531c-4.886719 6.445312-7.371094 14.171875-7.257813 22.050781h-438.664062c.117187-7.875-2.375-15.609375-7.277344-22.082031-6.144531-8.082031-9.390625-17.738281-9.390625-27.917969s3.253906-19.839844 9.40625-27.949219c4.890625-6.445312 7.378906-14.1875 7.265625-22.0625h46.539063c.023437 0 .046874.003907.066406.003907.027344 0 .050781-.003907.078125-.003907h391.976562c-.117187 7.878907 2.375 15.621094 7.277344 22.089844 6.144531 8.085937 9.390625 17.742187 9.390625 27.921875s-3.253906 19.839844-9.410156 27.949219zm-336.078125 42.050781c23.835937 37.148438 65.253906 60 109.488281 60s85.652344-22.863281 109.488281-60.011719h48.414063c-27.832032 61.289063-90.816406 103.011719-157.902344 103.011719s-130.070312-41.710938-157.902344-103zm24.710937-.011719h169.554688c-20.742188 25.027344-51.84375 40.011719-84.777344 40.011719s-64.035156-14.984375-84.777344-40.011719zm194.265625-139.988281c-23.835937-37.148438-65.253906-60-109.488281-60s-85.652344 22.851562-109.488281 60h-48.414063c27.832032-61.289062 90.816406-103 157.902344-103s130.070312 41.710938 157.902344 103zm-24.710937 0h-169.554688c20.742188-25.023438 51.84375-40 84.777344-40s64.035156 14.976562 84.777344 40zm-303.269532-20.023438c3.378907-8.152343 11.171876-16.25 21.394532-22.214843 9.523437-5.574219 15.851562-15.050781 17.367187-26.019531 1.476563-10.902344 6.496094-21.777344 13.085938-28.378907 6.605469-6.597656 17.492187-11.617187 28.421875-13.105469 10.9375-1.5 20.410156-7.835937 25.996094-17.386718 5.957031-10.195313 14.050781-17.984375 22.222656-21.367188 7.679687-3.191406 20.25-4.929687 31.421875-1.988281 10.519531 2.742187 21.976562.457031 30.660156-6.125 8.085937-6.144531 17.742187-9.390625 27.921875-9.390625s19.839844 3.253906 27.953125 9.425781c8.671875 6.5625 20.136719 8.835938 30.675781 6.078125 9.730469-2.554687 19.964844-1.90625 29.394532 2.003906 9.253906 3.835938 18.984374 12.429688 24.21875 21.394532 5.570312 9.523437 15.046874 15.851562 26.015624 17.367187 10.902344 1.476563 21.777344 6.496094 28.378907 13.089844 6.597656 6.601563 11.617187 17.488281 13.105469 28.421875 1.503906 10.933594 7.835937 20.40625 17.386718 25.996094 10.199219 5.953125 17.984375 14.050781 21.363282 22.210937 2.453124 5.917969 3.660156 13.003907 3.519531 20.011719h-42.375c-28.972657-72.765625-101.820313-123-179.636719-123s-150.664062 50.234375-179.636719 123h-42.378906c-.144531-6.984375 1.066406-14.078125 3.523437-20.023438zm436.984376 178.042969c-3.835938 9.253907-12.429688 18.984375-21.394532 24.21875-9.523437 5.574219-15.851562 15.046875-17.367187 26.019531-1.476563 10.902344-6.496094 21.777344-13.09375 28.382813-6.691407 6.691406-17.3125 11.589844-28.417969 13.101563-10.933594 1.5-20.40625 7.835937-25.996094 17.386718-5.222656 8.945313-14.953125 17.527344-24.21875 21.367188-17.816406 7.398437-28.761718.832031-38.445312.832031-7.761719 0-15.441406 2.582031-21.640625 7.28125-8.082031 6.144531-17.738281 9.390625-27.917969 9.390625s-19.839844-3.253906-27.953125-9.421875c-8.691406-6.582031-20.15625-8.828125-30.671875-6.078125-11.222656 2.949219-23.855469 1.117188-31.398438-2.007812-8.15625-3.378907-16.25-11.171876-22.214843-21.386719-5.566407-9.527344-15.039063-15.859375-26.019531-17.375-10.902344-1.476563-21.777344-6.496094-28.378907-13.089844-6.59375-6.601563-11.617187-17.488281-13.105469-28.421875-1.5-10.925781-7.832031-20.398438-17.390624-26.007812-7.824219-4.5625-14.878907-13.382813-19.359376-24.199219-2.753906-6.652344-4.355468-12.605469-4.835937-18.011719h41.691406c28.972657 72.765625 101.820313 123 179.636719 123s150.664062-50.234375 179.636719-123h42.378906c.050781 6.125-1.132813 12.242188-3.523437 18.019531zm0 0"/><path d="m396 246h-240c-5.523438 0-10 4.476562-10 10s4.476562 10 10 10h240c5.523438 0 10-4.476562 10-10s-4.476562-10-10-10zm0 0"/></svg>