<svg height="480pt" viewBox="0 0 480.00383 480" width="480pt" xmlns="http://www.w3.org/2000/svg"><path d="m328 472h-320v-368l96-96h224zm0 0" fill="#ffdaaa"/><path d="m104 8-96 96h96zm0 0" fill="#ff7956"/><path d="m96 296h144v128h-144zm0 0" fill="#ffcd00"/><path d="m408 286.027344c-.265625-30.210938 11.949219-59.191406 33.761719-80.097656 20.6875-19.398438 31.710937-46.972657 30.09375-75.289063-4.597657-48.472656-43.324219-86.652344-91.855469-90.558594-40.167969-1.660156-77.117188 21.886719-92.578125 58.996094s-6.164063 79.921875 23.296875 107.277344c21.667969 20.796875 33.71875 49.65625 33.28125 79.6875v49.957031h64zm0 0" fill="#ed1c24"/><path d="m326.71875 206.320312c21.65625 20.835938 33.707031 49.714844 33.28125 79.761719v49.917969h-16v-49.917969c.425781-30.046875-11.625-58.925781-33.28125-79.761719-29.484375-27.339843-38.796875-70.160156-23.328125-107.277343 15.46875-37.113281 52.433594-60.652344 92.609375-58.960938 1.28125.078125 2.558594.160157 3.839844.320313-37.851563 3.195312-70.25 28.433594-82.613282 64.351562-12.367187 35.917969-2.367187 75.746094 25.492188 101.566406zm0 0" fill="#ab2300"/><path d="m344 336h64v32h-64zm0 0" fill="#bddbff"/><path d="m456 400h-160c-8.835938 0-16 7.164062-16 16v32h192v-32c0-8.835938-7.164062-16-16-16zm0 0" fill="#006df0"/><path d="m296 448h160v24h-160zm0 0" fill="#a7a9ac"/><path d="m424 368h-96v32h96zm0 0" fill="#57a4ff"/><path d="m56 136h200v80h-200zm0 0" fill="#ffcd00"/><path d="m8 240v232h208c-114.96875 0-208-103.765625-208-232zm0 0" fill="#ffc477"/><path d="m344 336h16v32h-16zm0 0" fill="#9bc9ff"/><g fill="#231f20"><path d="m100.6875 0-100.6875 100.691406v379.308594h272v-16h-256v-352h96v-96h208v16h16v-32zm-73.375 96 68.6875-68.6875v68.6875zm0 0"/><path d="m144 64h16v16h-16zm0 0"/><path d="m176 64h88v16h-88zm0 0"/><path d="m144 96h16v16h-16zm0 0"/><path d="m176 96h88v16h-88zm0 0"/><path d="m256 224h-208v-96h208v16h-192v64h192zm0 0"/><path d="m48 240h16v16h-16zm0 0"/><path d="m80 240h176v16h-176zm0 0"/><path d="m248 432h-160v-144h160zm-144-16h128v-112h-128zm0 0"/><path d="m480 416c0-13.253906-10.746094-24-24-24h-24v-32h-16v-73.972656c-.234375-27.996094 11.0625-54.855469 31.238281-74.265625 22.390625-21.027344 34.324219-50.886719 32.601563-81.550781-5.007813-52.519532-46.96875-93.875-99.550782-98.121094-43.515624-1.792969-83.535156 23.71875-100.28125 63.917968-16.75 40.199219-6.675781 86.578126 25.238282 116.210938 20.035156 19.285156 31.171875 46.019531 30.753906 73.824219v73.957031h-16v32h-24c-13.253906 0-24 10.746094-24 24v40h16v24h176v-24h16zm-163.871094-215.511719c-17.914062-16.664062-28.101562-40.019531-28.128906-64.488281 0-23.96875 9.777344-46.90625 27.078125-63.503906 17.296875-16.59375 40.617187-25.414063 64.570313-24.421875 44.480468 3.601562 79.972656 38.585937 84.214843 83.007812 1.460938 25.949219-8.632812 51.21875-27.574219 69.015625-23.394531 22.4375-36.515624 53.515625-36.289062 85.929688v41.972656h-48v-41.957031c.414062-32.257813-12.574219-63.238281-35.871094-85.554688zm35.871094 143.511719h48v16h-48zm-16 32h80v16h-80zm112 88h-144v-8h144zm16-24h-176v-24c0-4.417969 3.582031-8 8-8h160c4.417969 0 8 3.582031 8 8zm0 0"/></g></svg>