<?xml version="1.0" encoding="utf-8"?>
<!-- Generator: Adobe Illustrator 22.0.0, SVG Export Plug-In . SVG Version: 6.00 Build 0)  -->
<svg xmlns="http://www.w3.org/2000/svg" xmlns:xlink="http://www.w3.org/1999/xlink" version="1.1" id="Layer_1" x="0px" y="0px" viewBox="0 0 256 256" style="enable-background:new 0 0 256 256;" xml:space="preserve" width="512" height="512">
<style type="text/css">
	.st0{fill:#3A312A;}
	.st1{fill:#D7E057;}
	.st2{fill:#8AC6DD;}
	.st3{fill:#87796F;}
	.st4{fill:#B9C239;}
	.st5{fill:#6CA8BF;}
	.st6{fill:#FCE8CB;}
	.st7{fill:#B9BC39;}
	.st8{fill:#68A8BC;}
	.st9{fill:#F16C7A;}
	.st10{fill:#D34E5C;}
	.st11{fill-rule:evenodd;clip-rule:evenodd;fill:#87796F;}
	.st12{fill:#DECAAD;}
	.st13{fill:#695B51;}
	.st14{fill:#6B5B51;}
	.st15{fill-rule:evenodd;clip-rule:evenodd;fill:#FCE8CB;}
	.st16{fill:#F5978A;}
</style>
<g>
	<g>
		<g>
			<path class="st1" d="M49.012,63.251c-0.974,11.564-13.024,13.39-13.024,13.39C46.335,77.128,48.913,90.7,48.913,90.7     c0.221-9.677,13.321-14.202,13.321-14.202C52.421,75.91,49.012,63.251,49.012,63.251z"/>
		</g>
	</g>
	<g>
		<g>
			<path class="st0" d="M62.324,75c-8.604-0.515-11.832-12.024-11.863-12.141c-0.19-0.702-0.852-1.166-1.584-1.102     c-0.725,0.066-1.298,0.642-1.359,1.367C46.658,73.34,36.205,75.089,35.764,75.158c-0.763,0.115-1.313,0.79-1.273,1.561     c0.04,0.77,0.657,1.384,1.428,1.421c9.027,0.425,11.498,12.718,11.521,12.842c0.138,0.711,0.76,1.217,1.473,1.217     c0.042,0,0.084-0.001,0.126-0.005c0.765-0.064,1.357-0.693,1.375-1.459c0.193-8.509,12.191-12.777,12.312-12.819     c0.676-0.235,1.092-0.914,0.994-1.622C63.622,75.584,63.038,75.043,62.324,75z M48.758,85.346     c-1.356-3.131-3.708-6.907-7.586-8.877c2.931-1.405,6.408-3.913,8.201-8.272c1.551,3.071,4.2,6.88,8.334,8.722     C54.699,78.559,50.784,81.324,48.758,85.346z"/>
		</g>
	</g>
	<g>
		<g>
			<path class="st1" d="M27.314,80.232c-0.689,8.179-9.212,9.471-9.212,9.471c7.318,0.344,9.142,9.944,9.142,9.944     c0.156-6.844,9.422-10.045,9.422-10.045C29.724,89.186,27.314,80.232,27.314,80.232z"/>
		</g>
	</g>
	<g>
		<g>
			<path class="st0" d="M36.755,88.104c-5.766-0.345-7.972-8.186-7.994-8.265c-0.189-0.702-0.859-1.16-1.581-1.102     c-0.726,0.065-1.3,0.643-1.361,1.368c-0.578,6.871-7.646,8.067-7.941,8.114c-0.763,0.115-1.314,0.79-1.274,1.561     c0.04,0.77,0.657,1.384,1.428,1.421c6.034,0.284,7.723,8.644,7.738,8.726c0.136,0.713,0.759,1.22,1.473,1.22     c0.041,0,0.083-0.002,0.125-0.005c0.765-0.063,1.358-0.694,1.376-1.461c0.13-5.71,8.331-8.634,8.412-8.662     c0.676-0.234,1.093-0.913,0.996-1.622C38.054,88.688,37.469,88.146,36.755,88.104z M27.17,94.898     c-0.924-1.885-2.34-3.947-4.446-5.28c1.855-1.041,3.697-2.629,4.87-4.916c1.058,1.874,2.654,3.954,4.941,5.223     C30.685,91.027,28.546,92.666,27.17,94.898z"/>
		</g>
	</g>
	<g>
		<g>
			<path class="st1" d="M27.314,53.574c-0.689,8.179-9.212,9.471-9.212,9.471c7.318,0.344,9.142,9.944,9.142,9.944     c0.156-6.845,9.422-10.045,9.422-10.045C29.724,62.528,27.314,53.574,27.314,53.574z"/>
		</g>
	</g>
	<g>
		<g>
			<path class="st0" d="M36.755,61.446c-5.766-0.345-7.972-8.185-7.994-8.264c-0.189-0.702-0.859-1.159-1.581-1.101     c-0.726,0.065-1.3,0.643-1.361,1.368c-0.578,6.871-7.646,8.067-7.941,8.114c-0.763,0.115-1.314,0.79-1.274,1.561     c0.04,0.77,0.657,1.384,1.428,1.421c6.034,0.284,7.723,8.643,7.738,8.725c0.136,0.712,0.759,1.22,1.473,1.22     c0.041,0,0.083-0.002,0.125-0.005c0.765-0.063,1.358-0.694,1.376-1.461c0.13-5.709,8.331-8.634,8.412-8.662     c0.676-0.234,1.093-0.913,0.996-1.622C38.054,62.03,37.469,61.489,36.755,61.446z M27.17,68.241     c-0.924-1.886-2.34-3.947-4.446-5.28c1.855-1.041,3.697-2.629,4.87-4.916c1.058,1.874,2.654,3.954,4.941,5.223     C30.685,64.369,28.546,66.009,27.17,68.241z"/>
		</g>
	</g>
	<g>
		<g>
			<path class="st2" d="M232.034,85.907c-1.677,0-3.236,0.498-4.546,1.348c0.001-0.046,0.007-0.091,0.007-0.137     c0-4.624-3.748-8.372-8.372-8.372c-4.624,0-8.372,3.748-8.372,8.372c0,0.047,0.006,0.091,0.007,0.137     c-1.31-0.849-2.869-1.348-4.546-1.348c-4.624,0-8.372,3.748-8.372,8.372c0,4.59,3.694,8.312,8.271,8.367v0.005h26.024v-0.005     c4.577-0.055,8.271-3.777,8.271-8.367C240.406,89.656,236.658,85.907,232.034,85.907z"/>
		</g>
	</g>
	<g>
		<g>
			<path class="st0" d="M232.034,84.407c-1.123,0-2.229,0.191-3.274,0.561c-0.984-4.413-4.931-7.722-9.637-7.722     c-4.706,0-8.652,3.309-9.637,7.722c-1.046-0.37-2.151-0.561-3.274-0.561c-5.443,0-9.872,4.429-9.872,9.872     c0,5.332,4.304,9.729,9.621,9.865c0.049,0.005,0.1,0.007,0.15,0.007h26.023c0.051,0,0.101-0.002,0.15-0.007     c5.317-0.135,9.621-4.533,9.621-9.865C241.906,88.836,237.477,84.407,232.034,84.407z M232.116,101.146     c-0.034,0.001-0.068,0.002-0.102,0.005h-25.78c-0.034-0.003-0.069-0.004-0.104-0.005c-3.744-0.045-6.79-3.125-6.79-6.867     c0-3.789,3.083-6.872,6.872-6.872c1.324,0,2.613,0.382,3.73,1.106c0.463,0.298,1.051,0.321,1.532,0.059     c0.483-0.262,0.784-0.768,0.784-1.318c0-0.061-0.003-0.121-0.007-0.137c0-3.789,3.083-6.872,6.872-6.872     c3.789,0,6.872,3.083,6.872,6.842c-0.002,0.024-0.006,0.111-0.007,0.135c-0.012,0.555,0.284,1.072,0.77,1.342     c0.485,0.271,1.08,0.251,1.547-0.051c1.116-0.724,2.405-1.106,3.729-1.106c3.789,0,6.872,3.083,6.872,6.872     C238.906,98.021,235.86,101.102,232.116,101.146z"/>
		</g>
	</g>
	<g>
		<g>
			<path class="st2" d="M88.385,23.61c-1.677,0-3.236,0.498-4.546,1.348c0.001-0.046,0.007-0.091,0.007-0.137     c0-4.624-3.748-8.372-8.372-8.372c-4.624,0-8.372,3.748-8.372,8.372c0,0.047,0.006,0.091,0.007,0.137     c-1.31-0.849-2.869-1.348-4.546-1.348c-4.624,0-8.372,3.748-8.372,8.372c0,4.59,3.694,8.312,8.271,8.367v0.005h26.024v-0.005     c4.577-0.055,8.271-3.777,8.271-8.367C96.757,27.358,93.009,23.61,88.385,23.61z"/>
		</g>
	</g>
	<g>
		<g>
			<path class="st0" d="M88.386,22.11c-1.123,0-2.229,0.191-3.274,0.561c-0.984-4.413-4.931-7.722-9.637-7.722     c-4.706,0-8.652,3.309-9.637,7.722c-1.046-0.37-2.151-0.561-3.274-0.561c-5.443,0-9.872,4.429-9.872,9.872     c0,5.332,4.304,9.729,9.621,9.864c0.05,0.005,0.1,0.007,0.15,0.007h26.023c0.051,0,0.101-0.002,0.149-0.007     c5.318-0.134,9.622-4.532,9.622-9.864C98.258,26.539,93.829,22.11,88.386,22.11z M88.469,38.849     c-0.035,0.001-0.069,0.002-0.104,0.005h-25.78c-0.034-0.003-0.069-0.004-0.105-0.005c-3.743-0.044-6.789-3.125-6.789-6.867     c0-3.789,3.083-6.872,6.872-6.872c1.324,0,2.613,0.382,3.73,1.106c0.467,0.301,1.062,0.322,1.547,0.051     c0.485-0.27,0.781-0.787,0.77-1.342l-0.007-0.105c0-3.789,3.083-6.872,6.872-6.872c3.789,0,6.872,3.083,6.873,6.829     c-0.003,0.038-0.008,0.143-0.008,0.181c0,0.55,0.301,1.056,0.784,1.318c0.481,0.262,1.07,0.24,1.532-0.059     c1.116-0.724,2.405-1.106,3.729-1.106c3.789,0,6.872,3.083,6.872,6.872C95.258,35.724,92.212,38.805,88.469,38.849z"/>
		</g>
	</g>
	<g>
		<g>
			<path class="st2" d="M162.456,51.11c-1.678,0-3.236,0.498-4.546,1.348c0.001-0.046,0.007-0.091,0.007-0.137     c0-4.624-3.748-8.372-8.372-8.372c-4.624,0-8.372,3.748-8.372,8.372c0,0.046,0.006,0.091,0.007,0.137     c-1.31-0.849-2.869-1.348-4.546-1.348c-4.624,0-8.372,3.748-8.372,8.372c0,4.59,3.694,8.312,8.271,8.367v0.005h26.024v-0.005     c4.577-0.055,8.271-3.777,8.271-8.367C170.828,54.859,167.08,51.11,162.456,51.11z"/>
		</g>
	</g>
	<g>
		<g>
			<path class="st0" d="M162.456,49.61c-1.123,0-2.229,0.191-3.275,0.56c-0.984-4.413-4.932-7.722-9.637-7.722     c-4.705,0-8.652,3.309-9.637,7.722c-1.046-0.37-2.151-0.56-3.274-0.56c-5.443,0-9.872,4.429-9.872,9.872     c0,5.332,4.304,9.729,9.621,9.864c0.05,0.005,0.1,0.007,0.15,0.007h26.023c0.051,0,0.101-0.002,0.15-0.007     c5.318-0.134,9.622-4.532,9.622-9.864C172.328,54.039,167.899,49.61,162.456,49.61z M162.539,66.349     c-0.035,0.001-0.069,0.002-0.104,0.005h-25.78c-0.034-0.003-0.069-0.004-0.105-0.005c-3.743-0.044-6.789-3.125-6.789-6.867     c0-3.789,3.083-6.872,6.872-6.872c1.324,0,2.614,0.382,3.729,1.106c0.467,0.303,1.062,0.322,1.547,0.052     c0.485-0.271,0.781-0.787,0.77-1.342l-0.007-0.105c0-3.789,3.083-6.872,6.872-6.872c3.789,0,6.872,3.083,6.872,6.842     c-0.002,0.024-0.006,0.111-0.007,0.135c-0.012,0.555,0.284,1.072,0.77,1.342c0.486,0.27,1.08,0.25,1.547-0.052     c1.115-0.724,2.405-1.106,3.73-1.106c3.789,0,6.872,3.083,6.872,6.872C169.328,63.224,166.282,66.305,162.539,66.349z"/>
		</g>
	</g>
	<g>
		<g>
			<path class="st9" d="M207.32,159.309c-0.49-0.05-0.98-0.08-1.47-0.1c-0.69-0.04-1.38-0.06-2.08-0.06l-37.16-34.97l-8.48-7.98     c-2.37-1.9-5.33-2.94-8.37-2.94H47.849c-5.56,0-10.55,3.44-12.53,8.63l-1.598,4.194l-4.918,12.907l-2.782,7.302l-4.022,10.557     c-0.58,1.52-0.88,3.14-0.88,4.77v39.828h222.88v-2.058C243.999,178.369,227.88,161.099,207.32,159.309z"/>
		</g>
	</g>
	<g>
		<g>
			<path class="st0" d="M207.472,157.817c-0.52-0.053-1.04-0.085-1.535-0.105c-0.521-0.03-1.042-0.049-1.567-0.058l-45.211-42.547     c-0.029-0.027-0.06-0.053-0.09-0.078c-2.631-2.109-5.937-3.27-9.309-3.27H47.849c-6.142,0-11.741,3.856-13.931,9.596     l-1.598,4.194c-0.295,0.774,0.093,1.641,0.867,1.936c0.773,0.294,1.642-0.093,1.936-0.868l1.598-4.193     c1.75-4.584,6.222-7.664,11.129-7.664h101.91c2.673,0,5.294,0.914,7.387,2.575l45.595,42.908     c0.278,0.262,0.646,0.408,1.028,0.408c0.671,0,1.332,0.019,2.019,0.059c0.46,0.019,0.92,0.047,1.401,0.095     c19.8,1.725,35.309,18.673,35.309,38.586v0.558H22.619V161.62c0-1.45,0.263-2.874,0.781-4.236l6.805-17.859     c0.295-0.774-0.093-1.641-0.867-1.936c-0.773-0.294-1.641,0.094-1.936,0.868l-6.805,17.859c-0.649,1.704-0.979,3.488-0.979,5.304     v39.828c0,0.829,0.672,1.5,1.5,1.5h222.88c0.828,0,1.5-0.671,1.5-1.5v-2.058C245.499,177.935,228.786,159.673,207.472,157.817z"/>
		</g>
	</g>
	<g>
		<g>
			<path class="st2" d="M105.523,124.289H49.08c-2.211,0-4.184,1.39-4.927,3.473l-8.765,24.558c-1.216,3.407,1.31,6.99,4.927,6.99     h65.208c3.082,0,5.581-2.499,5.581-5.581V129.87C111.104,126.788,108.605,124.289,105.523,124.289z"/>
		</g>
	</g>
	<g>
		<g>
			<path class="st0" d="M105.523,122.789H99.22c-0.828,0-1.5,0.671-1.5,1.5c0,0.829,0.672,1.5,1.5,1.5h6.304     c2.25,0,4.081,1.83,4.081,4.081v23.859c0,2.25-1.831,4.081-4.081,4.081H40.315c-1.23,0-2.342-0.577-3.051-1.582     c-0.708-1.005-0.878-2.246-0.464-3.404l8.766-24.559c0.528-1.481,1.94-2.477,3.514-2.477h35.818c0.828,0,1.5-0.671,1.5-1.5     c0-0.829-0.672-1.5-1.5-1.5H49.08c-2.838,0-5.386,1.796-6.34,4.469l-8.766,24.558c-0.734,2.059-0.421,4.354,0.838,6.141     c1.26,1.787,3.316,2.853,5.503,2.853h65.208c3.904,0,7.081-3.176,7.081-7.081V129.87     C112.604,125.966,109.428,122.789,105.523,122.789z"/>
		</g>
	</g>
	<g>
		<g>
			<path class="st2" d="M166.609,124.18H127.9c-3.08,0-5.58,2.5-5.58,5.58v23.97c0,3.08,2.5,5.58,5.58,5.58l75.87-0.16     L166.609,124.18z"/>
		</g>
	</g>
	<g>
		<g>
			<path class="st0" d="M204.798,158.057l-37.16-34.97c-0.278-0.262-0.646-0.408-1.028-0.408h-38.71c-3.904,0-7.08,3.176-7.08,7.08     v23.97c0,3.904,3.176,7.08,7.08,7.08h0.003l75.87-0.16c0.614-0.001,1.166-0.377,1.392-0.949     C205.391,159.129,205.245,158.478,204.798,158.057z M127.897,157.81c-2.249-0.001-4.078-1.831-4.078-4.08v-23.97     c0-2.25,1.83-4.08,4.08-4.08h38.115l33.98,31.977L127.897,157.81z"/>
		</g>
	</g>
	<g>
		<g>
			<path class="st3" d="M244.521,201.447H20.598c-2.862,0-5.182,2.32-5.182,5.182c0,2.862,2.32,5.181,5.182,5.181h223.923     c2.862,0,5.182-2.32,5.182-5.181C249.702,203.767,247.383,201.447,244.521,201.447z"/>
		</g>
	</g>
	<g>
		<g>
			<path class="st0" d="M244.52,199.947H20.599c-3.684,0-6.682,2.997-6.682,6.682c0,3.684,2.997,6.682,6.682,6.682H244.52     c3.685,0,6.682-2.997,6.682-6.682C251.202,202.945,248.205,199.947,244.52,199.947z M244.52,210.311H20.599     c-2.03,0-3.682-1.651-3.682-3.682c0-2.03,1.651-3.682,3.682-3.682H244.52c2.03,0,3.682,1.651,3.682,3.682     C248.202,208.659,246.551,210.311,244.52,210.311z"/>
		</g>
	</g>
	<g>
		<g>
			<circle class="st3" cx="55.353" cy="211.965" r="27.586"/>
		</g>
	</g>
	<g>
		<g>
			<path class="st0" d="M55.352,182.879c-16.038,0-29.086,13.048-29.086,29.086s13.048,29.086,29.086,29.086     c16.039,0,29.087-13.048,29.087-29.086S71.392,182.879,55.352,182.879z M55.352,238.051c-14.384,0-26.086-11.702-26.086-26.086     s11.702-26.086,26.086-26.086c14.385,0,26.087,11.702,26.087,26.086S69.737,238.051,55.352,238.051z"/>
		</g>
	</g>
	<g>
		<g>
			
				<ellipse transform="matrix(0.9213 -0.3887 0.3887 0.9213 -78.045 38.189)" class="st6" cx="55.353" cy="211.965" rx="12.217" ry="12.217"/>
		</g>
	</g>
	<g>
		<g>
			<path class="st0" d="M55.352,198.248c-7.563,0-13.717,6.153-13.717,13.717c0,7.564,6.153,13.717,13.717,13.717     c7.565,0,13.718-6.153,13.718-13.717C69.07,204.401,62.917,198.248,55.352,198.248z M55.352,222.683     c-5.909,0-10.717-4.808-10.717-10.717c0-5.91,4.808-10.717,10.717-10.717c5.91,0,10.718,4.808,10.718,10.717     C66.07,217.875,61.263,222.683,55.352,222.683z"/>
		</g>
	</g>
	<g>
		<g>
			<circle class="st3" cx="209.766" cy="211.965" r="27.586"/>
		</g>
	</g>
	<g>
		<g>
			<path class="st0" d="M209.766,182.879c-16.038,0-29.086,13.048-29.086,29.086s13.048,29.086,29.086,29.086     s29.086-13.048,29.086-29.086S225.804,182.879,209.766,182.879z M209.766,238.051c-14.384,0-26.086-11.702-26.086-26.086     s11.702-26.086,26.086-26.086c14.384,0,26.086,11.702,26.086,26.086S224.149,238.051,209.766,238.051z"/>
		</g>
	</g>
	<g>
		<g>
			<circle class="st6" cx="209.766" cy="211.965" r="12.217"/>
		</g>
	</g>
	<g>
		<g>
			<path class="st0" d="M209.766,198.248c-7.563,0-13.717,6.153-13.717,13.717c0,7.564,6.153,13.717,13.717,13.717     c7.564,0,13.718-6.153,13.718-13.717C223.483,204.401,217.33,198.248,209.766,198.248z M209.766,222.683     c-5.909,0-10.717-4.808-10.717-10.717c0-5.91,4.808-10.717,10.717-10.717c5.91,0,10.718,4.808,10.718,10.717     C220.483,217.875,215.676,222.683,209.766,222.683z"/>
		</g>
	</g>
	<g>
		<g>
			<path class="st3" d="M43.681,166.382h-6.794c-1.816,0-3.288,1.472-3.288,3.288v6.794c0,1.816,1.472,3.288,3.288,3.288h6.794     c1.816,0,3.288-1.472,3.288-3.288v-6.794C46.969,167.855,45.497,166.382,43.681,166.382z"/>
		</g>
	</g>
	<g>
		<g>
			<path class="st0" d="M43.681,164.882h-6.794c-2.641,0-4.788,2.148-4.788,4.789v6.794c0,2.64,2.148,4.788,4.788,4.788h6.794     c2.641,0,4.788-2.148,4.788-4.788v-6.794C48.469,167.03,46.321,164.882,43.681,164.882z M45.469,176.465     c0,0.986-0.802,1.788-1.788,1.788h-6.794c-0.986,0-1.788-0.802-1.788-1.788v-6.794c0-0.986,0.802-1.789,1.788-1.789h6.794     c0.986,0,1.788,0.802,1.788,1.789V176.465z"/>
		</g>
	</g>
	<g>
		<g>
			<path class="st1" d="M234.935,165.861h-11c-3.659,0-6.625,2.966-6.625,6.625s2.966,6.625,6.625,6.625h11     c3.659,0,6.625-2.966,6.625-6.625S238.593,165.861,234.935,165.861z"/>
		</g>
	</g>
	<g>
		<g>
			<path class="st0" d="M234.935,164.361h-11c-4.48,0-8.125,3.645-8.125,8.125s3.645,8.125,8.125,8.125h11     c4.48,0,8.125-3.645,8.125-8.125S239.415,164.361,234.935,164.361z M234.935,177.611h-11c-2.826,0-5.125-2.299-5.125-5.125     c0-2.826,2.299-5.125,5.125-5.125h11c2.826,0,5.125,2.299,5.125,5.125C240.06,175.312,237.761,177.611,234.935,177.611z"/>
		</g>
	</g>
	<g>
		<g>
			<path class="st10" d="M157.149,117.331c-2.1-1.66-4.72-2.57-7.39-2.57h-15c2.67,0,5.29,0.91,7.39,2.57l5.68,5.35h15     L157.149,117.331z"/>
		</g>
	</g>
	<g>
		<g>
			<path class="st10" d="M237.359,180.241c-0.77,0.24-1.58,0.37-2.42,0.37h-11c-0.49,0-0.98-0.04-1.45-0.13     c1.28,2.25,2.34,4.63,3.14,7.12c4.61,3.02,8.31,7.3,10.61,12.35h6.26v-0.56C242.499,192.481,240.63,185.921,237.359,180.241z"/>
		</g>
	</g>
	<g>
		<g>
			<path class="st10" d="M215.81,172.491c0-3.53,2.26-6.53,5.4-7.65c-4.28-2.19-9.01-3.6-14.02-4.04c-0.48-0.05-0.94-0.07-1.4-0.09     c-0.69-0.04-1.35-0.06-2.01-0.06c-0.01,0-0.01,0-0.01,0l-13.77,0.03c0.26,0,0.52,0.01,0.79,0.03c0.46,0.02,0.92,0.04,1.4,0.09     c5.01,0.44,9.74,1.85,14.02,4.04c-3.14,1.12-5.4,4.12-5.4,7.65c0,4.47,3.65,8.12,8.13,8.12h11c0.69,0,1.36-0.09,2-0.25     C218.419,179.471,215.81,176.271,215.81,172.491z"/>
		</g>
	</g>
	<g>
		<g>
			<path class="st5" d="M166.02,125.681h-15l33.98,31.98l-57.58,0.12c0.15,0.02,0.32,0.03,0.48,0.03l72.1-0.15L166.02,125.681z"/>
		</g>
	</g>
	<g>
		<g>
			<path class="st3" d="M14.896,142h-2.377c-3.436,0-6.221,2.785-6.221,6.221v42.057c0,3.436,2.785,6.221,6.221,6.221h2.377     c3.436,0,6.221-2.785,6.221-6.221v-42.057C21.118,144.785,18.332,142,14.896,142z"/>
		</g>
	</g>
	<g>
		<g>
			<path class="st0" d="M14.896,140.5h-2.378c-4.257,0-7.721,3.464-7.721,7.721v42.058c0,4.257,3.464,7.721,7.721,7.721h2.378     c4.257,0,7.721-3.464,7.721-7.721v-42.058C22.617,143.964,19.153,140.5,14.896,140.5z M19.617,190.279     c0,2.603-2.118,4.721-4.721,4.721h-2.378c-2.603,0-4.721-2.118-4.721-4.721v-42.058c0-2.603,2.118-4.721,4.721-4.721h2.378     c2.603,0,4.721,2.118,4.721,4.721V190.279z"/>
		</g>
	</g>
	<g>
		<g>
			<path class="st1" d="M19.774,165.861h-4.881v13.25h4.881c3.659,0,6.625-2.966,6.625-6.625S23.432,165.861,19.774,165.861z"/>
		</g>
	</g>
	<g>
		<g>
			<path class="st0" d="M19.773,164.361h-4.881c-0.828,0-1.5,0.671-1.5,1.5v13.25c0,0.829,0.672,1.5,1.5,1.5h4.881     c4.481,0,8.125-3.645,8.125-8.125S24.254,164.361,19.773,164.361z M19.773,177.611h-3.381v-10.25h3.381     c2.826,0,5.125,2.299,5.125,5.125C24.898,175.312,22.599,177.611,19.773,177.611z"/>
		</g>
	</g>
</g>
</svg>
