<?xml version="1.0" encoding="iso-8859-1"?>
<!-- Generator: Adobe Illustrator 19.0.0, SVG Export Plug-In . SVG Version: 6.00 Build 0)  -->
<svg version="1.1" id="Capa_1" xmlns="http://www.w3.org/2000/svg" xmlns:xlink="http://www.w3.org/1999/xlink" x="0px" y="0px"
	 viewBox="0 0 497.208 497.208" style="enable-background:new 0 0 497.208 497.208;" xml:space="preserve">
<polygon style="fill:#ECECEC;" points="376.604,456 120.604,456 8.604,344 8.604,8 376.604,8 376.604,168 "/>
<path style="fill:#B6C1CE;" d="M240.604,376.288c0,32.232,16.304,61.992,42.88,79.712h85.12V240h-128V376.288z"/>
<polygon style="fill:#FCD770;" points="120.604,408 224.604,408 224.604,280 72.604,280 72.604,344 120.604,344 "/>
<polygon style="fill:#FEA82F;" points="120.604,456 120.604,344 8.604,344 "/>
<path style="fill:#FB5968;" d="M488.604,248v120.288c0,34.448-18.456,66.256-48.368,83.352L376.604,488l-63.632-36.36
	c-29.912-17.088-48.368-48.904-48.368-83.352V248h22.312c36.04,0,69.696-18.016,89.688-48l0,0l0,0
	c19.992,29.984,53.648,48,89.688,48H488.604z"/>
<rect x="56.604" y="40" style="fill:#FCD770;" width="272" height="32"/>
<path d="M466.292,240c-33.44,0-64.48-16.608-83.032-44.44l-6.656-9.984l-6.656,9.984C351.396,223.392,320.356,240,286.916,240
	h-30.312v128.288c0,31.008,13.96,60.152,37.288,79.712H128.604v-32h104V272h-168v64h-48V16h352v144h16V0h-384v347.312L117.292,464
	h201.192l58.12,33.208l67.6-38.624c32.32-18.464,52.4-53.072,52.4-90.296V240H466.292z M112.604,436.688L27.916,352h84.688V436.688z
	 M80.604,288h136v112h-88v-64h-48V288z M480.604,368.288c0,31.504-16.992,60.776-44.336,76.408l-59.664,34.096l-59.664-34.096
	c-27.344-15.632-44.336-44.904-44.336-76.408V256h14.312c35.04,0,67.808-15.72,89.688-42.544
	C398.484,240.28,431.252,256,466.292,256h14.312V368.288z"/>
<path d="M448.604,368.288c0,20.048-10.816,38.68-28.216,48.624l7.936,13.888c22.376-12.784,36.28-36.736,36.28-62.512V320h-16
	V368.288z"/>
<path d="M336.604,32h-288v48h288V32z M320.604,64h-256V48h256V64z"/>
<polygon points="442.948,274.344 336.604,380.688 310.26,354.344 298.948,365.656 336.604,403.312 454.26,285.656 "/>
<rect x="96.604" y="304" width="104" height="16"/>
<rect x="144.604" y="336" width="56" height="16"/>
<rect x="144.604" y="368" width="56" height="16"/>
<rect x="48.604" y="112" width="256" height="16"/>
<rect x="48.604" y="144" width="256" height="16"/>
<rect x="48.604" y="176" width="256" height="16"/>
<rect x="48.604" y="208" width="152" height="16"/>
<rect x="48.604" y="240" width="152" height="16"/>
<rect x="320.604" y="112" width="16" height="16"/>
<rect x="320.604" y="144" width="16" height="16"/>
<rect x="320.604" y="176" width="16" height="16"/>
<rect x="216.604" y="208" width="16" height="16"/>
<rect x="216.604" y="240" width="16" height="16"/>
<g>
</g>
<g>
</g>
<g>
</g>
<g>
</g>
<g>
</g>
<g>
</g>
<g>
</g>
<g>
</g>
<g>
</g>
<g>
</g>
<g>
</g>
<g>
</g>
<g>
</g>
<g>
</g>
<g>
</g>
</svg>
