<svg height="512pt" viewBox="0 0 512 511" width="512pt" xmlns="http://www.w3.org/2000/svg"><path d="M472 104.371c17.672 0 32 14.328 32 32v224c0 17.676-14.328 32-32 32H320l-64 104-64-104H40c-17.672 0-32-14.324-32-32v-224c0-17.672 14.328-32 32-32zm0 0" fill="#a6e7ff"/><path d="M142.336 265.516l43.473 22.855-8.305-48.398 35.168-34.282-48.602-7.062-21.734-44.04-21.734 44.04L72 205.69l35.168 34.282-8.305 48.398zm227.328 0l43.473 22.855-8.305-48.398L440 205.69l-48.602-7.062-21.734-44.04-21.734 44.04-48.602 7.062 35.168 34.282-8.305 48.398zm0 0" fill="#e2fc85"/><path d="M256 18.875l34.61 71.61L368 101.73l-56 54.586 13.215 77.079L256 197.004l-69.215 36.39L200 156.317l-56-54.586 77.39-11.246zm0 0" fill="#ff8a65"/><path d="M248 304.371h16v64h-16zm-32 16h16v48h-16zm-32 16h16v32h-16zm128 0h16v32h-16zm-32-16h16v48h-16zm0 0" fill="#fff"/><path d="M472 96.371h-72v16h72c13.254 0 24 10.746 24 24v224c0 13.254-10.746 24-24 24H315.527L256 481.11l-59.527-96.738H40c-13.254 0-24-10.746-24-24v-224c0-13.254 10.746-24 24-24h72v-16H40c-22.082.027-39.973 17.922-40 40v224c.027 22.082 17.918 39.973 40 40h147.527L256 511.637l68.473-111.266H472c22.082-.027 39.973-17.918 40-40v-224c-.027-22.078-17.918-39.973-40-40zm0 0"/><path d="M56 152.371h32v-16H40v48h16zm-16 160v48h48v-16H56v-32zm432-128v-48h-48v16h32v32zm-16 160h-32v16h48v-48h-16zm0 0"/><path d="M169.383 191.316l-27.047-54.8-27.047 54.8-60.48 8.801 43.757 42.656-10.328 60.239 54.098-28.442 54.098 28.442-10.336-60.239L256 206.043l69.902 36.73-10.336 60.2 54.098-28.442 54.098 28.442-10.328-60.2 43.757-42.656-60.48-8.8-27.047-54.801-27.047 54.8-16.097 2.344-5.926-34.543 64.597-62.969-89.23-12.96L256 .5l-40 82.688-89.23 12.96 64.597 62.97-5.926 34.542zm10.465 35.2l-10.946 10.656 6.274 36.574-32.801-17.262-32.84 17.262 6.227-36.574-26.57-25.902 36.718-5.329 16.426-33.273 16.426 33.305 24 3.488zm173.39-20.543l16.426-33.274 16.426 33.274 36.719 5.328-26.57 25.87 6.265 36.575-32.84-17.262-32.8 17.262 6.273-36.574-10.946-10.664-2.925-17.078zm-192.047-98.657l65.551-9.52L256 37.263l29.258 60.535 65.55 9.52-47.402 46.206 11.203 65.25L256 187.965l-58.594 30.808 11.203-65.25zm0 0"/></svg>