<svg height="512pt" viewBox="0 0 512 512" width="512pt" xmlns="http://www.w3.org/2000/svg"><path d="M156 242.648l1.25.739H156l-146-89.09V9.997h146zM502 9.996v144.3l-146 88.352V9.996zm0 0" fill="#f46370"/><path d="M356 9.996v232.652L256 301.54l-98.75-58.152-1.25-.739V9.996zm0 0" fill="#fff"/><path d="M288.277 367.57l72.696 10.844-52.828 51.102 12.148 72.488-64.922-34.45-65.183 33.954 12.699-72.39-52.434-51.505 72.774-10.293 32.777-65.78zm0 0" fill="#ffbd5a"/><path d="M502 0H10C4.48 0 0 4.48 0 10v144.3c0 3.481 1.82 6.72 4.79 8.528l146 89.094a9.995 9.995 0 003.48 1.316l88.62 52.192-26.269 52.73-67.57 9.55c-3.77.54-6.91 3.161-8.102 6.778a10.02 10.02 0 002.492 10.262l48.688 47.82-11.79 67.211a9.98 9.98 0 003.942 9.79 9.99 9.99 0 0010.528.808l60.52-31.527 60.28 31.988a9.964 9.964 0 004.68 1.16 9.92 9.92 0 005.852-1.89 9.985 9.985 0 004.02-9.758l-11.282-67.301 49.043-47.45a9.97 9.97 0 002.566-10.242 10.014 10.014 0 00-8.039-6.84l-67.5-10.058-25.898-53 91.98-54.18.04-.02a1.69 1.69 0 01.109-.062l146-88.347A9.993 9.993 0 00512 154.3V10c0-5.52-4.48-10-10-10zM146 225.57L20 148.691V20h126zm133.29 146.39a10 10 0 007.51 5.5l52.65 7.86-38.259 37.008a10.017 10.017 0 00-2.91 8.844l8.797 52.5-47.02-24.953a10.015 10.015 0 00-4.687-1.168c-1.582 0-3.172.379-4.621 1.129l-47.21 24.601 9.198-52.441a10 10 0 00-2.847-8.86l-37.97-37.3 52.7-7.461a9.995 9.995 0 007.559-5.438l23.742-47.652zM346 236.93l-90 53-90-52.989V20h180zm146-88.27l-126 76.25V20h126zm0 0"/><path d="M256 224.254c-5.523 0-10-4.48-10-10v-39.555c0-5.523 4.477-10 10-10s10 4.477 10 10v39.555c0 5.52-4.477 10-10 10zm.02 34.824c-5.524 0-10.004-4.476-10.004-10 0-5.52 4.472-10 9.996-10h.008c5.523 0 10 4.48 10 10 0 5.524-4.477 10-10 10zm0 0"/></svg>