<svg height="512pt" viewBox="-8 0 512 512" width="512pt" xmlns="http://www.w3.org/2000/svg"><path d="M338.258 381.492c0-29.55 23.957-53.508 53.512-53.508h46.601V223.813H42.195c-17.32 0-31.437-13.676-32.16-30.817H10v275.957C10 487.203 24.797 502 43.047 502h362.281c18.25 0 33.043-14.793 33.043-33.047v-33.95H391.77c-29.555 0-53.512-23.956-53.512-53.51zm0 0" fill="#ffcb7c"/><path d="M42.195 223.813h396.176V184.84c0-14.035-11.379-25.414-25.41-25.414h-25.856l-16.738 23.988H73.586l16.309-23.988h-47.7C24.415 159.426 10 173.84 10 191.62c0 17.762 14.406 32.191 32.195 32.191zm409.723 33.351h-13.547v70.816h13.164c19.16 0 34.688-15.527 34.688-34.683v-1.828c0-18.946-15.36-34.305-34.305-34.305zm0 0" fill="#ffedd1"/><path d="M451.535 327.98H391.77c-29.555 0-53.512 23.961-53.512 53.512 0 29.555 23.957 53.512 53.512 53.512h58.62c19.79 0 35.833-16.043 35.833-35.832V293.297c0 19.156-15.532 34.683-34.688 34.683zm-56.25 78.805c-13.933 0-25.234-11.297-25.234-25.234s11.3-25.235 25.234-25.235c13.938 0 25.235 11.297 25.235 25.235s-11.297 25.234-25.235 25.234zm0 0" fill="#d29976"/><path d="M420.52 381.55c0 13.938-11.297 25.235-25.235 25.235s-25.234-11.297-25.234-25.234 11.297-25.235 25.234-25.235 25.235 11.297 25.235 25.235zm0 0" fill="#91def5"/><path d="M161.27 183.414l76.816-112.98-43.465-28.485c-9.543-6.254-22.336-3.703-28.754 5.735L89.895 159.426l-16.31 23.988zm0 0" fill="#ff6977"/><path d="M161.27 183.414h209.097l16.738-23.988 8.98-12.871c-18.28-9.153-30.835-28.043-30.835-49.875 0-13.586 4.863-26.032 12.934-35.703l31.3 20.511-102.796-67.367 32.718 21.441C329.508 54.32 309.82 67.11 287.141 67.11a58.828 58.828 0 01-37.606-13.511l22.086-32.485-33.535 49.32zm0 0" fill="#cbe558"/><path d="M287.14 67.11c22.68 0 42.368-12.79 52.266-31.547L306.687 14.12c-11.64-7.629-27.242-4.52-35.066 6.992l-22.086 32.485a58.826 58.826 0 0037.606 13.511zm78.11 29.57c0 21.832 12.555 40.722 30.836 49.879l20.332-29.149c8.227-11.789 5.09-28.043-6.934-35.922l-31.3-20.511c-8.07 9.671-12.934 22.117-12.934 35.703zm0 0" fill="#94efef"/><path d="M210.207 429.61c-4.39-.887-9.238 1.304-11.191 5.98-1.77 4.258-.434 9.32 3.683 12.144a10 10 0 0014.79-4.492c2.437-5.945-1.177-12.394-7.282-13.633zm0 0"/><path d="M495.773 285.2c-3.058-21.473-21.554-38.036-43.855-38.036h-3.547V184.84c0-19.527-15.883-35.414-35.41-35.414h-6.684l18.344-26.293c11.461-16.426 7.098-39.028-9.656-50.008-13.348-8.746-106.91-69.773-109.07-70.633-15.118-6.012-33.07-.941-42.543 12.996L235.344 56.68l-35.239-23.094c-14.02-9.188-33.085-5.383-42.507 8.477L84.602 149.426H42.195C20.254 149.426 0 166.536 0 192.992v275.961C0 492.691 19.312 512 43.047 512h362.281c23.734 0 43.043-19.309 43.043-43.047v-23.945h2.02c25.273 0 45.832-20.563 45.832-45.836 0-121.254.222-111.817-.45-113.973zm-43.855-18.036c13.402 0 24.305 10.902 24.305 24.305-.059.5.578 7.777-3.578 14.617-8.352 13.726-23.583 11.73-24.27 11.894v-50.816zM252.128 67.566c30.161 17.715 69.044 10.25 90.263-18.086l21.726 14.239c-16.59 28.656-9.472 65.722 17.715 85.789l-16.68 23.906H180.164c1.938-2.855 62.441-91.84 71.965-105.848zm27.763-40.832c4.722-6.949 14.285-8.859 21.312-4.25l24.418 16.004a48.953 48.953 0 01-38.48 18.621 49.157 49.157 0 01-23.739-6.125zM404 89.855c7.316 4.793 9.223 14.66 4.219 21.832l-14.934 21.403c-18.21-13.8-23.168-38.727-12.406-58.39zm-229.86-36.55c3.325-4.89 10.055-6.23 15-2.989l34.954 22.907-68.117 100.191H92.48zM42.196 169.43H71c-4.531 7.23-7.156 9.004-7.398 13.433-.317 5.73 4.25 10.555 9.984 10.555H370.37a9.996 9.996 0 008.2-4.281l13.75-19.707h20.64c8.496 0 15.41 6.914 15.41 15.41v28.972H42.195c-29.918 0-28.777-44.382 0-44.382zm386.176 299.523c0 12.707-10.34 23.043-23.043 23.043H43.047c-12.707 0-23.043-10.336-23.043-23.043v-19.535H168.25c5.52 0 10-4.48 10-10 0-5.523-4.48-10.004-10-10.004H20.004V227.551a42.37 42.37 0 0013.656 5.394c10.41 2.145 5.656.164 394.711.867v84.168H391.77c-35.02 0-63.512 28.493-63.512 63.512 0 35.024 28.492 63.516 63.512 63.516h36.601zm47.852-69.781c0 14.242-11.59 25.832-25.832 25.832H391.77c-23.989 0-43.508-19.52-43.508-43.512 0-23.988 19.52-43.508 43.508-43.508h59.77a44.627 44.627 0 0024.683-7.453zm0 0"/><path d="M395.285 346.316c-19.43 0-35.234 15.805-35.234 35.235s15.808 35.234 35.234 35.234c19.43 0 35.238-15.805 35.238-35.234 0-19.43-15.808-35.235-35.238-35.235zm0 50.47c-8.398 0-15.23-6.837-15.23-15.235 0-8.399 6.832-15.235 15.23-15.235 8.402 0 15.235 6.836 15.235 15.235 0 8.398-6.833 15.234-15.235 15.234zm0 0"/></svg>