<svg height="512pt" viewBox="0 0 512 511" width="512pt" xmlns="http://www.w3.org/2000/svg"><path d="m472 104.371094c17.671875 0 32 14.328125 32 32v224c0 17.675781-14.328125 32-32 32h-152l-64 104-64-104h-152c-17.671875 0-32-14.324219-32-32v-224c0-17.671875 14.328125-32 32-32zm0 0" fill="#a6e7ff"/><path d="m142.335938 265.515625 43.472656 22.855469-8.304688-48.398438 35.167969-34.28125-48.601563-7.0625-21.734374-44.039062-21.734376 44.039062-48.601562 7.0625 35.167969 34.28125-8.304688 48.398438zm0 0" fill="#e2fc85"/><path d="m369.664062 265.515625 43.472657 22.855469-8.304688-48.398438 35.167969-34.28125-48.601562-7.0625-21.734376-44.039062-21.734374 44.039062-48.601563 7.0625 35.167969 34.28125-8.304688 48.398438zm0 0" fill="#e2fc85"/><path d="m256 18.875 34.609375 71.609375 77.390625 11.246094-56 54.585937 13.214844 77.078125-69.214844-36.390625-69.214844 36.390625 13.214844-77.078125-56-54.585937 77.390625-11.246094zm0 0" fill="#ff8a65"/><g fill="#fff"><path d="m248 304.371094h16v64h-16zm0 0"/><path d="m216 320.371094h16v48h-16zm0 0"/><path d="m184 336.371094h16v32h-16zm0 0"/><path d="m312 336.371094h16v32h-16zm0 0"/><path d="m280 320.371094h16v48h-16zm0 0"/></g><path d="m472 96.371094h-72v16h72c13.253906 0 24 10.746094 24 24v224c0 13.253906-10.746094 24-24 24h-156.472656l-59.527344 96.738281-59.527344-96.738281h-156.472656c-13.253906 0-24-10.746094-24-24v-224c0-13.253906 10.746094-24 24-24h72v-16h-72c-22.082031.027344-39.9726562 17.921875-40 40v224c.0273438 22.082031 17.917969 39.972656 40 40h147.527344l68.472656 111.265625 68.472656-111.265625h147.527344c22.082031-.027344 39.972656-17.917969 40-40v-224c-.027344-22.078125-17.917969-39.972656-40-40zm0 0"/><path d="m56 152.371094h32v-16h-48v48h16zm0 0"/><path d="m40 312.371094v48h48v-16h-32v-32zm0 0"/><path d="m472 184.371094v-48h-48v16h32v32zm0 0"/><path d="m456 344.371094h-32v16h48v-48h-16zm0 0"/><path d="m169.382812 191.316406-27.046874-54.800781-27.046876 54.800781-60.480468 8.800782 43.757812 42.65625-10.328125 60.238281 54.097657-28.441407 54.097656 28.441407-10.335938-60.238281 69.902344-36.730469 69.902344 36.730469-10.335938 60.199218 54.097656-28.441406 54.097657 28.441406-10.328125-60.199218 43.757812-42.65625-60.480468-8.800782-27.046876-54.800781-27.046874 54.800781-16.097657 2.34375-5.925781-34.542968 64.597656-62.96875-89.230468-12.960938-39.960938-82.6875-40 82.6875-89.230469 12.960938 64.597657 62.96875-5.925782 34.542968zm10.464844 35.199219-10.945312 10.65625 6.273437 36.574219-32.800781-17.261719-32.839844 17.261719 6.226563-36.574219-26.570313-25.902344 36.71875-5.328125 16.425782-33.273437 16.425781 33.304687 24 3.488282zm173.390625-20.542969 16.425781-33.273437 16.425782 33.273437 36.71875 5.328125-26.570313 25.871094 6.265625 36.574219-32.839844-17.261719-32.800781 17.261719 6.273438-36.574219-10.945313-10.664063-2.925781-17.078124zm-192.046875-98.65625 65.550782-9.519531 29.257812-60.535156 29.257812 60.535156 65.550782 9.519531-47.402344 46.207032 11.203125 65.25-58.609375-30.808594-58.59375 30.808594 11.203125-65.25zm0 0"/></svg>